<svg xmlns="http://www.w3.org/2000/svg" viewBox="0 0 725.39 436.34"><defs><style>.cls-1{fill:#ebebeb;}.cls-2{fill:#e0e0e0;}.cls-3{fill:#ff725e;}.cls-4{fill:#263238;}.cls-5{fill:#455a64;}.cls-6{opacity:0.2;}.cls-7{fill:#698f67;}.cls-8{fill:#5b7c59;}.cls-9{opacity:0.3;}.cls-10{fill:#e7be54;}.cls-11{fill:#fff;}.cls-12{fill:#ffbf9d;}.cls-13{fill:#ff9a6c;}</style></defs><g id="Слой_2" data-name="Слой 2"><g id="Background_Complete" data-name="Background Complete"><ellipse class="cls-1" cx="577.09" cy="59.21" rx="37.01" ry="31.41" transform="translate(494.87 633.48) rotate(-87.71)"/><path class="cls-2" d="M598.94,60.24c-.89,18.61-13.3,33.41-28.61,35.21a27.31,27.31,0,0,0,5,.73c17.33.89,32.17-15,33.15-35.36s-12.27-37.69-29.6-38.57a27.31,27.31,0,0,0-4.53.15C589.14,26,599.82,41.84,598.94,60.24Z"/><ellipse class="cls-1" cx="351.98" cy="404.4" rx="37" ry="17.95" transform="translate(-37.74 36.24) rotate(-5.59)"/><path class="cls-2" d="M352.28,416.92c-18.56,1.46-34-4-36.74-12.53a9.36,9.36,0,0,0-.42,2.91c.16,9.94,16.8,16.69,37.16,15.09s36.74-11,36.57-20.89a8.93,8.93,0,0,0-.43-2.57C385.75,407.73,370.64,415.48,352.28,416.92Z"/><ellipse class="cls-1" cx="73.3" cy="345.67" rx="24.45" ry="28.8" transform="translate(-204.87 127.77) rotate(-39.95)"/><path class="cls-2" d="M60.33,356.7c9.4,11,24.08,14.25,34.37,8.08A20.75,20.75,0,0,1,92,367.6c-10.25,8.79-26.92,6.09-37.23-6s-10.36-29.05-.11-37.83a21,21,0,0,1,2.87-2.07C50.08,330.94,51,345.78,60.33,356.7Z"/><ellipse class="cls-1" cx="43.62" cy="221.06" rx="18.78" ry="12.84" transform="translate(-178.06 261.43) rotate(-89.16)"/><path class="cls-2" d="M34.69,220.76c-.21,9.45,4.4,17.41,10.58,18.91a9.36,9.36,0,0,1-2.05.17c-7.09-.2-12.66-8.78-12.43-19.15s6.15-18.61,13.24-18.4a8.67,8.67,0,0,1,1.84.24C39.73,203.79,34.89,211.41,34.69,220.76Z"/><path class="cls-1" d="M645.91,305.28c-5.37,10.15-2.74,22.05,5.89,26.59s20,0,25.35-10.16,2.74-22-5.88-26.58S651.29,295.14,645.91,305.28Z"/><path class="cls-2" d="M672.39,319.26c4.9-9.25,3.14-19.95-3.74-25.21a14.77,14.77,0,0,1,2.62,1.08c8.62,4.53,11.26,16.44,5.88,26.58s-16.73,14.7-25.35,10.16a14.81,14.81,0,0,1-2.15-1.37C657.83,333,667.54,328.41,672.39,319.26Z"/><ellipse class="cls-1" cx="172.12" cy="50.74" rx="28.8" ry="24.45" transform="translate(67.27 196.36) rotate(-70.67)"/><path class="cls-2" d="M154.2,44.29c-4.69,13.72,0,28,10.6,33.68a21.49,21.49,0,0,1-3.81-.9C148.2,72.74,142,57,147.15,42s19.68-23.75,32.47-19.42A21.29,21.29,0,0,1,182.86,24C171.11,22.32,158.84,30.72,154.2,44.29Z"/><path class="cls-2" d="M505.81,49.42l4.21,2.5a.81.81,0,0,1-.08,1.42l-4.46,2.24a.78.78,0,0,0-.34.31l-2.61,4.25a.81.81,0,0,1-1.42,0L499,55.69a.82.82,0,0,0-.31-.33l-4.2-2.5a.81.81,0,0,1,.08-1.42L499,49.21a.85.85,0,0,0,.34-.31l2.6-4.26a.82.82,0,0,1,1.43,0l2.13,4.4A.8.8,0,0,0,505.81,49.42Z"/><path class="cls-2" d="M98.92,411.3l4.21,2.51a.81.81,0,0,1-.08,1.42l-4.46,2.23a.85.85,0,0,0-.34.31L95.64,422a.81.81,0,0,1-1.42,0l-2.13-4.4a.76.76,0,0,0-.31-.33l-4.2-2.51a.81.81,0,0,1,.08-1.42l4.46-2.23a.85.85,0,0,0,.34-.31l2.6-4.25a.81.81,0,0,1,1.42,0l2.14,4.4A.69.69,0,0,0,98.92,411.3Z"/><path class="cls-2" d="M470.06,408.34l4.21,2.5a.81.81,0,0,1-.08,1.42l-4.46,2.23a.85.85,0,0,0-.34.31l-2.61,4.26a.81.81,0,0,1-1.42-.05l-2.13-4.4a.76.76,0,0,0-.31-.33l-4.2-2.5a.81.81,0,0,1,.08-1.42l4.46-2.24a.78.78,0,0,0,.34-.31l2.6-4.25a.82.82,0,0,1,1.43,0l2.13,4.41A.86.86,0,0,0,470.06,408.34Z"/><path class="cls-2" d="M653.22,404.73l4.2,2.5a.81.81,0,0,1-.07,1.42l-4.47,2.23a.92.92,0,0,0-.34.31l-2.6,4.26a.81.81,0,0,1-1.42-.05l-2.14-4.4a.74.74,0,0,0-.3-.33l-4.2-2.5a.81.81,0,0,1,.07-1.42l4.46-2.23a.81.81,0,0,0,.34-.32l2.61-4.25a.81.81,0,0,1,1.42,0l2.13,4.41A.89.89,0,0,0,653.22,404.73Z"/><path class="cls-2" d="M204.51,97.87l4.2,2.5a.81.81,0,0,1-.07,1.42L204.17,104a.92.92,0,0,0-.34.31l-2.6,4.26a.81.81,0,0,1-1.42,0l-2.14-4.4a.74.74,0,0,0-.3-.33l-4.2-2.5a.81.81,0,0,1,.07-1.42l4.47-2.24a.82.82,0,0,0,.33-.31l2.61-4.25a.81.81,0,0,1,1.42,0l2.14,4.41A.79.79,0,0,0,204.51,97.87Z"/><path class="cls-2" d="M231.36,13.43l4.2,2.5a.81.81,0,0,1-.08,1.42L231,19.58a.85.85,0,0,0-.34.31l-2.6,4.26a.82.82,0,0,1-1.43,0l-2.13-4.4a.8.8,0,0,0-.3-.33L220,16.87a.81.81,0,0,1,.08-1.42l4.46-2.24a.78.78,0,0,0,.34-.31l2.61-4.25a.81.81,0,0,1,1.42,0l2.13,4.41A.82.82,0,0,0,231.36,13.43Z"/><path class="cls-2" d="M95.18,50.22l2.13,1.27a.41.41,0,0,1,0,.72L95,53.34a.44.44,0,0,0-.17.16l-1.32,2.16a.42.42,0,0,1-.73,0L91.71,53.4a.41.41,0,0,0-.15-.17L89.42,52a.41.41,0,0,1,0-.72l2.27-1.13A.44.44,0,0,0,91.9,50l1.32-2.16a.41.41,0,0,1,.72,0L95,50.05A.35.35,0,0,0,95.18,50.22Z"/><path class="cls-2" d="M333,37.9l2.13,1.27a.41.41,0,0,1,0,.72L332.82,41a.44.44,0,0,0-.17.16l-1.33,2.16a.41.41,0,0,1-.72,0l-1.08-2.24a.39.39,0,0,0-.15-.16l-2.14-1.27a.41.41,0,0,1,0-.72l2.27-1.14a.41.41,0,0,0,.17-.15L331,35.48a.41.41,0,0,1,.72,0l1.08,2.23A.44.44,0,0,0,333,37.9Z"/><path class="cls-2" d="M530.81,23.84,533,25.12a.41.41,0,0,1,0,.72L530.64,27a.37.37,0,0,0-.17.16l-1.32,2.15a.41.41,0,0,1-.72,0L527.35,27a.44.44,0,0,0-.16-.17l-2.13-1.27a.41.41,0,0,1,0-.72l2.26-1.13a.44.44,0,0,0,.17-.16l1.33-2.16a.41.41,0,0,1,.72,0l1.08,2.24A.33.33,0,0,0,530.81,23.84Z"/><path class="cls-2" d="M667.43,30.8l2.13,1.27a.41.41,0,0,1,0,.72l-2.26,1.13a.37.37,0,0,0-.17.16l-1.32,2.16a.42.42,0,0,1-.73,0L664,34a.41.41,0,0,0-.15-.17l-2.14-1.27a.41.41,0,0,1,0-.72L664,30.69a.44.44,0,0,0,.17-.16l1.32-2.16a.41.41,0,0,1,.72,0l1.09,2.24A.35.35,0,0,0,667.43,30.8Z"/><path class="cls-2" d="M423.23,429.73l2.51,1.46a.48.48,0,0,1,0,.84l-2.63,1.35a.49.49,0,0,0-.2.18l-1.52,2.54a.49.49,0,0,1-.85,0l-1.28-2.6a.47.47,0,0,0-.18-.19l-2.51-1.47a.48.48,0,0,1,0-.84l2.63-1.34a.52.52,0,0,0,.2-.19l1.52-2.53a.49.49,0,0,1,.85,0l1.28,2.59A.5.5,0,0,0,423.23,429.73Z"/><path class="cls-2" d="M684.73,248.46l2.51,1.46a.48.48,0,0,1,0,.84l-2.63,1.35a.44.44,0,0,0-.2.18l-1.52,2.54a.49.49,0,0,1-.85,0l-1.28-2.6a.52.52,0,0,0-.19-.2l-2.5-1.46a.48.48,0,0,1,0-.84l2.63-1.34a.61.61,0,0,0,.2-.19l1.52-2.53a.49.49,0,0,1,.85,0l1.28,2.59A.58.58,0,0,0,684.73,248.46Z"/><path class="cls-2" d="M39.35,270.71l2,1.2a.39.39,0,0,1,0,.68l-2.14,1.07a.39.39,0,0,0-.16.15l-1.25,2a.39.39,0,0,1-.68,0l-1-2.11a.46.46,0,0,0-.15-.16l-2-1.2a.39.39,0,0,1,0-.68l2.14-1.07a.39.39,0,0,0,.16-.15l1.25-2a.39.39,0,0,1,.68,0l1,2.11A.46.46,0,0,0,39.35,270.71Z"/><path class="cls-2" d="M252,419.42l2,1.2a.39.39,0,0,1,0,.68l-2.14,1.07a.33.33,0,0,0-.16.15l-1.25,2a.38.38,0,0,1-.68,0l-1-2.11a.43.43,0,0,0-.15-.15l-2-1.2a.39.39,0,0,1,0-.68l2.14-1.07a.46.46,0,0,0,.16-.15l1.25-2a.39.39,0,0,1,.68,0l1,2.11A.46.46,0,0,0,252,419.42Z"/><path class="cls-2" d="M635.38,370.5l2,1.2a.39.39,0,0,1,0,.68l-2.14,1.07a.29.29,0,0,0-.16.15l-1.25,2a.39.39,0,0,1-.68,0l-1-2.1a.32.32,0,0,0-.14-.16l-2-1.2a.39.39,0,0,1,0-.68l2.14-1.07a.46.46,0,0,0,.16-.15l1.25-2a.39.39,0,0,1,.68,0l1,2.11A.46.46,0,0,0,635.38,370.5Z"/><path class="cls-2" d="M592.84,418l2,1.19a.4.4,0,0,1,0,.69l-2.14,1.06a.46.46,0,0,0-.16.15l-1.25,2a.39.39,0,0,1-.68,0l-1-2.11a.46.46,0,0,0-.15-.16l-2-1.2a.39.39,0,0,1,0-.68l2.14-1.07a.33.33,0,0,0,.16-.15l1.25-2a.38.38,0,0,1,.68,0l1,2.11A.57.57,0,0,0,592.84,418Z"/><path class="cls-2" d="M635.85,112.06l2.18,1.3a.42.42,0,0,1,0,.74l-2.32,1.16a.37.37,0,0,0-.17.16l-1.36,2.21a.42.42,0,0,1-.73,0l-1.11-2.28a.37.37,0,0,0-.16-.17l-2.18-1.3a.42.42,0,0,1,0-.74l2.32-1.16a.37.37,0,0,0,.17-.16l1.35-2.21a.42.42,0,0,1,.74,0l1.11,2.28A.37.37,0,0,0,635.85,112.06Z"/></g><g id="Stars"><path class="cls-3" d="M566.06,150.11l1,.64a.2.2,0,0,1,0,.35l-1.06.51a.14.14,0,0,0-.08.07l-.6,1a.2.2,0,0,1-.35,0l-.55-1.09a.18.18,0,0,0-.08-.09l-1-.64a.2.2,0,0,1,0-.35l1.07-.51a.18.18,0,0,0,.08-.07l.6-1a.19.19,0,0,1,.34,0L566,150A.18.18,0,0,0,566.06,150.11Z"/><path class="cls-3" d="M566.88,301.27l1,.64a.2.2,0,0,1,0,.35l-1.07.51a.27.27,0,0,0-.08.07l-.59,1a.2.2,0,0,1-.35,0l-.55-1.09a.2.2,0,0,0-.08-.08l-1-.65a.19.19,0,0,1,0-.34l1.06-.51a.15.15,0,0,0,.08-.08l.6-1a.2.2,0,0,1,.35,0l.55,1.09Z"/><path class="cls-3" d="M608.41,232l2,1.2a.39.39,0,0,1,0,.68L608.25,235a.35.35,0,0,0-.17.15l-1.24,2a.39.39,0,0,1-.68,0l-1-2.11a.43.43,0,0,0-.14-.16l-2-1.19a.39.39,0,0,1,0-.68l2.14-1.07a.39.39,0,0,0,.16-.15l1.25-2a.39.39,0,0,1,.68,0l1,2.1A.33.33,0,0,0,608.41,232Z"/><path class="cls-3" d="M554.9,161.42l2,1.25a.39.39,0,0,1,0,.68l-2.07,1a.36.36,0,0,0-.16.14l-1.16,2a.39.39,0,0,1-.68-.05l-1.07-2.12a.39.39,0,0,0-.15-.16l-2-1.26a.38.38,0,0,1,0-.67l2.08-1a.34.34,0,0,0,.15-.14l1.17-2a.38.38,0,0,1,.67,0l1.08,2.12A.36.36,0,0,0,554.9,161.42Z"/><path class="cls-3" d="M79.82,220.24l1.53,1a.29.29,0,0,1,0,.51l-1.59.74a.29.29,0,0,0-.12.1l-.91,1.5a.29.29,0,0,1-.51,0l-.79-1.63a.34.34,0,0,0-.12-.12l-1.52-1a.29.29,0,0,1,0-.51l1.58-.73a.26.26,0,0,0,.12-.11l.91-1.5a.29.29,0,0,1,.51,0l.8,1.63A.32.32,0,0,0,79.82,220.24Z"/><path class="cls-3" d="M112.94,254.85l1.48.85a.27.27,0,0,1,0,.48l-1.46.76a.27.27,0,0,0-.11.1l-.78,1.45a.28.28,0,0,1-.49,0l-.82-1.5a.29.29,0,0,0-.11-.11l-1.47-.84a.28.28,0,0,1,0-.49l1.46-.76a.35.35,0,0,0,.11-.1l.78-1.45a.27.27,0,0,1,.48,0l.82,1.49Z"/><path class="cls-3" d="M157.24,140.21l1.48.84a.28.28,0,0,1,0,.48l-1.46.76a.23.23,0,0,0-.11.11l-.79,1.45a.27.27,0,0,1-.48,0l-.82-1.49a.2.2,0,0,0-.11-.11l-1.48-.85a.27.27,0,0,1,0-.48l1.46-.76a.22.22,0,0,0,.1-.11l.79-1.44a.27.27,0,0,1,.48,0l.82,1.49A.43.43,0,0,0,157.24,140.21Z"/><path class="cls-3" d="M272.18,115.91l1.48.84a.28.28,0,0,1,0,.49l-1.46.76a.22.22,0,0,0-.11.1l-.79,1.45a.27.27,0,0,1-.48,0L270,118a.29.29,0,0,0-.11-.11l-1.48-.85a.27.27,0,0,1,0-.48l1.46-.76a.35.35,0,0,0,.11-.1l.78-1.45a.27.27,0,0,1,.48,0l.82,1.5A.57.57,0,0,0,272.18,115.91Z"/><path class="cls-3" d="M102.14,260.42l2.93,1.68a.54.54,0,0,1,0,.95l-2.89,1.51a.56.56,0,0,0-.22.21l-1.56,2.87a.54.54,0,0,1-1,0l-1.63-3a.58.58,0,0,0-.22-.22l-2.94-1.68a.55.55,0,0,1,0-1l2.9-1.51a.47.47,0,0,0,.21-.21l1.56-2.87a.55.55,0,0,1,1,0l1.63,3A.61.61,0,0,0,102.14,260.42Z"/><path class="cls-3" d="M292.91,100.55l2.93,1.68a.55.55,0,0,1,0,1L293,104.7a.56.56,0,0,0-.22.21l-1.56,2.87a.54.54,0,0,1-.95,0l-1.63-3a.58.58,0,0,0-.22-.22l-2.94-1.68a.55.55,0,0,1,0-1l2.9-1.51a.53.53,0,0,0,.21-.21l1.56-2.87a.55.55,0,0,1,1,0l1.63,3A.58.58,0,0,0,292.91,100.55Z"/><path class="cls-3" d="M251,385.89l2.93,1.68a.55.55,0,0,1,0,1L251,390a.47.47,0,0,0-.21.21l-1.57,2.87a.54.54,0,0,1-.95,0l-1.63-3a.58.58,0,0,0-.22-.22l-2.93-1.68a.55.55,0,0,1,0-1l2.9-1.51a.56.56,0,0,0,.22-.21l1.56-2.87a.54.54,0,0,1,.95,0l1.63,3A.58.58,0,0,0,251,385.89Z"/><path class="cls-3" d="M524,333.76l2.93,1.68a.55.55,0,0,1,0,1L524,337.91a.56.56,0,0,0-.22.21L522.24,341a.54.54,0,0,1-1,0l-1.63-3a.58.58,0,0,0-.22-.22l-2.94-1.68a.55.55,0,0,1,0-1l2.9-1.51a.53.53,0,0,0,.21-.21l1.56-2.87a.55.55,0,0,1,1,0l1.63,3A.58.58,0,0,0,524,333.76Z"/><path class="cls-3" d="M483.62,116.59l1.91,1.09a.36.36,0,0,1,0,.63l-1.89,1a.32.32,0,0,0-.14.14l-1,1.87a.36.36,0,0,1-.63,0l-1.06-1.93a.4.4,0,0,0-.14-.15l-1.91-1.09a.35.35,0,0,1,0-.62l1.89-1a.29.29,0,0,0,.14-.13l1-1.87a.36.36,0,0,1,.63,0l1.06,1.93A.32.32,0,0,0,483.62,116.59Z"/></g><g id="Portals"><ellipse class="cls-4" cx="268.64" cy="59.49" rx="22.72" ry="11.58" transform="translate(-5.57 82.19) rotate(-17.22)"/><path class="cls-5" d="M265.83,51.92c10.87-3.52,21.35-2.39,24.78,2.4a6,6,0,0,0-.36-1.83c-2.19-6-13.64-7.76-25.58-3.89S244.84,60.47,247,66.49a6.48,6.48,0,0,0,.8,1.49C247.59,62.26,255.07,55.41,265.83,51.92Z"/><ellipse class="cls-4" cx="553.26" cy="377.85" rx="42.83" ry="27.51" transform="translate(-108.99 479.31) rotate(-43.04)"/><path class="cls-5" d="M566.45,391.75c-15.73,14.73-35.76,19.46-47.06,11.8a18.06,18.06,0,0,0,2.61,3.57c10.4,11.08,32.83,6.95,50.1-9.21s22.83-38.25,12.43-49.32a17.81,17.81,0,0,0-3-2.59C588.08,357.79,582,377.18,566.45,391.75Z"/><ellipse class="cls-4" cx="401.81" cy="103.13" rx="22.03" ry="57.53" transform="translate(238.63 484.53) rotate(-81.23)"/><path class="cls-5" d="M405.64,88.21c28.53,4.86,50,16.84,51.21,27.87a9.65,9.65,0,0,0,1.63-3.29c3.14-11.82-19.68-25.72-51-31.05s-59.22-.08-62.37,11.74a9,9,0,0,0-.23,3.18C352,87.2,377.42,83.4,405.64,88.21Z"/><path class="cls-5" d="M399.38,101.26c7.17,3.75,12,10.83,18.63,15.44,4.4,3.06,9.74,5.16,12.7,9.62-.29-2.61-2.08-4.77-3.86-6.7a98.24,98.24,0,0,0-16.77-14.43c-3.14-2.14-6.62-4.16-10.41-4.13"/><g class="cls-6"><path d="M399.38,101.26c7.17,3.75,12,10.83,18.63,15.44,4.4,3.06,9.74,5.16,12.7,9.62-.29-2.61-2.08-4.77-3.86-6.7a98.24,98.24,0,0,0-16.77-14.43c-3.14-2.14-6.62-4.16-10.41-4.13"/></g><path class="cls-5" d="M433.5,4.48a5.63,5.63,0,0,0-1.13-3.26C431.29,0,429.48-.08,427.88,0c-6.82.51-15.5,10.61-19.67,16l.7,30.09C427.59,36.38,435.1,18.93,433.5,4.48Z"/><g class="cls-6"><path d="M433.5,4.48a5.63,5.63,0,0,0-1.13-3.26C431.29,0,429.48-.08,427.88,0c-6.82.51-15.5,10.61-19.67,16l.7,30.09C427.59,36.38,435.1,18.93,433.5,4.48Z"/></g><path class="cls-5" d="M404,66.27a70.1,70.1,0,0,1,10.7-2.86c3.56-.58,7.13-2.06,10.64-2.89,4.54-1.07,8.78-3.12,13.14-4.79s9-3,13.65-2.48a24.48,24.48,0,0,0-11.17-2.35,73.4,73.4,0,0,0-11.44,1.21c-5.26.84-10.62,1.71-15.38,4.1S405,61,404,66.27"/><g class="cls-6"><path d="M404,66.27a70.1,70.1,0,0,1,10.7-2.86c3.56-.58,7.13-2.06,10.64-2.89,4.54-1.07,8.78-3.12,13.14-4.79s9-3,13.65-2.48a24.48,24.48,0,0,0-11.17-2.35,73.4,73.4,0,0,0-11.44,1.21c-5.26.84-10.62,1.71-15.38,4.1S405,61,404,66.27"/></g><path class="cls-5" d="M379.73,67.3c-4.61-6.77-13.85-8.74-21.8-10.71a194.73,194.73,0,0,1,29.65,32C389.42,83,385.57,75.84,379.73,67.3Z"/><g class="cls-6"><path d="M379.73,67.3c-4.61-6.77-13.85-8.74-21.8-10.71a194.73,194.73,0,0,1,29.65,32C389.42,83,385.57,75.84,379.73,67.3Z"/></g><path class="cls-5" d="M385.69,109.29c-9.51-2.75-17.35-13.61-26.73-16.68,10.82-.51,24.35,6,26.73,16.68"/><g class="cls-6"><path d="M385.69,109.29c-9.51-2.75-17.35-13.61-26.73-16.68,10.82-.51,24.35,6,26.73,16.68"/></g><path class="cls-5" d="M395.16,87.34a32.12,32.12,0,0,1,15.54,3.11,95.21,95.21,0,0,1,13.81,8.1c.41-3.45-1.6-6.67-3.52-9.56a41.68,41.68,0,0,0-4.74-6.22,13.79,13.79,0,0,0-6.62-4,11.82,11.82,0,0,0-9,1.84,13.68,13.68,0,0,0-5.46,6.71"/><path class="cls-5" d="M386.41,122.38s4.72-32.25,9.95-50,10.3-38,10.3-38l2.06.56s-11,35.12-15.34,57-2.87,31.6-2.87,31.6l-4.1-1.06"/><path class="cls-5" d="M431.58,2.22a2.37,2.37,0,0,1-.22.33c-.18.24-.4.54-.68.9-.6.78-1.45,1.92-2.49,3.33-2.08,2.84-4.83,6.84-7.57,11.44s-4.93,8.94-6.42,12.12c-.75,1.59-1.34,2.88-1.74,3.78-.19.42-.34.76-.47,1a2.46,2.46,0,0,1-.18.35,1.59,1.59,0,0,1,.12-.38c.1-.28.24-.63.41-1.06.35-.91.91-2.22,1.63-3.83a123.25,123.25,0,0,1,14-23.6c1.06-1.4,1.95-2.51,2.58-3.26l.74-.87C431.48,2.31,431.57,2.21,431.58,2.22Z"/><path class="cls-5" d="M403.2,50.7a26.15,26.15,0,0,1-5.34-25c1.79-6.16,5.69-11.46,9.75-16.42a2.51,2.51,0,0,1,1.3-1,2.32,2.32,0,0,1,2,1c4.44,5,5.72,12.17,5.4,18.88a32.44,32.44,0,0,1-3,12.95,22,22,0,0,1-10,9.58"/><path class="cls-4" d="M403.2,50.7a2.54,2.54,0,0,1,.1-.37l.34-1.06c.31-.91.73-2.24,1.21-3.88a113.07,113.07,0,0,0,2.93-13.09c.83-5.18,1.32-9.91,1.65-13.33.16-1.68.3-3,.39-4.06.05-.45.09-.81.12-1.1a2,2,0,0,1,.06-.38s0,.13,0,.38,0,.66-.05,1.11c0,1-.14,2.35-.28,4.07-.27,3.43-.71,8.17-1.56,13.36a97.57,97.57,0,0,1-3,13.11c-.52,1.64-1,3-1.32,3.86-.16.42-.3.76-.4,1S403.22,50.71,403.2,50.7Z"/><g class="cls-6"><path d="M395.16,87.34a32.12,32.12,0,0,1,15.54,3.11,95.21,95.21,0,0,1,13.81,8.1c.41-3.45-1.6-6.67-3.52-9.56a41.68,41.68,0,0,0-4.74-6.22,13.79,13.79,0,0,0-6.62-4,11.82,11.82,0,0,0-9,1.84,13.68,13.68,0,0,0-5.46,6.71"/></g><path class="cls-5" d="M418.48,113.6s-.11-.06-.27-.21l-.72-.66c-.61-.57-1.49-1.42-2.61-2.43-.55-.51-1.17-1.06-1.85-1.64s-1.39-1.18-2.17-1.81a37.5,37.5,0,0,0-5.32-3.64,13.1,13.1,0,0,0-6.08-1.82,18.4,18.4,0,0,0-2.81.07,13.91,13.91,0,0,0-5.61,2c-.71.44-1.08.73-1.1.7s.08-.09.25-.23a7.27,7.27,0,0,1,.78-.59,12.61,12.61,0,0,1,3.22-1.58,13.25,13.25,0,0,1,2.42-.56,19,19,0,0,1,2.86-.11,13.17,13.17,0,0,1,6.24,1.84,36.48,36.48,0,0,1,5.36,3.7c.77.63,1.5,1.24,2.16,1.84s1.27,1.15,1.82,1.68c1.1,1,1.95,1.91,2.54,2.52l.67.7Z"/><path class="cls-5" d="M379.85,102.62a2.06,2.06,0,0,1,.55.34,13,13,0,0,1,1.37,1.1,19.46,19.46,0,0,1,5.9,9.83,14.17,14.17,0,0,1,.32,1.73,2,2,0,0,1,0,.64c-.06,0-.2-.89-.6-2.3a21.68,21.68,0,0,0-5.83-9.72C380.55,103.22,379.81,102.67,379.85,102.62Z"/><path class="cls-5" d="M367.32,64.12a2.1,2.1,0,0,1,.37.23l1,.72,1.62,1.16c.64.45,1.3,1,2.06,1.66a57.16,57.16,0,0,1,10.28,11.3,62.67,62.67,0,0,1,4.24,7.28,65.49,65.49,0,0,1,2.7,6.33c.67,1.84,1.15,3.35,1.47,4.4.16.49.28.89.38,1.2a2.56,2.56,0,0,1,.11.42,2,2,0,0,1-.18-.4c-.1-.27-.26-.66-.44-1.18-.36-1-.87-2.53-1.57-4.35s-1.62-4-2.76-6.27a64.31,64.31,0,0,0-4.24-7.23,60.25,60.25,0,0,0-10.15-11.31c-.75-.63-1.4-1.23-2-1.7l-1.58-1.2-1-.77A2,2,0,0,1,367.32,64.12Z"/><path class="cls-5" d="M410.94,85.87a3.6,3.6,0,0,1-.73-.31l-.84-.4c-.32-.16-.72-.27-1.14-.43a12.45,12.45,0,0,0-6.91-.49,12.29,12.29,0,0,0-3.59,1.41,13.88,13.88,0,0,0-2.57,1.85,19.12,19.12,0,0,0-2,2.15,2.75,2.75,0,0,1,.4-.7A11.35,11.35,0,0,1,395,87.31a13.54,13.54,0,0,1,2.58-2,12.07,12.07,0,0,1,10.75-.86c.42.18.82.3,1.14.48l.81.46A2.6,2.6,0,0,1,410.94,85.87Z"/><path class="cls-5" d="M429.94,54.53l-.42.12-1.23.29c-1.06.25-2.59.62-4.47,1.14s-4.1,1.2-6.51,2.09a47.84,47.84,0,0,0-7.58,3.5,16.32,16.32,0,0,0-3.42,2.58c-.95,1-1.86,2-2.71,3a63.77,63.77,0,0,0-4.3,5.32,36.79,36.79,0,0,0-2.44,3.9c-.53,1-.77,1.51-.8,1.49a2.07,2.07,0,0,1,.15-.41c.11-.27.28-.66.52-1.15a34.2,34.2,0,0,1,2.37-4A61.88,61.88,0,0,1,403.35,67c.85-1,1.76-2,2.71-3a16.85,16.85,0,0,1,3.49-2.66,46.17,46.17,0,0,1,7.65-3.49c2.43-.89,4.67-1.54,6.55-2s3.44-.82,4.51-1l1.24-.23A1.34,1.34,0,0,1,429.94,54.53Z"/><path class="cls-5" d="M394.88,82.38a3.24,3.24,0,0,1,0-.86c0-.62,0-1.4,0-2.32a64.32,64.32,0,0,0-.37-7.65A62.93,62.93,0,0,0,393.15,64c-.21-.9-.38-1.66-.52-2.27a4.73,4.73,0,0,1-.16-.84,3.2,3.2,0,0,1,.29.81c.16.52.38,1.29.63,2.24a50.68,50.68,0,0,1,1.47,7.56,52.31,52.31,0,0,1,.27,7.69c0,1-.09,1.78-.14,2.33A4.62,4.62,0,0,1,394.88,82.38Z"/><path class="cls-5" d="M398.63,60.17a26.84,26.84,0,0,0-1-11.11,35.26,35.26,0,0,0-19.9-22.2q7.59,18.36,15.16,36.71l1.64,6.34A17,17,0,0,0,398.63,60.17Z"/><g class="cls-6"><path d="M398.63,60.17a26.84,26.84,0,0,0-1-11.11,35.26,35.26,0,0,0-19.9-22.2q7.59,18.36,15.16,36.71l1.64,6.34A17,17,0,0,0,398.63,60.17Z"/></g><ellipse class="cls-4" cx="178.05" cy="376.81" rx="29.02" ry="45.18" transform="translate(-214.1 235.73) rotate(-44.92)"/><path class="cls-5" d="M163.85,391.2c-16.08-16.08-21.76-37-14.07-49.21a18.74,18.74,0,0,0-3.67,2.87c-11.32,11.35-6.19,34.86,11.45,52.5s41.11,22.75,52.42,11.4a18.65,18.65,0,0,0,2.62-3.29C200.4,412.82,179.76,407.11,163.85,391.2Z"/><path class="cls-5" d="M181.84,369.52l14.24-15.17,1.7,1.69s-12.05,14-12.25,17.34Z"/><polygon class="cls-7" points="158.62 360.78 139.11 389.91 168.67 419.48 198.05 397.06 158.62 360.78"/><path class="cls-8" d="M168.86,419.31c-2.67,2.62-11.38-1.93-19.46-10.17s-12.45-17-9.78-19.66,11.38,1.94,19.46,10.18S171.54,416.7,168.86,419.31Z"/><g class="cls-9"><path class="cls-7" d="M168.86,419.31c-2.67,2.62-11.38-1.93-19.46-10.17s-12.45-17-9.78-19.66,11.38,1.94,19.46,10.18S171.54,416.7,168.86,419.31Z"/></g><path class="cls-7" d="M198.93,399.29c-2.44,2.22-14.79.33-28.27-12.07s-21.11-21.73-14.24-29c5.65-6,16.93-1.43,30.41,11S207,392,198.93,399.29Z"/><path class="cls-4" d="M168.67,419.48l.47-.42,1.42-1.15,5.41-4.29,19.19-15.09,0,0a3.21,3.21,0,0,0,.42-2.74,12.92,12.92,0,0,0-1-2.95,35.43,35.43,0,0,0-3.43-5.64,83.73,83.73,0,0,0-21.65-20,37.89,37.89,0,0,0-6.36-3.2,14.92,14.92,0,0,0-3.24-.85,3.45,3.45,0,0,0-2.9.64l0,0L144.1,382.76l-3.66,5.3-1,1.39a3.58,3.58,0,0,1-.36.46,3,3,0,0,1,.3-.5l.92-1.43,3.54-5.37,12.73-19v0h0a2.71,2.71,0,0,1,1.56-.78,5.83,5.83,0,0,1,1.72,0,14.31,14.31,0,0,1,3.36.86,38,38,0,0,1,6.45,3.22A77.23,77.23,0,0,1,182,376.31a76.4,76.4,0,0,1,9.54,10.61,35.29,35.29,0,0,1,3.48,5.74,13.56,13.56,0,0,1,1,3.07,3.65,3.65,0,0,1-.55,3.14h0l-19.31,14.94-5.49,4.2-1.46,1.09A3.22,3.22,0,0,1,168.67,419.48Z"/></g><g id="Texts"><path class="cls-10" d="M259.31,358.08v4.84h-17.8V340.75H258.9v4.85H247.72v3.73h9.85V354h-9.85v4.06Z"/><path class="cls-10" d="M272.49,357h-3.43v5.89h-6.27V340.75h10.14c6.05,0,9.85,3.14,9.85,8.2a7.37,7.37,0,0,1-4.34,7l4.78,7h-6.71Zm.06-11.34h-3.49v6.5h3.49c2.6,0,3.89-1.21,3.89-3.24S275.15,345.69,272.55,345.69Z"/><path class="cls-10" d="M295.92,357H292.5v5.89h-6.27V340.75h10.14c6.05,0,9.85,3.14,9.85,8.2a7.37,7.37,0,0,1-4.34,7l4.78,7H300Zm.07-11.34H292.5v6.5H296c2.6,0,3.89-1.21,3.89-3.24S298.59,345.69,296,345.69Z"/><path class="cls-10" d="M308.53,351.84c0-6.66,5.23-11.53,12.32-11.53s12.32,4.87,12.32,11.53-5.22,11.53-12.32,11.53S308.53,358.49,308.53,351.84Zm18.31,0c0-3.84-2.63-6.34-6-6.34s-6,2.5-6,6.34,2.62,6.33,6,6.33S326.84,355.67,326.84,351.84Z"/><path class="cls-10" d="M346.16,357h-3.42v5.89h-6.27V340.75H346.6c6,0,9.86,3.14,9.86,8.2a7.38,7.38,0,0,1-4.34,7l4.78,7h-6.72Zm.06-11.34h-3.48v6.5h3.48c2.6,0,3.9-1.21,3.9-3.24S348.82,345.69,346.22,345.69Z"/><path class="cls-10" d="M398.33,349c0,5-3.8,8.18-9.85,8.18h-3.87v5.79h-6.27V340.75h10.14C394.53,340.75,398.33,343.89,398.33,349ZM392,349c0-2.05-1.29-3.26-3.89-3.26h-3.49v6.5h3.49C390.7,352.19,392,351,392,349Z"/><path class="cls-10" d="M415.12,358.62h-9.38l-1.74,4.3h-6.4l9.79-22.17h6.17l9.82,22.17h-6.52ZM413.28,354l-2.85-7.09L407.58,354Z"/><path class="cls-10" d="M439.7,351.36h5.54v9.19a16.52,16.52,0,0,1-9.31,2.82c-7.07,0-12.23-4.79-12.23-11.53s5.16-11.53,12.35-11.53c4.15,0,7.51,1.42,9.7,4.05l-4,3.61a6.92,6.92,0,0,0-5.39-2.47,6.34,6.34,0,0,0-.06,12.67,7.94,7.94,0,0,0,3.39-.73Z"/><path class="cls-10" d="M467,358.08v4.84h-17.8V340.75h17.39v4.85H455.44v3.73h9.85V354h-9.85v4.06Z"/><path class="cls-7" d="M258.24,289.59H204.51V263.28L255.69,138.8h30.7V263.28H299.7v26.31H286.39V323H258.24Zm0-26.31V191.43h-.51L230.1,263.28Z"/><g class="cls-9"><path d="M258.24,289.59H204.51V263.28L255.69,138.8h30.7V263.28H299.7v26.31H286.39V323H258.24Zm0-26.31V191.43h-.51L230.1,263.28Z"/></g><path class="cls-7" d="M245.43,289.59H191.7V263.28L242.87,138.8h30.71V263.28h13.3v26.31h-13.3V323H245.43Zm0-26.31V191.43h-.51l-27.64,71.85Z"/><path class="cls-7" d="M322.19,313.54q-11-12.1-11-34.21V182.48q0-22.09,11-34.21t31.73-12.1q20.73,0,31.73,12.1t11,34.21v96.85q0,22.11-11,34.21t-31.73,12.11Q333.19,325.65,322.19,313.54Zm46.31-32.37V180.64q0-18.15-14.58-18.16t-14.59,18.16V281.17q0,18.16,14.59,18.16T368.5,281.17Z"/><g class="cls-9"><path d="M385.65,148.27q-11-12.11-31.73-12.1t-31.73,12.1q-11,12.1-11,34.21v96.85q0,22.11,11,34.21t31.73,12.11q20.73,0,31.73-12.11t11-34.21V182.48Q396.65,160.39,385.65,148.27ZM368.5,281.17q0,18.16-14.58,18.16c-9.72,0-14.59-7.6-14.59-18.16V180.64c0-11,4.87-18.16,14.59-18.16s14.58,6.06,14.58,18.16Z"/></g><path class="cls-7" d="M309.38,313.54q-11-12.1-11-34.21V182.48q0-22.11,11-34.21t31.72-12.11q20.73,0,31.73,12.11t11,34.21v96.85q0,22.11-11,34.21T341.1,325.65Q320.39,325.65,309.38,313.54Zm46.31-32.37V180.64q0-18.16-14.59-18.16t-14.58,18.16V281.17q0,18.16,14.58,18.16T355.69,281.17Z"/><path class="cls-7" d="M459.5,289.59H405.76V263.28L456.94,138.8h30.71V263.28H501v26.31h-13.3V323H459.5Zm0-26.31V191.43H459l-27.64,71.85Z"/><g class="cls-9"><path d="M459.5,289.59H405.76V263.28L456.94,138.8h30.71V263.28H501v26.31h-13.3V323H459.5Zm0-26.31V191.43H459l-27.64,71.85Z"/></g><path class="cls-7" d="M446.69,289.59H393V263.28L444.13,138.8h30.7V263.28h13.31v26.31H474.83V323H446.69Zm0-26.31V191.43h-.52l-27.63,71.85Z"/></g><g id="Character"><ellipse class="cls-4" cx="533.89" cy="218.65" rx="24.39" ry="76.42" transform="translate(-32.7 109.9) rotate(-11.41)"/><path class="cls-5" d="M550.58,215.47c-7.61-37.71-22.8-67.11-35.43-70a8.67,8.67,0,0,1,3.63-1.72c13.2-2.67,30.67,28.71,39,70.08s4.41,77.07-8.8,79.74a8.59,8.59,0,0,1-3.6-.08C555.64,285.45,558.1,252.77,550.58,215.47Z"/><path class="cls-4" d="M682.53,144.16l14.14-20.64s25.74,7.44,28.72,3.88l-39-28.87L663,129.8Z"/><path class="cls-2" d="M683.35,116.28a2,2,0,0,1,.24-2.63,1.9,1.9,0,0,1,2.61.21,2.08,2.08,0,0,1-.27,2.79,2,2,0,0,1-2.69-.52"/><path class="cls-5" d="M686.35,98.53l-2.23,3.25,38.27,26.46s2.3.53,3-.84Z"/><path class="cls-11" d="M697.16,124.18c.13-.19-.76-1-1.24-2.29s-.39-2.48-.62-2.53-.77,1.25-.15,2.83S697.07,124.39,697.16,124.18Z"/><path class="cls-11" d="M702.51,125.52c.18-.16-.41-1.09-.46-2.38s.39-2.27.19-2.41-1.11.86-1,2.46S702.37,125.69,702.51,125.52Z"/><path class="cls-11" d="M708.46,122.33c-.15-.17-1.12.59-1.4,2s.3,2.48.5,2.38.06-1.07.31-2.22S708.63,122.49,708.46,122.33Z"/><path class="cls-11" d="M693.41,128.53c.05-.23-1-.62-2-1.49s-1.61-1.83-1.83-1.74.08,1.37,1.3,2.38S693.4,128.75,693.41,128.53Z"/><path class="cls-4" d="M669,228.08l14.27-20.56s25.69,7.59,28.7,4l-38.88-29.1L649.51,213.6Z"/><path class="cls-2" d="M670,200.2a2,2,0,0,1,.25-2.63,1.92,1.92,0,0,1,2.62.23,2.1,2.1,0,0,1-.29,2.79,2,2,0,0,1-2.69-.54"/><path class="cls-5" d="M673.05,182.47l-2.25,3.24,38.12,26.68s2.29.55,3-.82Z"/><path class="cls-11" d="M683.71,208.19c.14-.2-.75-1-1.23-2.3s-.37-2.48-.6-2.54-.77,1.25-.17,2.83S683.62,208.39,683.71,208.19Z"/><path class="cls-11" d="M689.05,209.55c.18-.15-.4-1.09-.44-2.37s.4-2.28.21-2.41-1.12.85-1,2.45S688.91,209.73,689.05,209.55Z"/><path class="cls-11" d="M695,206.4c-.14-.16-1.12.59-1.41,2s.29,2.48.49,2.38.06-1.06.32-2.21S695.19,206.56,695,206.4Z"/><path class="cls-11" d="M679.94,212.51c0-.23-1-.62-2-1.5s-1.6-1.84-1.82-1.75.08,1.37,1.29,2.38S679.92,212.73,679.94,212.51Z"/><path class="cls-4" d="M521.69,243c1.33,0,119.91-34.16,128.16-41.58s41.93-66.18,41.93-66.18l-23.92-19.51L626.27,169.9l-73,6.59s-30.78-2.1-36.14,8.91l-.51,16.47Z"/><path class="cls-4" d="M521.69,243c1.76.05,54.73,59,71.32,62.34s24.94-8.09,30.61-14.95c7.22-8.74,56.38-71.48,56.38-71.48L655.34,198.5,601.27,256l-32.51-44.77-28.34-2.66-17.24,15.26Z"/><path class="cls-5" d="M596.46,261.53a1,1,0,0,1,.18-.24l.59-.68,2.3-2.57,8.53-9.37,12.7-13.86,7.52-8.16,8.19-8.65,18.69-19.67.16-.16.17.14,17.78,14.83,5,4.22,1.31,1.13a4.07,4.07,0,0,1,.43.4,2.85,2.85,0,0,1-.48-.34l-1.36-1.07-5.07-4.12-17.91-14.68.33,0-18.64,19.71-8.2,8.64-7.55,8.14-12.78,13.78-8.66,9.26-2.37,2.5-.63.64A1.29,1.29,0,0,1,596.46,261.53Z"/><path class="cls-5" d="M595.78,221.06a9.05,9.05,0,0,1-1.54.55L590,222.94c-3.58,1.11-8.54,2.6-14,4.36l-4,1.33a30.92,30.92,0,0,0-3.61,1.34,9.23,9.23,0,0,0-4.47,4.46,17.78,17.78,0,0,0-1.27,4.19,11.27,11.27,0,0,1-.31,1.6,1.14,1.14,0,0,1,0-.42c0-.28.05-.69.11-1.21a16,16,0,0,1,1.13-4.32,9.52,9.52,0,0,1,4.6-4.73,29.27,29.27,0,0,1,3.66-1.4l4-1.33c5.44-1.77,10.42-3.2,14-4.22,1.81-.51,3.27-.91,4.29-1.17A11,11,0,0,1,595.78,221.06Z"/><path class="cls-5" d="M505.72,192.26a2.65,2.65,0,0,1,.25-.47c.09-.17.2-.35.33-.56l.53-.7a19.23,19.23,0,0,1,4.15-3.78c3.89-2.75,10-5.36,16.95-7.28a94.3,94.3,0,0,1,18.2-3.19,45.36,45.36,0,0,1,5.61-.07c.66,0,1.17.08,1.51.13a2.1,2.1,0,0,1,.53.1c0,.05-.73,0-2,0s-3.23,0-5.57.24A103.63,103.63,0,0,0,528.07,180c-6.92,1.91-13,4.45-16.88,7.09a21,21,0,0,0-4.21,3.59c-.2.25-.39.47-.56.67l-.37.53C505.85,192.13,505.74,192.27,505.72,192.26Z"/><path class="cls-5" d="M554.81,275.85a2.62,2.62,0,0,1-.41-.28l-1.12-.86-4.09-3.22c-3.46-2.72-8.36-6.28-13.82-10.19A155.9,155.9,0,0,1,522,250.55c-1.62-1.48-2.92-2.7-3.79-3.57l-1-1c-.22-.24-.33-.36-.32-.38a2,2,0,0,1,.4.3l1.06.93c.92.83,2.25,2,3.9,3.45,3.32,2.88,8,6.68,13.49,10.59s10.34,7.54,13.74,10.33c1.7,1.39,3.07,2.53,4,3.35l1.06.94C554.7,275.71,554.82,275.83,554.81,275.85Z"/><ellipse class="cls-4" cx="164.35" cy="225.39" rx="80.4" ry="25.66" transform="translate(-104.35 300.3) rotate(-69.48)"/><path class="cls-5" d="M147.55,219.3c14.18-37.9,34.86-65.92,48.46-66.82a9.06,9.06,0,0,0-3.48-2.39c-13.27-5-36.65,24.71-52.21,66.3s-17.43,79.33-4.16,84.3a8.9,8.9,0,0,0,3.76.51C130.62,291.16,133.51,256.8,147.55,219.3Z"/><path class="cls-12" d="M8.6,125.7s-3.54-9-5.07-12.3-1.2-13.24-.18-15.06a3.07,3.07,0,0,0,.08-3.18S-1.79,85.43.65,83l1.42-.16S7.3,93.31,7.48,93.51,8.8,93.78,9.16,92s-.52-7.22-.52-7.22-2-3.44-2.12-5.8A3.86,3.86,0,0,1,8,76.26l.71-.54s4.39,7.94,4.64,9.88,1,6.15,1,6.15l.61-.49,0-9.74s-2.2-8.24-.53-10,1.83-.29,1.83-.29,3.14,8.41,3.37,10.54c.1.87.19,9.23.19,9.23l1.35-.55.47-7.83s-1.58-7.75.79-8.55L24.39,74s1.8,10.22,2,10.69S25,96.79,25,96.79l.48,1.11L26.86,96a6.88,6.88,0,0,1,3.33-3.28c2.73-1.5,3.92-.41,3.92-.41l-3.42,6.08s-3.12,7.11-4.39,8.74A46.28,46.28,0,0,1,20,113c-.68.37.09,3.53.09,3.53l1.07,2.2Z"/><path class="cls-13" d="M22.29,101.9c0,.1-1.1.08-2.8.49a13.39,13.39,0,0,0-5.91,3.13A13.52,13.52,0,0,0,10,111.16c-.54,1.66-.6,2.76-.7,2.75a6.77,6.77,0,0,1,.3-2.87,12.64,12.64,0,0,1,3.59-6c2.81-2.24,5.11-3.1,6.23-3.1A6.65,6.65,0,0,1,22.29,101.9Z"/><path class="cls-13" d="M22.76,90.74c0,.2-4.11-.47-8.94.8s-8.13,3.77-8.23,3.59a8.49,8.49,0,0,1,2.12-1.64,21.69,21.69,0,0,1,12.4-3.17A8.21,8.21,0,0,1,22.76,90.74Z"/><path class="cls-12" d="M8.6,125.7c.34.82,17.56,52.94,25,58.54s56.62,20,56.62,20L98,178.08,49.85,163,20,113Z"/><polygon class="cls-7" points="101.13 170.89 63.99 164.55 56.05 196.85 99.02 206.68 101.13 170.89"/><path class="cls-12" d="M124.46,173.46l-2.18-57c-.08-14.19-8.41-26-22.59-25.49l-1.31.12a25.36,25.36,0,0,0-23,25.54c.14,12.3.45,25.89,1.13,32.43,1.42,13.54,15.17,14.4,15.17,14.4s4.22,16.86,4.22,16.86l4.8,1.59h0Z"/><path class="cls-13" d="M91.63,163.48a32.86,32.86,0,0,0,17.18-6.84s-2.5,10.91-16.14,10.94Z"/><path class="cls-4" d="M82.17,127.68a2,2,0,0,0,2,1.78,1.85,1.85,0,0,0,1.83-1.93,1.94,1.94,0,0,0-2-1.78A1.85,1.85,0,0,0,82.17,127.68Z"/><path class="cls-4" d="M78.76,122.37c.27.23,1.63-1,3.72-1.17s3.71.71,3.91.43c.1-.12-.19-.55-.9-1a5.39,5.39,0,0,0-3.16-.66,5.18,5.18,0,0,0-2.92,1.25C78.81,121.79,78.63,122.27,78.76,122.37Z"/><path class="cls-4" d="M98.64,127.31c.26.23,1.63-1,3.72-1.18s3.7.72,3.91.44c.1-.12-.19-.56-.9-1a5.32,5.32,0,0,0-3.16-.66,5.08,5.08,0,0,0-2.93,1.25C98.69,126.73,98.51,127.2,98.64,127.31Z"/><path class="cls-4" d="M93.23,137.67a14.46,14.46,0,0,0-3.44-.29c-.54,0-1.05-.07-1.17-.42a2.73,2.73,0,0,1,.21-1.61q.57-2,1.2-4.2c1.65-6,2.8-10.86,2.56-10.92s-1.78,4.72-3.43,10.69c-.4,1.47-.78,2.87-1.14,4.21a3.12,3.12,0,0,0-.08,2.12,1.35,1.35,0,0,0,1,.69,3.69,3.69,0,0,0,.91.05A13.26,13.26,0,0,0,93.23,137.67Z"/><path class="cls-4" d="M96.9,121.82c.33.51,2.3-.24,4.76-.52s4.54-.09,4.74-.66c.08-.27-.38-.71-1.28-1.06a8.28,8.28,0,0,0-7.24.9C97.09,121,96.75,121.58,96.9,121.82Z"/><path class="cls-4" d="M78.27,117.08c.47.44,2.13-.18,4.17-.36s3.8,0,4.16-.5c.15-.25-.16-.71-.95-1.1a6.52,6.52,0,0,0-3.45-.51,6.44,6.44,0,0,0-3.26,1.21C78.26,116.36,78.06,116.87,78.27,117.08Z"/><path class="cls-12" d="M122.09,126.63c.22-.13,9.07-3.62,9.62,5.68s-8.89,7.94-8.92,7.67S122.09,126.63,122.09,126.63Z"/><path class="cls-13" d="M125.42,136.29s.17.1.45.21a1.59,1.59,0,0,0,1.21,0c1-.42,1.69-2,1.64-3.71a5.38,5.38,0,0,0-.59-2.29,1.88,1.88,0,0,0-1.3-1.17.82.82,0,0,0-.93.5c-.11.27,0,.45-.08.47s-.21-.15-.16-.54a1,1,0,0,1,.33-.6,1.23,1.23,0,0,1,.88-.29,2.29,2.29,0,0,1,1.78,1.34,5.55,5.55,0,0,1,.72,2.56c0,1.87-.8,3.69-2.13,4.15a1.73,1.73,0,0,1-1.49-.15C125.45,136.51,125.39,136.31,125.42,136.29Z"/><path class="cls-4" d="M99.86,138.64c-.33,0-.23,2.13-2,3.73s-4,1.47-4.05,1.77c0,.14.53.39,1.49.37a5.32,5.32,0,0,0,3.39-1.35,4.63,4.63,0,0,0,1.52-3.13C100.26,139.14,100,138.62,99.86,138.64Z"/><path class="cls-4" d="M55.94,105.36a2.18,2.18,0,0,1,1-1.35,6.73,6.73,0,0,1,3.45-.78,19.74,19.74,0,0,0,8.37-2.66A9.69,9.69,0,0,1,66.1,99a5.85,5.85,0,0,1-2-5.7,1.3,1.3,0,0,1,.68-.94c.59-.22,1.15.34,1.6.78a5,5,0,0,0,4.86,1.71,8.17,8.17,0,0,0,3.47-1.26l.1-.14,1.34-1.52h0c3.28-3.69,6.14-6.28,9.16-7.71,4.42-2.11,12-3.32,16.78-2.37s9.29,4.52,10.25,9.33c2.52-2.41,6.5-2.64,9.82-1.54l.07,0c3.68,1.06,6,4.74,7.25,8.34.07.2.14.4.2.6a14.34,14.34,0,0,0,5.14,4.43c.36.18.78.41.84.8a1.16,1.16,0,0,1-.56,1,7.14,7.14,0,0,1-2.83,1.39,15.92,15.92,0,0,0,1.35,2.46c.45.66,1,1.45.67,2.19a1.53,1.53,0,0,1-1.55.79,4.35,4.35,0,0,1-1.72-.65l1.38,2.81a8.69,8.69,0,0,1-3.93,0c-.55,3.48-.73,9.87-1.47,12.25-2.47.2-3.08,0-4.3.46-1.58.63-.79,3.44-2.93,2.76-1.1-.34-3-4.28-3.41-5.35a53.2,53.2,0,0,1-3.69-22.32,17.06,17.06,0,0,0-5.5-3.48l.17.13c-3.88-1.08-8.26-2.11-11.76-.11-2.71,1.56-4.18,4.57-6.12,7-3.7,4.64-8,7.26-13.93,7.88-.28,4.14,0,10.86,0,14.7l-3.74-7.46v0c-.29-.44-.54-.88-.78-1.32l-.08-.13v0c-.38-.7-.75-1.41-1.21-2.11l0,0a2.4,2.4,0,0,1-3.69-3A5.28,5.28,0,0,1,67,112.45a3.8,3.8,0,0,1-3.55,1.16,3,3,0,0,1-2.28-2.81,2.53,2.53,0,0,1,1.38-2.12,8.61,8.61,0,0,1-4.92-.77C56.68,107.42,55.69,106.58,55.94,105.36Z"/><path class="cls-5" d="M108.12,93a11.11,11.11,0,0,1,1.44,1.16,9.79,9.79,0,0,1,2.37,4.39,17.19,17.19,0,0,1,.56,3.43c.08,1.26.06,2.6.06,4a34.24,34.24,0,0,0,.17,4.47,16.34,16.34,0,0,0,.45,2.34,5,5,0,0,0,1.1,2.22,2.07,2.07,0,0,0,2,.53,3,3,0,0,0,1.67-1.09,7.09,7.09,0,0,0,1.1-3.54l-.29.06a11.43,11.43,0,0,0,1.84,2.74,4,4,0,0,0,2.73,1.28,2.65,2.65,0,0,0,1.39-.33,2.25,2.25,0,0,0,.89-1,2.39,2.39,0,0,0,.22-1.22,1.68,1.68,0,0,0-.5-1l-.14.13a8.82,8.82,0,0,0,3.06,2,7.38,7.38,0,0,0,.93.29,1.27,1.27,0,0,0,.33.06l-.32-.11a9,9,0,0,1-.9-.34,9.19,9.19,0,0,1-3-2l-.14.14a1.74,1.74,0,0,1,.22,2,2.11,2.11,0,0,1-.81.89,2.44,2.44,0,0,1-1.26.28,3.75,3.75,0,0,1-2.54-1.22,11.3,11.3,0,0,1-1.77-2.69l-.22-.42-.06.48a6.78,6.78,0,0,1-1,3.38,2.73,2.73,0,0,1-1.49,1,1.73,1.73,0,0,1-1.66-.45,4.57,4.57,0,0,1-1-2.08,14.26,14.26,0,0,1-.45-2.29,35.35,35.35,0,0,1-.19-4.43c0-1.41,0-2.77-.09-4a16.92,16.92,0,0,0-.61-3.47,9.62,9.62,0,0,0-2.49-4.42A5.44,5.44,0,0,0,108.12,93Z"/><path class="cls-5" d="M66.85,108.82l.11.08.36.23a3.93,3.93,0,0,0,.6.33,6.24,6.24,0,0,0,.85.39,12.2,12.2,0,0,0,5.89.69,15.52,15.52,0,0,0,8-3.54,26.69,26.69,0,0,0,6.55-8.57c.89-1.71,1.59-3.45,2.39-5.06A17.76,17.76,0,0,1,94.4,89a9.26,9.26,0,0,1,3.77-2.62,6.32,6.32,0,0,1,2.06-.37,7,7,0,0,1,1.91.25,7.79,7.79,0,0,1,2.94,1.53,7.87,7.87,0,0,1,1.66,1.89,9.62,9.62,0,0,1,.83,2s0,0,0-.14,0-.25-.09-.41a7.13,7.13,0,0,0-.61-1.51,7.79,7.79,0,0,0-1.65-2,7.94,7.94,0,0,0-3-1.61,7.4,7.4,0,0,0-2-.28,6.73,6.73,0,0,0-2.13.37,9.52,9.52,0,0,0-3.91,2.67,17.92,17.92,0,0,0-2.84,4.39c-.81,1.63-1.51,3.36-2.39,5a26.7,26.7,0,0,1-6.45,8.49,15.33,15.33,0,0,1-7.87,3.54,12.25,12.25,0,0,1-5.81-.58A20.17,20.17,0,0,1,66.85,108.82Z"/><path class="cls-5" d="M65.24,102.92a2.49,2.49,0,0,0,.51.31,10.7,10.7,0,0,0,1.49.64,13.7,13.7,0,0,0,2.33.61,14.56,14.56,0,0,0,5.88-.18,14.18,14.18,0,0,0,2.3-.74,10.47,10.47,0,0,0,1.45-.74,3.35,3.35,0,0,0,.49-.33c0-.06-.76.38-2,.86a17.5,17.5,0,0,1-2.27.67,15.85,15.85,0,0,1-5.77.17,16.63,16.63,0,0,1-2.31-.53C66,103.25,65.27,102.86,65.24,102.92Z"/><path class="cls-7" d="M166.68,277.74l.94-4.51a98.86,98.86,0,0,1-30.3-20.91l-50-50.63,1.3-14.53,24.64-23.08a30.7,30.7,0,0,1,27-1.75c17.3,6.85,24.63,16.56,44.82,40.11,8,9.33,3.51,1.53,11.33,6.59,0,0-4.9,26.67-14.19,43.2C175.36,264.33,166.68,277.74,166.68,277.74Z"/><path class="cls-4" d="M92.45,207.07a15.21,15.21,0,0,1-1.84-2.57,69.52,69.52,0,0,1-6.7-13.72,15.9,15.9,0,0,1-.9-3,21.14,21.14,0,0,1,1.25,2.91c.74,1.8,1.8,4.27,3.1,6.94s2.6,5,3.57,6.71A22.22,22.22,0,0,1,92.45,207.07Z"/><g class="cls-9"><path d="M179.6,240.5a34.16,34.16,0,0,0-1.67-16.39c-3.14-8.17-11.25-19.67-11.25-19.67l-2.78,2.63Z"/></g><path class="cls-12" d="M136.29,290.79l18-47.16-9.5-11.87-17.92-22S114.11,203.1,108,193.31a13,13,0,0,1-.28-12c5.6-10.58,17.2-14.78,28.74-11.62l10.16,6.66s33.53,52.55,33,62.68c-.38,7.15-28.65,55.57-28.65,55.57Z"/><path class="cls-12" d="M137.56,288.78l-20,1.73a6.75,6.75,0,0,0-5.14,3.12l-9,14.13s3.57,1.65,5.93-1,6.18-8.19,6.18-8.19l-1.7,15.74s4.62.45,5.39-3.06a55.3,55.3,0,0,0,1-9.31l4.51,15s4.89-1.61,3.31-7.27c-1-3.57-2.06-7.25-2.06-7.25l5.49,9.74s4-.35,3-4c-.69-2.41-2.81-7.19-2.81-7.19s11.52.87,13.81,0c3.12-1.13,6.31-7.75,6.31-7.75Z"/><path class="cls-7" d="M119.82,166.94s-16.79,9-14.95,21.65,16.28,19.19,16.28,19.19l18.76,20.13,29.5-25.63-26.84-33.35"/><path class="cls-4" d="M142.57,168.93a1.13,1.13,0,0,1,.14.15c.1.11.23.26.38.45l1.48,1.76,5.51,6.76,19.51,24.08.15.18-.17.15L140.24,228l-.15.13-.2.17-.17-.19L121,208l.08.06a37.31,37.31,0,0,1-9.33-6.58,24.84,24.84,0,0,1-5.89-8.55c-.25-.78-.58-1.54-.75-2.32s-.36-1.55-.44-2.32a13.88,13.88,0,0,1,.22-4.48,18.51,18.51,0,0,1,3.4-7.12A35.4,35.4,0,0,1,116.4,169c1.07-.74,1.92-1.26,2.51-1.6l.67-.37a1.28,1.28,0,0,1,.24-.11,1,1,0,0,1-.22.15l-.65.4c-.57.37-1.41.91-2.46,1.67a36.45,36.45,0,0,0-8,7.67,18.22,18.22,0,0,0-3.29,7,13.18,13.18,0,0,0-.19,4.36c.08.75.3,1.5.45,2.27s.49,1.5.73,2.27c2.43,6,8.1,11.32,15,14.81l0,0,0,0,18.78,20.11-.37,0,.14-.12,29.37-25.48,0,.33-19.35-24.21-5.42-6.83c-.61-.78-1.08-1.38-1.41-1.82l-.36-.47A.83.83,0,0,1,142.57,168.93Z"/><path class="cls-13" d="M121.92,292.65c0,.08-.65.07-1.64.35a6.56,6.56,0,0,0-3.26,2.08,6.67,6.67,0,0,0-1.47,3.6c-.1,1,0,1.65,0,1.67a3.11,3.11,0,0,1-.32-1.69,6.19,6.19,0,0,1,5-6A3,3,0,0,1,121.92,292.65Z"/><path class="cls-13" d="M123.76,295c0,.06-.39.36-1.07.85a13.79,13.79,0,0,0-1.13.9,3.29,3.29,0,0,0-1,1.31,7.76,7.76,0,0,0-.23,3.13,6.72,6.72,0,0,1,.13,1.35c-.06,0-.32-.45-.5-1.3a6.71,6.71,0,0,1,.11-3.36,3.6,3.6,0,0,1,1.2-1.5,8.78,8.78,0,0,1,1.24-.84C123.23,295.12,123.73,294.94,123.76,295Z"/><path class="cls-13" d="M132.13,296.88a3.9,3.9,0,0,1-1.61.36c-1,.14-2.46.23-3.36,1.38a4.63,4.63,0,0,0-.87,3.53c.18,1,.51,1.51.43,1.55s-.49-.45-.79-1.47a4.6,4.6,0,0,1,.82-3.93,3.51,3.51,0,0,1,1.94-1.21,8.51,8.51,0,0,1,1.8-.21A7.9,7.9,0,0,1,132.13,296.88Z"/><path class="cls-13" d="M147.68,292.64a30.84,30.84,0,0,1-5.37-1.79c-1.46-.55-2.77-1.08-3.71-1.48a9.63,9.63,0,0,1-1.5-.69c.05-.21,2.48.58,5.4,1.69A30.56,30.56,0,0,1,147.68,292.64Z"/><g class="cls-9"><path d="M192.64,203.6S189.05,235,182,247.81s-12.82,23.76-12.82,23.76l-.5,2.42s14.28-22.53,16.86-28.14a160.26,160.26,0,0,0,9.88-27.8c2.58-10.88,3-12.77,2.92-12.77S194.27,202.28,192.64,203.6Z"/></g></g></g></svg>