<svg xmlns="http://www.w3.org/2000/svg" viewBox="0 0 489.68 450.87"><defs><style>.cls-1{fill:#4a8459;}.cls-2{fill:#e0e0e0;}.cls-3{fill:#42774d;}.cls-4{fill:#f0f0f0;}.cls-5{fill:#fafafa;}.cls-6{fill:#e6e6e6;}.cls-31,.cls-32,.cls-7{fill:#f7c04a;}.cls-8{fill:#539165;}.cls-9{fill:#455a64;}.cls-10{fill:#263238;}.cls-11,.cls-18{fill:#37474f;}.cls-12{fill:#3f497f;}.cls-13{fill:#ba68c8;}.cls-14{fill:#f7c97f;}.cls-15{fill:#e2a840;}.cls-16{fill:#f9cf8c;}.cls-17{fill:#ebebeb;}.cls-18,.cls-21{opacity:0.5;}.cls-19{opacity:0.9;}.cls-20{opacity:0.85;}.cls-21,.cls-24,.cls-34,.cls-35,.cls-42{fill:#fff;}.cls-22,.cls-42{opacity:0.2;}.cls-23{fill:#cc9432;}.cls-25{fill:#f8f5e4;}.cls-26{fill:#f9d79b;}.cls-27,.cls-28{fill:#c18b33;}.cls-28{opacity:0.3;}.cls-29,.cls-30{fill:#f9c569;}.cls-30{opacity:0.45;}.cls-31{opacity:0.4;}.cls-32{opacity:0.7;}.cls-33{fill:#f5f5f5;}.cls-34{opacity:0.8;}.cls-35{opacity:0.25;}.cls-36{fill:#212847;}.cls-37{opacity:0.15;}.cls-38{fill:#f28f8f;}.cls-39{fill:#ffa8a7;}.cls-40{fill:#f9dbaa;}.cls-41{fill:#e2a440;}.cls-43{fill:#b16668;}</style></defs><g id="Слой_2" data-name="Слой 2"><g id="Floor"><path id="Floor-2" data-name="Floor" class="cls-1" d="M73.62,210.66c-95.18,55-95.17,144,0,199s249.49,54.95,344.67,0,95.17-144,0-199S168.8,155.71,73.62,210.66Z"/></g><g id="Shadows"><path id="Shadow" class="cls-2" d="M109.73,419.62,13.16,364.46c-1.27-.73-1.27-1.92,0-2.65l277-159.93a5,5,0,0,1,4.59,0L391.34,257c1.27.73,1.27,1.92,0,2.65l-277,159.93A5.08,5.08,0,0,1,109.73,419.62Z"/><path id="Shadow-2" data-name="Shadow" class="cls-3" d="M64.59,390.47c9.94,5.8,9.94,15.22,0,21s-26.07,5.81-36,0-9.94-15.22,0-21S54.65,384.66,64.59,390.47Z"/><path id="Shadow-3" data-name="Shadow" class="cls-3" d="M207.79,441.06l-42.88-24.75c-2-1.18-2-3.1,0-4.28L286.52,341.8a8.22,8.22,0,0,1,7.42,0l42.89,24.76c2.05,1.18,2.05,3.1,0,4.28L215.21,441.06A8.16,8.16,0,0,1,207.79,441.06Z"/><ellipse id="Shadow-4" data-name="Shadow" class="cls-3" cx="427.97" cy="299.87" rx="52.91" ry="30.55"/></g><g id="Check_Mark" data-name="Check Mark"><g id="Check_Mark-2" data-name="Check Mark"><path class="cls-4" d="M173.15,415.72l36.55,21.12a5.23,5.23,0,0,0,4.75,0l116.38-67.08a5.22,5.22,0,0,0,2.36-4.11v-1.71a5.27,5.27,0,0,0-2.38-4.12l-36.64-21.07a5.3,5.3,0,0,0-4.75,0l-116.29,67a5.2,5.2,0,0,0-2.36,4.11v1.71A5.29,5.29,0,0,0,173.15,415.72Z"/><path class="cls-5" d="M289.56,338.67c1.81-1,3.69-.44,5.51.61l34.81,20c1.81,1,1.81,2.74,0,3.79l-114.57,66h0a6.51,6.51,0,0,1-6.53,0l-34.85-20a2.19,2.19,0,0,1,0-3.79h0Z"/><path class="cls-2" d="M173.92,407.86a1.29,1.29,0,0,1,.47-1.75L290,339.46c1.22-.71,2.64-.52,4.59.61l34.81,20a2.14,2.14,0,0,1,.79.71c.4.71-.42,1.28-.79,1.5l-114.56,66a5.66,5.66,0,0,1-5.63,0l-34.84-20a1.3,1.3,0,0,1-.47-.46m-.79.45a2.12,2.12,0,0,0,.8.8l34.85,20a6.51,6.51,0,0,0,6.53,0l114.57-66c1.28-.75,1.66-1.82,1.12-2.75a3,3,0,0,0-1.12-1l-34.81-20c-1.82-1-3.7-1.65-5.51-.61L173.93,405.32a2.19,2.19,0,0,0-.8,3Z"/><path class="cls-6" d="M173.12,405.78l.81-.46a2.19,2.19,0,0,0,0,3.79l34.84,20A6.44,6.44,0,0,0,212,430h.08v7.41a4.92,4.92,0,0,1-2.42-.57l-36.55-21.12a5.24,5.24,0,0,1-2.38-4.11V409.9A5.23,5.23,0,0,1,173.12,405.78Z"/><polygon class="cls-7" points="216.51 413.71 205.32 414.18 205.29 410.62 212.35 410.33 211.67 395.14 215.6 394.98 216.51 413.71"/><path class="cls-7" d="M212.74,390.58l27.09,15.64-27.09,15.64-27.09-15.64,27.09-15.64m0-1.09-29,16.73,29,16.73,29-16.73-29-16.73Z"/><path class="cls-2" d="M291.92,347.44l-69.15,39.89c-.36.21-.43.51-.16.66l1.18.68.7.39a1.27,1.27,0,0,0,1.14-.09l69.16-39.89c.36-.21.43-.5.16-.66l-1.89-1.07A1.27,1.27,0,0,0,291.92,347.44Z"/><path class="cls-2" d="M298.27,351.09,229.12,391c-.36.21-.44.51-.17.66l1.19.68.7.39a1.27,1.27,0,0,0,1.14-.09l69.15-39.89c.36-.21.44-.5.17-.66L299.41,351A1.27,1.27,0,0,0,298.27,351.09Z"/><path class="cls-2" d="M304.62,354.74l-69.16,39.89c-.36.21-.43.51-.16.66l1.18.69.71.39a1.3,1.3,0,0,0,1.14-.1l69.15-39.89c.36-.21.43-.5.16-.66l-1.88-1.07A1.3,1.3,0,0,0,304.62,354.74Z"/><path class="cls-2" d="M311,358.39l-69.15,39.9c-.36.2-.43.5-.16.65l1.18.69.7.39a1.3,1.3,0,0,0,1.14-.1L313.83,360c.36-.21.43-.5.16-.66l-1.89-1.07A1.3,1.3,0,0,0,311,358.39Z"/></g></g><g id="Lock"><path id="Lock-2" data-name="Lock" class="cls-8" d="M357.11,320.25l-2.91,1.68L346,317.18c-6.11-3.53-16.81-3.09-23.86,1s-7.82,10.25-1.72,13.77l8.23,4.75-2.91,1.68c-2.55,1.47-2.82,3.7-.62,5l22.68,13.1a9.45,9.45,0,0,0,7.47.18c13.22-5.08,24.67-11.7,33.47-19.33a2.8,2.8,0,0,0,1.16-2.29,2.59,2.59,0,0,0-1.48-2l-22.68-13.1C363.51,318.62,359.66,318.78,357.11,320.25Zm12.11,20.4-8.17,4.72L354.6,340a9.57,9.57,0,0,1-6.13-.76c-2.43-1.4-2.13-3.84.66-5.45s7-1.8,9.47-.4c1.57.91,2,2.26,1.31,3.55ZM349,325l-15.08,8.7-8.23-4.75c-3.59-2.08-3.14-5.72,1-8.12s10.47-2.66,14.07-.58Z"/></g><g id="Device"><g id="Device-2" data-name="Device"><g id="Case"><path class="cls-9" d="M291.57,210.51l5.06-2.92s37.88-81.45,40.38-86.54-2-7.68-6.87-4.88L77.56,261.81c-4.85,2.8-6.37,6.64-10.68,15s-39.24,82-39.24,82a4.64,4.64,0,0,0,1.83,5.44L98,403.9,362.14,251.37Z"/><path class="cls-10" d="M70.05,278.85c-3.27,6.35-39.54,82.38-39.54,82.38L299.83,205.74s37.68-77.39,40.35-82.66-2-7.68-6.87-4.88L80.73,263.84C75.88,266.63,73.33,272.51,70.05,278.85Z"/><polygon class="cls-11" points="294.7 208.71 30.51 361.24 99.98 401.35 364.18 248.83 294.7 208.71"/><path class="cls-7" d="M324.07,22.68,69.53,169.37c-5.58,3.22-7.32,8.43-6.34,15.31L93.31,396.07c1,6.87,6.46,10.89,12,7.67L357.63,258.15c5.58-3.22,9.31-11.41,8.33-18.28L336,29.29C335,22.42,329.65,19.46,324.07,22.68Z"/></g><g id="Tablet"><path class="cls-11" d="M341.22,27.17a7.81,7.81,0,0,0-6.86.85L82.07,173.62A17,17,0,0,0,75.63,181l-8.14-3.45c1.79-3.91,4.91-5.34,7.59-6.9L327.35,25.06a7.77,7.77,0,0,1,7.12-.73h0Z"/><path class="cls-10" d="M101.5,405.87v0c-2.5-1-4.36-3.62-4.9-7.4L66.75,188.94c-.62-4.29-.82-8.14.74-11.39L75.63,181c-.21.45-.41.91-.6,1.39s-.28.75-.4,1.13a1.09,1.09,0,0,0,0,.17,12.44,12.44,0,0,0-.39,1.32c-.12.46-.22.93-.29,1.38a7.67,7.67,0,0,0-.15,1,16.32,16.32,0,0,0,0,4.47l30,210.57c.54,3.82,2.44,6.44,5,7.45Z"/><path class="cls-12" d="M334.35,28,79.82,174.72c-5.58,3.22-7.32,8.44-6.34,15.31l30.27,212.45c1,6.88,6.31,9.84,11.89,6.61L367.92,263.5c5.58-3.22,9.31-11.41,8.32-18.28l-30-210.58C345.26,27.77,339.94,24.81,334.35,28Z"/><path class="cls-11" d="M352.43,262.53l-225.19,130c-2.89,1.67-5.65.14-6.16-3.42l-29.7-208.4c-.51-3.56,1.42-7.8,4.31-9.47L320.88,41.24c2.89-1.67,5.65-.14,6.16,3.42l29.7,208.4C357.25,256.62,355.32,260.86,352.43,262.53Z"/><path class="cls-10" d="M355.6,259a8.62,8.62,0,0,1-3.17,3.49l-225.18,130c-2.77,1.61-5.42.26-6.08-3l225.18-130a8.76,8.76,0,0,0,3.35-3.85Z"/><path class="cls-5" d="M91.38,180.66l29.7,208.4c0,.14,0,.27.08.41l225.19-130c2.89-1.67,4.82-5.91,4.31-9.48L320.88,41.24l-225.19,130C92.8,172.86,90.87,177.1,91.38,180.66Z"/><path class="cls-10" d="M102.87,309.7a5.08,5.08,0,0,1-2.17,4.77c-1.46.84-2.85.06-3.1-1.73A5,5,0,0,1,99.77,308C101.22,307.14,102.61,307.91,102.87,309.7Z"/><path class="cls-10" d="M93,260.9h0a3.93,3.93,0,0,0-1.69,3.71l4.92,34.31c.2,1.39,1.28,2,2.41,1.34h0a3.93,3.93,0,0,0,1.69-3.71l-4.92-34.31C95.23,260.85,94.15,260.25,93,260.9Z"/></g></g><g id="Window"><g id="Window-2" data-name="Window"><path class="cls-5" d="M136.35,387.55a2.25,2.25,0,0,1-.44,0,1.29,1.29,0,0,1-.31-.07l-.23-.1-.21-.1a2.61,2.61,0,0,1-1.77-2l-.28-1.93L104.86,186c-.68-4.75,1.24-7.69,3.26-8.86L327.29,51a3.92,3.92,0,0,1,1.92-.58,2.63,2.63,0,0,1,.8.13,2.17,2.17,0,0,1,.35.15,1.17,1.17,0,0,1,.26.19l.06.06.07,0,.12.13.05.07,0,0a1.78,1.78,0,0,1,.26.37l.08.15,0,.05.15.28a1.7,1.7,0,0,1,.07.23c0,.14.07.3.1.46l28.82,201.31a7.46,7.46,0,0,1-3.55,6.86L142.19,384.58l-4.31,2.49h0l-.16.1a2.64,2.64,0,0,1-1.25.38Z"/><path class="cls-7" d="M329.21,51.06a1.86,1.86,0,0,1,.61.1l.16.06,0,0,.07,0a.44.44,0,0,1,.1.06l.12.12,0,0h0l0,0,.12.13.07.07,0,.05.22.41v0l.05.06,0,0a.62.62,0,0,0,0,.1,4,4,0,0,1,.08.4l28.82,201.32a6.85,6.85,0,0,1-3.23,6.19L141.86,384l-4.24,2.45-.06,0-.11.08-.07,0a2.09,2.09,0,0,1-.94.3h-.09l-.35,0-.17,0-.17-.08-.13-.06-.08,0,0,0,0,0a1.93,1.93,0,0,1-1.32-1.43l-.14-.93v-.05c-.05-.28-.08-.53-.12-.76v0h0L105.51,185.94c-.64-4.43,1.1-7.14,2.94-8.2L327.61,51.55a3.34,3.34,0,0,1,1.6-.49m0-1.31a4.56,4.56,0,0,0-2.25.66L107.8,176.6c-2.52,1.46-4.26,4.83-3.59,9.53l28.27,197.46c-.06-.45-.09-.61-.09-.61s.22,1.45.22,1.46l.13.92a3.25,3.25,0,0,0,2.13,2.47l.23.11a1.82,1.82,0,0,0,.28.11,2.09,2.09,0,0,0,.43.11,3.39,3.39,0,0,0,.54,0h.1a3.37,3.37,0,0,0,1.58-.47l.12-.07h0l4.35-2.51L357.18,261.47a8.13,8.13,0,0,0,3.88-7.51L332.24,52.64c0-.18-.07-.36-.11-.52a1.82,1.82,0,0,0-.14-.39s0,0,0-.08a1.38,1.38,0,0,0-.16-.37,2.66,2.66,0,0,0-.37-.53,1.24,1.24,0,0,0-.19-.21,1.22,1.22,0,0,0-.17-.15,2,2,0,0,0-.36-.26l0,0a3.57,3.57,0,0,0-.45-.19,3.1,3.1,0,0,0-1-.16ZM132.48,383.59l0,.12,0-.12Z"/><path class="cls-13" d="M330.22,49.91a4,4,0,0,0-3.26.5L107.8,176.6a8.18,8.18,0,0,0-3.88,7.51l1.17,8.19-6.73-2.9-1.15-8.09a8.12,8.12,0,0,1,3.86-7.5L320.25,47.62a3.86,3.86,0,0,1,3.53-.4C324.73,47.64,329.1,49.49,330.22,49.91Z"/><path class="cls-7" d="M332.22,52.62c-.4-2.67-2.75-3.66-5.26-2.21L107.79,176.61a8.13,8.13,0,0,0-3.87,7.5l1.18,8.19L333.4,60.85Z"/><path class="cls-14" d="M327,50.41,107.8,176.6a8.25,8.25,0,0,0-3,3.28L98.09,177a7.94,7.94,0,0,1,3-3.22L320.25,47.62a3.83,3.83,0,0,1,3.53-.4c1,.43,5.32,2.25,6.42,2.69A3.92,3.92,0,0,0,327,50.41Z"/><path class="cls-15" d="M98.36,189.42l-1.16-8.11a7.33,7.33,0,0,1,.89-4.28l6.71,2.83a7.15,7.15,0,0,0-.87,4.26l1.17,8.18Z"/><path class="cls-5" d="M312.29,63.39a3.72,3.72,0,0,0-1.6,3.51c.19,1.31,1.21,1.88,2.28,1.26a3.69,3.69,0,0,0,1.6-3.5C314.38,63.34,313.36,62.77,312.29,63.39Z"/><path class="cls-5" d="M319.27,59.35a3.72,3.72,0,0,0-1.6,3.51c.19,1.32,1.21,1.89,2.28,1.27a3.72,3.72,0,0,0,1.6-3.51C321.36,59.3,320.34,58.73,319.27,59.35Z"/><path class="cls-5" d="M326.25,55.32a3.69,3.69,0,0,0-1.6,3.5c.19,1.32,1.21,1.89,2.28,1.27a3.72,3.72,0,0,0,1.6-3.51C328.34,55.27,327.32,54.7,326.25,55.32Z"/><path class="cls-13" d="M134.89,387.84l-.29-.11-5.55-2.36a5.17,5.17,0,0,1-3-3.16,4.61,4.61,0,0,1-.14-.62L98.36,189.4l6.73,2.9,27.64,193.06a3.13,3.13,0,0,0,1.88,2.35Z"/><path class="cls-16" d="M134.89,387.84l-.29-.11-5.55-2.36a5.17,5.17,0,0,1-3-3.16,4.61,4.61,0,0,1-.14-.62L98.36,189.4l6.73,2.9,27.64,193.06a3.13,3.13,0,0,0,1.87,2.35Z"/></g><polygon class="cls-2" points="224.2 153.25 123.89 211.16 121.42 193.9 221.73 135.99 224.2 153.25"/><path class="cls-2" d="M121.42,225.37a1.14,1.14,0,0,1-.57-2.13L327.51,103.92a1.15,1.15,0,0,1,1.56.42,1.13,1.13,0,0,1-.42,1.56L122,225.22A1.18,1.18,0,0,1,121.42,225.37Z"/><path class="cls-2" d="M171.74,212.13l-39.48,22.79c-1.44.83-2.81.07-3.07-1.71l-.06-.48a5,5,0,0,1,2.14-4.71l39.48-22.79c1.44-.83,2.81-.07,3.06,1.7l.07.48A5,5,0,0,1,171.74,212.13Z"/><path class="cls-2" d="M246.73,168.83l-39.48,22.79c-1.44.83-2.81.07-3.06-1.7l-.07-.48a5,5,0,0,1,2.14-4.72l39.48-22.79c1.44-.83,2.81-.07,3.07,1.71l.07.47A5,5,0,0,1,246.73,168.83Z"/><path class="cls-2" d="M321.72,125.53l-39.48,22.79c-1.44.84-2.81.07-3.06-1.7l-.07-.48a5,5,0,0,1,2.15-4.71l39.47-22.8c1.44-.83,2.81-.06,3.07,1.71l.07.48A5,5,0,0,1,321.72,125.53Z"/><polygon class="cls-2" points="234.76 263.31 139.61 318.24 130.47 254.38 225.61 199.44 234.76 263.31"/><path class="cls-5" d="M194.61,249.65l-20.1-4.39a2.26,2.26,0,0,0-2.71,2.53L176,277.32a2.25,2.25,0,0,0,4.14.88L196,253.05A2.25,2.25,0,0,0,194.61,249.65Z"/><path class="cls-2" d="M287.82,171.44,238,200.19c-1.52.88-3,.07-3.25-1.8l-.07-.51a5.3,5.3,0,0,1,2.27-5l49.8-28.75c1.53-.88,3-.07,3.25,1.81l.07.51A5.29,5.29,0,0,1,287.82,171.44Z"/><path class="cls-2" d="M236.45,211.21a1.14,1.14,0,0,1-.58-2.13l94.18-54.37a1.14,1.14,0,1,1,1.14,2L237,211.06A1.18,1.18,0,0,1,236.45,211.21Z"/><path class="cls-2" d="M237.76,220.37a1.12,1.12,0,0,1-1-.57,1.14,1.14,0,0,1,.42-1.56l94.17-54.37a1.14,1.14,0,1,1,1.14,2l-94.17,54.37A1.18,1.18,0,0,1,237.76,220.37Z"/><path class="cls-2" d="M239.07,229.54a1.14,1.14,0,0,1-.57-2.13l64.44-37.21a1.14,1.14,0,0,1,1.15,2l-64.45,37.21A1.18,1.18,0,0,1,239.07,229.54Z"/><path class="cls-2" d="M240.38,238.71a1.16,1.16,0,0,1-1-.57,1.14,1.14,0,0,1,.42-1.56L334,182.2a1.16,1.16,0,0,1,1.57.42,1.15,1.15,0,0,1-.42,1.56L241,238.55A1.07,1.07,0,0,1,240.38,238.71Z"/><path class="cls-2" d="M241.7,247.87a1.14,1.14,0,0,1-.58-2.13l94.18-54.37a1.14,1.14,0,1,1,1.14,2l-94.17,54.37A1.18,1.18,0,0,1,241.7,247.87Z"/><path class="cls-2" d="M243,257a1.14,1.14,0,0,1-.58-2.13L282.11,232a1.14,1.14,0,1,1,1.14,2l-39.67,22.91A1.18,1.18,0,0,1,243,257Z"/><polygon class="cls-2" points="243.63 325.26 238.09 286.55 142.94 341.48 148.48 380.2 243.63 325.26"/><path class="cls-5" d="M208.51,340.16a2.26,2.26,0,0,0-1.43-3.41L187,332.37a2.25,2.25,0,0,0-2.71,2.52l3.26,22.76,15.64-9Z"/><path class="cls-2" d="M300.29,258.55l-49.8,28.75c-1.52.88-3,.07-3.25-1.81l-.07-.51a5.27,5.27,0,0,1,2.28-5l49.79-28.75c1.53-.89,3-.08,3.25,1.8l.08.51A5.32,5.32,0,0,1,300.29,258.55Z"/><path class="cls-2" d="M248.92,298.31a1.12,1.12,0,0,1-1-.57,1.14,1.14,0,0,1,.41-1.56l94.18-54.37a1.14,1.14,0,1,1,1.14,2l-94.17,54.37A1.18,1.18,0,0,1,248.92,298.31Z"/><path class="cls-2" d="M250.23,307.48a1.15,1.15,0,0,1-1-.57,1.13,1.13,0,0,1,.42-1.56L343.83,251a1.14,1.14,0,1,1,1.15,2L250.8,307.33A1.18,1.18,0,0,1,250.23,307.48Z"/><path class="cls-2" d="M251.54,316.65a1.15,1.15,0,0,1-.57-2.14l64.44-37.2a1.14,1.14,0,1,1,1.15,2l-64.45,37.21A1.07,1.07,0,0,1,251.54,316.65Z"/><path class="cls-2" d="M254,117.68a1.14,1.14,0,0,1-.58-2.13l59.13-34.13a1.14,1.14,0,0,1,1.14,2l-59.12,34.12A1.1,1.1,0,0,1,254,117.68Z"/><path class="cls-2" d="M255.29,126.84a1.12,1.12,0,0,1-1-.57,1.14,1.14,0,0,1,.42-1.56l59.12-34.12a1.14,1.14,0,0,1,1.14,2l-59.12,34.12A1.08,1.08,0,0,1,255.29,126.84Z"/><path class="cls-2" d="M256.6,136a1.14,1.14,0,0,1-.57-2.13l59.11-34.13a1.14,1.14,0,0,1,1.15,2l-59.12,34.13A1.16,1.16,0,0,1,256.6,136Z"/></g></g><g id="Tab"><g id="Tab-2" data-name="Tab"><g id="Screen"><path class="cls-17" d="M122.56,203.6a3.9,3.9,0,0,1,.2-.47h0A4,4,0,0,0,122.56,203.6Z"/><path class="cls-18" d="M327.82,85.76a1.28,1.28,0,0,0-1.23-.73,2,2,0,0,0-1,.31L124.13,201.65a3.7,3.7,0,0,0-1.37,1.48l-7.07-3A3.79,3.79,0,0,1,117,198.7L318.5,82.38a5.61,5.61,0,0,1,4.43-.19l2.38,1A4.78,4.78,0,0,1,327.82,85.76Z"/><g class="cls-19"><path class="cls-10" d="M148,368.37a5.8,5.8,0,0,1-4.43.2l-2.39-1.08a4.71,4.71,0,0,1-2.69-3.17L115.26,202.08a3.3,3.3,0,0,1,.43-2l7.09,3a3.18,3.18,0,0,0-.39,1.89l23.24,162.34A1.45,1.45,0,0,0,148,368.37Z"/></g><g class="cls-20"><path class="cls-11" d="M326.58,85a2.06,2.06,0,0,0-.95.3L124.13,201.65a3.68,3.68,0,0,0-1.74,3.37l23.24,162.34a1.35,1.35,0,0,0,1.41,1.3,2,2,0,0,0,1-.29L349.49,252a3.66,3.66,0,0,0,1.74-3.37L328,86.33a1.36,1.36,0,0,0-1.41-1.3Z"/></g><path class="cls-9" d="M326.45,86.53l23.22,162.21a2.53,2.53,0,0,1-1.13,2.18L147.17,367.17,124,205a2.5,2.5,0,0,1,1.13-2.18L326.45,86.53m.13-1.5a2.06,2.06,0,0,0-.95.3L124.13,201.65a3.68,3.68,0,0,0-1.74,3.37l23.24,162.34a1.35,1.35,0,0,0,1.41,1.3,2,2,0,0,0,1-.29L349.49,252a3.66,3.66,0,0,0,1.74-3.37L328,86.33a1.36,1.36,0,0,0-1.41-1.3Z"/></g><path class="cls-5" d="M194.62,182.24a6.85,6.85,0,0,1,2.47-.92,4.8,4.8,0,0,1,2.06.1,3.26,3.26,0,0,1,1.48.89,2.7,2.7,0,0,1,.71,1.42.88.88,0,0,1-.07.47.72.72,0,0,1-.28.33l-2.68,1.55a.84.84,0,0,1-.87.07l-.23-.14a1.14,1.14,0,0,0-.43-.15,1.9,1.9,0,0,0-.66,0,2.9,2.9,0,0,0-.92.38,6.32,6.32,0,0,0-.74.49,4.19,4.19,0,0,0-.61.57,2.29,2.29,0,0,0-.39.65,1.4,1.4,0,0,0-.08.73.67.67,0,0,0,.28.52,1.25,1.25,0,0,0,.72.09,7.77,7.77,0,0,0,1.28-.29l2-.61a8.63,8.63,0,0,1,2.06-.43,3.1,3.1,0,0,1,1.56.27,2.4,2.4,0,0,1,1.05,1,5.34,5.34,0,0,1,.57,1.9,6.33,6.33,0,0,1-.14,2.56,9,9,0,0,1-1.07,2.49,11.77,11.77,0,0,1-1.85,2.25,13,13,0,0,1-2.47,1.84,8.21,8.21,0,0,1-2.6,1,4.79,4.79,0,0,1-2.15-.06,3.32,3.32,0,0,1-1.54-.93,3.11,3.11,0,0,1-.76-1.6.89.89,0,0,1,.08-.47.66.66,0,0,1,.27-.33l2.68-1.55a1,1,0,0,1,.46-.17.84.84,0,0,1,.37.07l.29.19a1.51,1.51,0,0,0,.51.21,2,2,0,0,0,.75,0,3.4,3.4,0,0,0,1.06-.42,8.36,8.36,0,0,0,1.77-1.34,1.72,1.72,0,0,0,.58-1.46.54.54,0,0,0-.36-.48,1.85,1.85,0,0,0-.86,0,12.13,12.13,0,0,0-1.42.37c-.58.19-1.25.4-2,.63a4,4,0,0,1-3.34-.08,3.88,3.88,0,0,1-1.47-2.9,6.62,6.62,0,0,1,.1-2.29,9.36,9.36,0,0,1,.91-2.41,10.61,10.61,0,0,1,1.66-2.25A10.09,10.09,0,0,1,194.62,182.24Z"/><path class="cls-5" d="M206.2,194.91a.4.4,0,0,1-.42,0,.49.49,0,0,1-.23-.39l-2.33-16.27a1,1,0,0,1,.1-.57.82.82,0,0,1,.36-.43l2.68-1.54a.38.38,0,0,1,.41,0,.48.48,0,0,1,.23.39l2.33,16.27a1,1,0,0,1-.09.57.92.92,0,0,1-.36.43Z"/><path class="cls-5" d="M216.18,174.15a4.4,4.4,0,0,0-1.13.92,4.16,4.16,0,0,0-.68,1.08,4.43,4.43,0,0,0-.3,1.19,8.24,8.24,0,0,0,0,1.22c0,.24,0,.55.08.94s.1.79.16,1.2.13.81.2,1.2.12.68.17.89a3.92,3.92,0,0,0,.35,1,1.69,1.69,0,0,0,.59.67,1.33,1.33,0,0,0,.86.2,2.93,2.93,0,0,0,1.19-.43,5.5,5.5,0,0,0,1-.73,4.26,4.26,0,0,0,.74-.95,3.54,3.54,0,0,0,.43-1.18,4.07,4.07,0,0,0,0-1.4l-1.72,1a.38.38,0,0,1-.42,0,.45.45,0,0,1-.23-.38l-.39-2.67a1.07,1.07,0,0,1,.1-.57.92.92,0,0,1,.36-.43l5-2.86a.42.42,0,0,1,.42,0,.49.49,0,0,1,.23.39l.46,3.22a9.42,9.42,0,0,1-.08,3.18,10.83,10.83,0,0,1-1,3,11.61,11.61,0,0,1-1.82,2.53,10.76,10.76,0,0,1-2.44,1.93,6.77,6.77,0,0,1-2.7,1,3.92,3.92,0,0,1-2.19-.33,3.82,3.82,0,0,1-1.57-1.45,7,7,0,0,1-.88-2.34c-.12-.68-.24-1.41-.35-2.2s-.21-1.55-.29-2.29a9.89,9.89,0,0,1,.12-2.91,11.13,11.13,0,0,1,.94-2.91,11.41,11.41,0,0,1,1.76-2.61,10.44,10.44,0,0,1,2.57-2.07,7.06,7.06,0,0,1,2.65-1,4.71,4.71,0,0,1,2.13.19,3.49,3.49,0,0,1,1.49,1,3.26,3.26,0,0,1,.75,1.51.72.72,0,0,1-.06.47.9.9,0,0,1-.31.35l-2.72,1.57a.48.48,0,0,1-.51.05l-.41-.26a1.86,1.86,0,0,0-.89-.38A2.63,2.63,0,0,0,216.18,174.15Z"/><path class="cls-5" d="M236.14,177.63a.66.66,0,0,1-.59.09.79.79,0,0,1-.33-.19l-5.91-5.91,1.21,8.51a1,1,0,0,1-.09.58.84.84,0,0,1-.36.42l-2.68,1.55a.38.38,0,0,1-.42,0,.49.49,0,0,1-.23-.38l-2.33-16.27a1,1,0,0,1,.1-.58.88.88,0,0,1,.36-.42l2.12-1.23a.69.69,0,0,1,.6-.1.93.93,0,0,1,.32.2l5.92,5.91-1.22-8.52a1.08,1.08,0,0,1,.1-.57.92.92,0,0,1,.36-.43l2.68-1.54a.39.39,0,0,1,.41,0,.51.51,0,0,1,.24.39l2.33,16.27a1.07,1.07,0,0,1-.1.57.92.92,0,0,1-.36.43Z"/><path class="cls-5" d="M255.24,147.51a.42.42,0,0,1,.42,0,.51.51,0,0,1,.23.38l1.44,10.06a11.25,11.25,0,0,1,0,3.33,10.72,10.72,0,0,1-1,3,10.5,10.5,0,0,1-1.78,2.51,11,11,0,0,1-2.45,1.92,7.78,7.78,0,0,1-2.6,1,3.42,3.42,0,0,1-3.75-1.75,7.68,7.68,0,0,1-.89-2.82l-1.44-10a1.08,1.08,0,0,1,.1-.57.89.89,0,0,1,.36-.42l2.68-1.55a.38.38,0,0,1,.41,0,.49.49,0,0,1,.24.38l1.42,9.95a2.85,2.85,0,0,0,.94,2c.49.34,1.14.27,2-.2a3.83,3.83,0,0,0,1.7-1.91,5.3,5.3,0,0,0,.27-2.72l-1.43-9.95a1.07,1.07,0,0,1,.1-.57.92.92,0,0,1,.36-.43Z"/><path class="cls-5" d="M264.91,141.93a8.09,8.09,0,0,1,2.41-1,3.28,3.28,0,0,1,1.93.08,2.87,2.87,0,0,1,1.41,1.19,6,6,0,0,1,.76,2.34,9.24,9.24,0,0,1,0,2.83,8.48,8.48,0,0,1-.88,2.49A9.36,9.36,0,0,1,268.9,152a11,11,0,0,1-2.3,1.73L264,155.25l.73,5.14a1,1,0,0,1-.09.57.92.92,0,0,1-.36.43l-2.68,1.55a.42.42,0,0,1-.42,0,.46.46,0,0,1-.23-.38l-2.33-16.28a1,1,0,0,1,.09-.57.89.89,0,0,1,.36-.42Zm-1.49,9.39,2.52-1.45a3.8,3.8,0,0,0,1.35-1.29,2.65,2.65,0,0,0,.35-1.84q-.15-1.06-.78-1.2a2.08,2.08,0,0,0-1.49.35l-2.52,1.45Z"/><path class="cls-5" d="M169.73,230.56c0,.36.07.7.12,1s.1.64.16,1a1.81,1.81,0,0,0,.72,1.32,1.32,1.32,0,0,0,1.4-.15,2.9,2.9,0,0,0,.76-.59,3.21,3.21,0,0,0,.48-.67,3.05,3.05,0,0,0,.24-.7,4.3,4.3,0,0,0,.08-.69.52.52,0,0,1,.07-.25.53.53,0,0,1,.15-.15l.44-.26a.16.16,0,0,1,.16,0,.2.2,0,0,1,.09.15,3.52,3.52,0,0,1,0,.95,5,5,0,0,1-.35,1.15,5.21,5.21,0,0,1-.73,1.16,4.36,4.36,0,0,1-1.2,1,2.67,2.67,0,0,1-1.15.41,1.73,1.73,0,0,1-.94-.19,1.79,1.79,0,0,1-.69-.7,3.66,3.66,0,0,1-.4-1.17c-.12-.69-.22-1.39-.3-2.11a5.55,5.55,0,0,1,0-1.41,4.93,4.93,0,0,1,1.15-2.49,4.08,4.08,0,0,1,1.08-.89,2.92,2.92,0,0,1,1.27-.44,1.62,1.62,0,0,1,1.53.81,2.21,2.21,0,0,1,.29.76.6.6,0,0,1,0,.22.44.44,0,0,1-.14.16l-.44.26a.25.25,0,0,1-.17,0c-.06,0-.1-.06-.12-.14a2.09,2.09,0,0,0-.26-.49.89.89,0,0,0-.39-.33A1,1,0,0,0,172,227a2.27,2.27,0,0,0-.8.31,2.86,2.86,0,0,0-1.23,1.37A3.7,3.7,0,0,0,169.73,230.56Z"/><path class="cls-5" d="M177.79,224.8a.19.19,0,0,1,.19,0,.21.21,0,0,1,.11.18l.06.38a.44.44,0,0,1-.05.27.42.42,0,0,1-.17.2l-.56.32a1.82,1.82,0,0,0-.91,2l.5,3.47a.52.52,0,0,1-.05.27.42.42,0,0,1-.17.2l-.35.21a.21.21,0,0,1-.2,0,.25.25,0,0,1-.11-.18l-.79-5.54a.43.43,0,0,1,0-.27.42.42,0,0,1,.17-.2l.36-.21a.2.2,0,0,1,.2,0,.27.27,0,0,1,.1.18l.06.37a2.34,2.34,0,0,1,.39-.79,2.31,2.31,0,0,1,.68-.57Z"/><path class="cls-5" d="M178.91,226.85a4.37,4.37,0,0,1,.06-1.14,4.46,4.46,0,0,1,.34-1.09,3.88,3.88,0,0,1,.59-1,3.37,3.37,0,0,1,.84-.71,2.13,2.13,0,0,1,1-.32,1.24,1.24,0,0,1,.79.19,1.72,1.72,0,0,1,.58.7,4,4,0,0,1,.33,1.15l0,.33a.45.45,0,0,1,0,.27.42.42,0,0,1-.17.2l-3.32,1.91v.07a1.27,1.27,0,0,0,.58,1,1,1,0,0,0,1-.11,2.46,2.46,0,0,0,.77-.64,3.18,3.18,0,0,0,.37-.66.9.9,0,0,1,.12-.21.63.63,0,0,1,.17-.14l.29-.16a.21.21,0,0,1,.2,0,.17.17,0,0,1,.1.18,2.22,2.22,0,0,1-.09.57,3.13,3.13,0,0,1-.33.7,3.75,3.75,0,0,1-.58.74,4.32,4.32,0,0,1-.87.66,1.89,1.89,0,0,1-.9.29,1.37,1.37,0,0,1-.75-.18,1.73,1.73,0,0,1-.58-.59,3,3,0,0,1-.37-1A6.34,6.34,0,0,1,178.91,226.85Zm.86-.46,2.71-1.56v0a1.16,1.16,0,0,0-.54-.94,1.07,1.07,0,0,0-1.05.14,1.81,1.81,0,0,0-.51.41,2.83,2.83,0,0,0-.38.57,2.49,2.49,0,0,0-.21.67,2.18,2.18,0,0,0,0,.72Z"/><path class="cls-5" d="M184.46,226a2.57,2.57,0,0,1,0-.92,3.29,3.29,0,0,1,.34-.85,4.2,4.2,0,0,1,.58-.77,6.75,6.75,0,0,1,.73-.68l1.32-1.06,0-.15c-.06-.41-.21-.65-.46-.72a1,1,0,0,0-.84.16,1.63,1.63,0,0,0-.62.56,3.27,3.27,0,0,0-.3.66.68.68,0,0,1-.11.21.7.7,0,0,1-.18.14l-.29.17a.21.21,0,0,1-.2,0c-.07,0-.1-.09-.11-.19a1.71,1.71,0,0,1,.1-.63,2.89,2.89,0,0,1,.33-.72,4.31,4.31,0,0,1,.54-.69,2.94,2.94,0,0,1,.69-.54,2.29,2.29,0,0,1,.83-.31,1.17,1.17,0,0,1,.7.08,1.24,1.24,0,0,1,.52.5,2.37,2.37,0,0,1,.29.92l.52,3.62a.51.51,0,0,1,0,.27.43.43,0,0,1-.17.2l-.36.21a.21.21,0,0,1-.2,0,.24.24,0,0,1-.11-.18l-.07-.49a1.6,1.6,0,0,1-.21.56,3.7,3.7,0,0,1-.38.53,4,4,0,0,1-.46.46,4.87,4.87,0,0,1-.47.34,2.06,2.06,0,0,1-.71.26,1.1,1.1,0,0,1-.58,0,.84.84,0,0,1-.42-.33A1.47,1.47,0,0,1,184.46,226Zm1.87-.37a2.27,2.27,0,0,0,.61-.5,2.61,2.61,0,0,0,.45-.65,2.41,2.41,0,0,0,.24-.73,2.55,2.55,0,0,0,0-.78l0-.3-1.11.89a4.39,4.39,0,0,0-.91.93,1.27,1.27,0,0,0-.26.89.63.63,0,0,0,.08.23.46.46,0,0,0,.2.16.48.48,0,0,0,.3,0A1.26,1.26,0,0,0,186.33,225.58Z"/><path class="cls-5" d="M191.26,221.46a2.15,2.15,0,0,0,.09.4.7.7,0,0,0,.17.27.39.39,0,0,0,.28.08,1.17,1.17,0,0,0,.42-.16l.51-.3a.21.21,0,0,1,.2,0,.25.25,0,0,1,.11.18l.05.38a.43.43,0,0,1,0,.27.38.38,0,0,1-.17.2l-.61.36c-.56.32-1,.37-1.29.16a1.9,1.9,0,0,1-.6-1.33l-.44-3.07-.71.41a.21.21,0,0,1-.2,0,.24.24,0,0,1-.11-.18l0-.38a.51.51,0,0,1,0-.27.49.49,0,0,1,.17-.2l.72-.41-.28-1.94a.51.51,0,0,1,0-.27.49.49,0,0,1,.17-.2l.36-.21a.21.21,0,0,1,.2,0,.25.25,0,0,1,.11.18l.27,1.94,1.23-.71a.21.21,0,0,1,.2,0,.24.24,0,0,1,.1.18l.06.38a.51.51,0,0,1,0,.27.43.43,0,0,1-.17.2l-1.23.71Z"/><path class="cls-5" d="M193.35,218.52a4.47,4.47,0,0,1,.06-1.15,4.6,4.6,0,0,1,.34-1.09,3.64,3.64,0,0,1,.59-.94,3,3,0,0,1,.84-.71,2.29,2.29,0,0,1,1-.33,1.27,1.27,0,0,1,.79.2,1.75,1.75,0,0,1,.58.69,4.11,4.11,0,0,1,.33,1.16l0,.32a.43.43,0,0,1,0,.27.42.42,0,0,1-.17.2l-3.32,1.92v.07a1.29,1.29,0,0,0,.58,1,1.05,1.05,0,0,0,1-.12,2.33,2.33,0,0,0,.77-.64,3.18,3.18,0,0,0,.37-.66,1.72,1.72,0,0,1,.12-.21.5.5,0,0,1,.17-.13l.29-.17a.21.21,0,0,1,.2,0,.19.19,0,0,1,.1.19,2.21,2.21,0,0,1-.09.56,2.94,2.94,0,0,1-.33.7,4.17,4.17,0,0,1-.58.74,3.69,3.69,0,0,1-.87.66,1.92,1.92,0,0,1-.9.3,1.28,1.28,0,0,1-.75-.19,1.64,1.64,0,0,1-.58-.59,3,3,0,0,1-.37-.95A6.23,6.23,0,0,1,193.35,218.52Zm.86-.46,2.71-1.57v0a1.16,1.16,0,0,0-.54-1,1.09,1.09,0,0,0-1,.14,2.24,2.24,0,0,0-.51.41,2.83,2.83,0,0,0-.38.57,2.72,2.72,0,0,0-.24,1.39Z"/><path class="cls-5" d="M201.25,216.26a2.63,2.63,0,0,1,0-.93,3.4,3.4,0,0,1,.33-.85,4.14,4.14,0,0,1,.58-.76,6.68,6.68,0,0,1,.73-.68l1.32-1.06,0-.16q-.09-.6-.45-.72a1.06,1.06,0,0,0-.85.16,1.71,1.71,0,0,0-.62.56,3.35,3.35,0,0,0-.3.67.75.75,0,0,1-.11.2.54.54,0,0,1-.18.14l-.29.17a.18.18,0,0,1-.2,0,.19.19,0,0,1-.1-.18,1.68,1.68,0,0,1,.09-.63,2.89,2.89,0,0,1,.33-.72,4.31,4.31,0,0,1,.54-.69,3,3,0,0,1,.69-.55,2.36,2.36,0,0,1,.83-.31,1.11,1.11,0,0,1,1.22.58,2.43,2.43,0,0,1,.29.92l.52,3.63a.45.45,0,0,1,0,.27.42.42,0,0,1-.17.2l-.36.2a.17.17,0,0,1-.19,0,.25.25,0,0,1-.11-.19l-.07-.48a1.81,1.81,0,0,1-.22.55,3.16,3.16,0,0,1-.37.53,5.21,5.21,0,0,1-.47.47,3.73,3.73,0,0,1-.47.33,1.9,1.9,0,0,1-.71.27,1.1,1.1,0,0,1-.58,0,.82.82,0,0,1-.41-.33A1.48,1.48,0,0,1,201.25,216.26Zm1.87-.38a2.68,2.68,0,0,0,.62-.49,2.76,2.76,0,0,0,.44-.65,2.47,2.47,0,0,0,.24-.74,2.27,2.27,0,0,0,0-.78l0-.29-1.11.88a4.67,4.67,0,0,0-.91.94,1.25,1.25,0,0,0-.26.88.43.43,0,0,0,.09.23.38.38,0,0,0,.19.16.48.48,0,0,0,.3,0A1.09,1.09,0,0,0,203.12,215.88Z"/><path class="cls-5" d="M214,210.58a.23.23,0,0,1-.24,0,.7.7,0,0,1-.19-.15l-4-4,.84,5.85a.46.46,0,0,1-.05.27.48.48,0,0,1-.17.2l-.39.22a.19.19,0,0,1-.2,0,.25.25,0,0,1-.11-.19l-1.1-7.67a.44.44,0,0,1,.05-.27.42.42,0,0,1,.17-.2l.34-.2a.23.23,0,0,1,.24,0,.9.9,0,0,1,.19.15l4,4-.84-5.85a.45.45,0,0,1,.05-.27.42.42,0,0,1,.17-.2l.39-.23a.21.21,0,0,1,.2,0,.25.25,0,0,1,.11.18l1.1,7.68a.56.56,0,0,1-.05.27.42.42,0,0,1-.17.2Z"/><path class="cls-5" d="M215.39,205.79a4.37,4.37,0,0,1,.06-1.14,4.68,4.68,0,0,1,.34-1.1,3.82,3.82,0,0,1,.59-.94,3.17,3.17,0,0,1,.84-.71,2.29,2.29,0,0,1,1-.33,1.25,1.25,0,0,1,.79.2,1.75,1.75,0,0,1,.58.69,4.21,4.21,0,0,1,.33,1.16l.05.32a.52.52,0,0,1-.05.27.45.45,0,0,1-.17.21l-3.32,1.91v.07a1.27,1.27,0,0,0,.58,1,1,1,0,0,0,1-.11,2.35,2.35,0,0,0,.77-.65,2.89,2.89,0,0,0,.37-.65.9.9,0,0,1,.12-.21.51.51,0,0,1,.17-.14l.29-.17a.21.21,0,0,1,.2,0,.17.17,0,0,1,.1.18,1.85,1.85,0,0,1-.09.57,3.86,3.86,0,0,1-.32.7,5.3,5.3,0,0,1-.59.74,4.32,4.32,0,0,1-.87.66,2,2,0,0,1-.9.29,1.37,1.37,0,0,1-.75-.18,1.73,1.73,0,0,1-.58-.59,3,3,0,0,1-.37-1A6.1,6.1,0,0,1,215.39,205.79Zm.86-.46,2.71-1.56v0a1.16,1.16,0,0,0-.54-.94,1.07,1.07,0,0,0-1,.14,1.81,1.81,0,0,0-.51.41,2.83,2.83,0,0,0-.38.57,2.39,2.39,0,0,0-.21.67,2.48,2.48,0,0,0,0,.72Z"/><path class="cls-5" d="M225.82,201.67l.51-4.59a.79.79,0,0,1,.08-.25.53.53,0,0,1,.2-.22l.32-.18a.17.17,0,0,1,.18,0,.22.22,0,0,1,.09.17.31.31,0,0,1,0,.1l-.69,6.31a2.21,2.21,0,0,1-.07.3.35.35,0,0,1-.18.2l-.29.18c-.09,0-.16.05-.21,0a.56.56,0,0,1-.14-.16l-1.71-3.29-.59,4.61a1.32,1.32,0,0,1-.08.3.39.39,0,0,1-.17.21l-.3.17a.17.17,0,0,1-.2,0,.54.54,0,0,1-.14-.18l-2.25-4.61,0-.09a.51.51,0,0,1,0-.24.45.45,0,0,1,.15-.18l.32-.18q.15-.09.24,0a.27.27,0,0,1,.13.13l1.65,3.34.59-4.64a1.4,1.4,0,0,1,.06-.24.41.41,0,0,1,.2-.21l.21-.13c.1,0,.17-.06.22,0a.41.41,0,0,1,.12.14Z"/><path class="cls-5" d="M235,196.45l-3.35,1.93-.28,1.87a1,1,0,0,1-.07.26.57.57,0,0,1-.26.25l-.36.21a.15.15,0,0,1-.16,0,.2.2,0,0,1-.09-.15.8.8,0,0,1,0-.19l1.29-8.86a1.33,1.33,0,0,1,.11-.34.6.6,0,0,1,.27-.3l.58-.33a.27.27,0,0,1,.3,0,.66.66,0,0,1,.19.18l3.42,6.14a.37.37,0,0,1,.07.14.45.45,0,0,1,0,.22.32.32,0,0,1-.14.16l-.36.21c-.12.07-.22.09-.28.05a.35.35,0,0,1-.14-.13Zm-3.17.67,2.68-1.55-1.94-3.47Z"/><path class="cls-5" d="M237.77,194a2,2,0,0,0,.28.72,1,1,0,0,0,.4.36.8.8,0,0,0,.46.07,1.3,1.3,0,0,0,.49-.17,2.47,2.47,0,0,0,.76-.67,2.5,2.5,0,0,0,.41-1,1.06,1.06,0,0,1,.1-.34.44.44,0,0,1,.17-.16l.29-.17a.18.18,0,0,1,.2,0,.19.19,0,0,1,.11.18,2.34,2.34,0,0,1-.06.71,3.35,3.35,0,0,1-.33.87,4.74,4.74,0,0,1-.6.88,3.32,3.32,0,0,1-.91.74,2.15,2.15,0,0,1-1,.33,1.32,1.32,0,0,1-.77-.18,1.6,1.6,0,0,1-.57-.61,2.78,2.78,0,0,1-.33-1,3.29,3.29,0,0,1-.08-.46,3.25,3.25,0,0,1-.06-.49,5.83,5.83,0,0,1,0-1.18,4.53,4.53,0,0,1,.32-1.12,3.8,3.8,0,0,1,.6-1,3.18,3.18,0,0,1,.91-.75,2.19,2.19,0,0,1,1-.34,1.73,1.73,0,0,1,.74.1,1.25,1.25,0,0,1,.51.39,1.52,1.52,0,0,1,.24.54.53.53,0,0,1,0,.27.51.51,0,0,1-.18.2l-.29.17a.28.28,0,0,1-.19,0,.42.42,0,0,1-.17-.18.83.83,0,0,0-.62-.42,1.53,1.53,0,0,0-.82.25,2.14,2.14,0,0,0-.84.93,3.13,3.13,0,0,0-.24.73,3,3,0,0,0,0,.9A4.86,4.86,0,0,0,237.77,194Z"/><path class="cls-5" d="M243.12,190.87a2.12,2.12,0,0,0,.28.72,1,1,0,0,0,.4.36.82.82,0,0,0,.47.07,1.32,1.32,0,0,0,.48-.17,2.47,2.47,0,0,0,.76-.67,2.36,2.36,0,0,0,.41-1,1.28,1.28,0,0,1,.1-.34.52.52,0,0,1,.17-.16l.29-.17a.23.23,0,0,1,.21,0,.24.24,0,0,1,.1.19,2.34,2.34,0,0,1-.06.71,3.35,3.35,0,0,1-.33.87,4.3,4.3,0,0,1-.6.88,3.43,3.43,0,0,1-.9.74,2.38,2.38,0,0,1-1,.33,1.41,1.41,0,0,1-.78-.18,1.6,1.6,0,0,1-.57-.61,3.35,3.35,0,0,1-.33-1l-.08-.46c0-.18,0-.35-.06-.49a5.8,5.8,0,0,1,0-1.18,4.52,4.52,0,0,1,.31-1.12,3.8,3.8,0,0,1,.6-1,3.32,3.32,0,0,1,.91-.75,2.19,2.19,0,0,1,1-.34,1.63,1.63,0,0,1,.75.1,1.15,1.15,0,0,1,.5.39,1.24,1.24,0,0,1,.24.54.45.45,0,0,1,0,.27.51.51,0,0,1-.18.2l-.28.17a.29.29,0,0,1-.19,0,.38.38,0,0,1-.18-.18.81.81,0,0,0-.61-.42,1.51,1.51,0,0,0-.82.25,2.24,2.24,0,0,0-.47.37,2.89,2.89,0,0,0-.38.56,3.68,3.68,0,0,0-.24.73,3.3,3.3,0,0,0,0,.9A4.72,4.72,0,0,0,243.12,190.87Z"/><path class="cls-5" d="M249.36,183.35a2.32,2.32,0,0,1,1-.34,1.32,1.32,0,0,1,.77.14,1.58,1.58,0,0,1,.58.57,3.7,3.7,0,0,1,.36,1c0,.06,0,.15,0,.25s0,.2.05.3,0,.22,0,.32,0,.18,0,.24a6,6,0,0,1-.06,1.21,4,4,0,0,1-.33,1.09,4.14,4.14,0,0,1-.62.94,3.39,3.39,0,0,1-.9.73,2.33,2.33,0,0,1-.95.34,1.35,1.35,0,0,1-.78-.14,1.55,1.55,0,0,1-.57-.57,3,3,0,0,1-.36-1,1,1,0,0,1-.05-.23,2.87,2.87,0,0,1,0-.31c0-.1,0-.21,0-.31s0-.19,0-.26a4.38,4.38,0,0,1,0-1.2,4,4,0,0,1,.34-1.1,3.89,3.89,0,0,1,.61-.94A3.39,3.39,0,0,1,249.36,183.35Zm1.94,2.89c0-.14,0-.31-.05-.5s-.06-.36-.09-.5a2.9,2.9,0,0,0-.22-.59,1.08,1.08,0,0,0-.35-.38.83.83,0,0,0-.48-.11,1.4,1.4,0,0,0-.6.21,2,2,0,0,0-.57.47,2.07,2.07,0,0,0-.37.6,2.73,2.73,0,0,0-.2.69,4.54,4.54,0,0,0,0,.74q0,.23.06.51a3.85,3.85,0,0,0,.08.49,2.42,2.42,0,0,0,.23.59.91.91,0,0,0,.34.38.85.85,0,0,0,.48.11,1.35,1.35,0,0,0,.6-.21,2,2,0,0,0,.57-.47,2.35,2.35,0,0,0,.38-.6,2.72,2.72,0,0,0,.19-.69A3.06,3.06,0,0,0,251.3,186.24Z"/><path class="cls-5" d="M252.89,181.79a.49.49,0,0,1,.21-.47l.36-.21a.21.21,0,0,1,.2,0,.24.24,0,0,1,.11.18l.44,3.14a1.64,1.64,0,0,0,.53,1.17,1,1,0,0,0,1-.11,2.07,2.07,0,0,0,.89-1,2.84,2.84,0,0,0,.15-1.57l-.45-3.13a.51.51,0,0,1,0-.27.43.43,0,0,1,.17-.2l.36-.21a.21.21,0,0,1,.2,0,.21.21,0,0,1,.11.18l.79,5.54a.46.46,0,0,1-.05.27.41.41,0,0,1-.16.2l-.36.2a.18.18,0,0,1-.2,0,.24.24,0,0,1-.11-.18l-.05-.37a3.69,3.69,0,0,1-.44.86,2.67,2.67,0,0,1-.89.79,2.09,2.09,0,0,1-.86.29,1.16,1.16,0,0,1-.72-.15,1.34,1.34,0,0,1-.53-.59,3,3,0,0,1-.31-1Z"/><path class="cls-5" d="M263.94,181.4a.44.44,0,0,1,0,.27.42.42,0,0,1-.17.2l-.36.2a.17.17,0,0,1-.19,0,.22.22,0,0,1-.11-.19l-.45-3.13a1.53,1.53,0,0,0-.55-1.16,1,1,0,0,0-1.06.12,2.18,2.18,0,0,0-.92,1,2.79,2.79,0,0,0-.17,1.58l.44,3.13a.43.43,0,0,1,0,.27.45.45,0,0,1-.17.21l-.36.2a.17.17,0,0,1-.19,0,.21.21,0,0,1-.11-.18l-.8-5.53a.52.52,0,0,1,.05-.27.45.45,0,0,1,.17-.21l.36-.2a.17.17,0,0,1,.19,0,.21.21,0,0,1,.11.18l.05.37a3.76,3.76,0,0,1,.47-.87,2.75,2.75,0,0,1,.91-.8,2.06,2.06,0,0,1,.87-.3,1.22,1.22,0,0,1,.74.14,1.42,1.42,0,0,1,.54.59,2.79,2.79,0,0,1,.32,1Z"/><path class="cls-5" d="M266.33,178.12a2.15,2.15,0,0,0,.09.4.6.6,0,0,0,.17.27.36.36,0,0,0,.28.08,1.25,1.25,0,0,0,.42-.16l.51-.3a.21.21,0,0,1,.2,0,.24.24,0,0,1,.1.18l.06.38a.44.44,0,0,1-.05.27.4.4,0,0,1-.17.21l-.6.35c-.56.32-1,.38-1.3.16a1.86,1.86,0,0,1-.59-1.32l-.44-3.08-.72.41a.17.17,0,0,1-.19,0,.21.21,0,0,1-.11-.18l-.06-.38a.52.52,0,0,1,.05-.27.42.42,0,0,1,.17-.2l.71-.41-.28-1.94a.52.52,0,0,1,.05-.27.42.42,0,0,1,.17-.2l.36-.21a.19.19,0,0,1,.19,0,.25.25,0,0,1,.11.18l.28,1.94,1.22-.71a.21.21,0,0,1,.2,0,.25.25,0,0,1,.11.18l.05.38a.43.43,0,0,1,0,.27.41.41,0,0,1-.17.21l-1.22.7Z"/><path class="cls-5" d="M271.43,169.37a.51.51,0,0,1,0,.27.42.42,0,0,1-.17.2l-.55.32a.21.21,0,0,1-.2,0,.21.21,0,0,1-.11-.18l-.1-.68a.52.52,0,0,1,.05-.27.42.42,0,0,1,.17-.2l.55-.32a.21.21,0,0,1,.2,0,.24.24,0,0,1,.1.18Zm.93,7.17a.52.52,0,0,1-.05.27.38.38,0,0,1-.17.2l-.36.21a.19.19,0,0,1-.19,0,.21.21,0,0,1-.11-.18l-.8-5.54a.56.56,0,0,1,.05-.27.42.42,0,0,1,.17-.2l.36-.2a.17.17,0,0,1,.19,0,.21.21,0,0,1,.11.18Z"/><path class="cls-5" d="M276.46,172.67a.43.43,0,0,0-.16-.32.55.55,0,0,0-.34-.08,2.87,2.87,0,0,0-.54.1l-.76.22a1.1,1.1,0,0,1-1.66-1,2.31,2.31,0,0,1,0-.74,2.65,2.65,0,0,1,.26-.78,3.17,3.17,0,0,1,.53-.72,3.62,3.62,0,0,1,.8-.62,3,3,0,0,1,.85-.35,1.54,1.54,0,0,1,.64,0,.93.93,0,0,1,.43.22.79.79,0,0,1,.2.37.44.44,0,0,1,0,.27.51.51,0,0,1-.18.2l-.32.19a.38.38,0,0,1-.14.05.23.23,0,0,1-.17-.05.6.6,0,0,0-.42-.13,1.64,1.64,0,0,0-.7.26,2.19,2.19,0,0,0-.69.62,1,1,0,0,0-.19.71.5.5,0,0,0,.13.32.39.39,0,0,0,.28.09,1.59,1.59,0,0,0,.48-.08l.74-.2a2.27,2.27,0,0,1,.79-.13,1.08,1.08,0,0,1,.54.14.77.77,0,0,1,.33.36,1.71,1.71,0,0,1,.17.54,2,2,0,0,1,0,.77,2.77,2.77,0,0,1-.31.81,3.46,3.46,0,0,1-.58.77,3.28,3.28,0,0,1-.82.64,2.6,2.6,0,0,1-.86.35,1.9,1.9,0,0,1-.67,0,.94.94,0,0,1-.47-.22.64.64,0,0,1-.21-.37.42.42,0,0,1,0-.27.39.39,0,0,1,.18-.2l.35-.2a.31.31,0,0,1,.13-.06.15.15,0,0,1,.17.05.67.67,0,0,0,.48.16,1.74,1.74,0,0,0,.73-.27,2.67,2.67,0,0,0,.41-.3,2.43,2.43,0,0,0,.34-.38,1.44,1.44,0,0,0,.22-.4A.87.87,0,0,0,276.46,172.67Z"/><path class="cls-5" d="M284.09,161.11a.19.19,0,0,1,.19,0,.24.24,0,0,1,.12.18l.06.43a.52.52,0,0,1,0,.27.42.42,0,0,1-.17.2L281.07,164l.39,2.75,3-1.72a.18.18,0,0,1,.2,0,.24.24,0,0,1,.11.18l.06.42a.44.44,0,0,1-.05.27.41.41,0,0,1-.17.21l-3,1.72.45,3.11a.44.44,0,0,1-.05.27.38.38,0,0,1-.17.2l-.39.23a.21.21,0,0,1-.2,0,.24.24,0,0,1-.11-.18l-1.1-7.68a.56.56,0,0,1,0-.27.42.42,0,0,1,.17-.2Z"/><path class="cls-5" d="M288.15,161.08a.18.18,0,0,1,.2,0,.21.21,0,0,1,.11.18l.06.38a.52.52,0,0,1,0,.27.42.42,0,0,1-.17.2l-.56.32a1.82,1.82,0,0,0-.91,2l.49,3.47a.43.43,0,0,1,0,.27.42.42,0,0,1-.17.2l-.36.21a.19.19,0,0,1-.19,0,.25.25,0,0,1-.11-.18l-.8-5.54a.52.52,0,0,1,.05-.27.42.42,0,0,1,.17-.2l.36-.21a.19.19,0,0,1,.19,0,.25.25,0,0,1,.11.18l.05.37a2.77,2.77,0,0,1,.39-.79,2.45,2.45,0,0,1,.68-.57Z"/><path class="cls-5" d="M289.27,163.13a4.86,4.86,0,0,1,.07-1.14,4.46,4.46,0,0,1,.34-1.09,3.6,3.6,0,0,1,.59-1,3.37,3.37,0,0,1,.84-.71,2.13,2.13,0,0,1,1-.32,1.26,1.26,0,0,1,.79.19,1.72,1.72,0,0,1,.58.7,4,4,0,0,1,.33,1.15l0,.32a.43.43,0,0,1,0,.27.45.45,0,0,1-.17.21l-3.32,1.91v.07a1.25,1.25,0,0,0,.58,1,1,1,0,0,0,1-.11,2.46,2.46,0,0,0,.77-.64,3.18,3.18,0,0,0,.37-.66.64.64,0,0,1,.12-.21.51.51,0,0,1,.17-.14l.29-.16a.19.19,0,0,1,.2,0,.17.17,0,0,1,.1.18,2.22,2.22,0,0,1-.09.57,3.13,3.13,0,0,1-.33.7,4.17,4.17,0,0,1-.58.74,4.32,4.32,0,0,1-.87.66,1.89,1.89,0,0,1-.9.29,1.35,1.35,0,0,1-.75-.18,1.64,1.64,0,0,1-.58-.59,3,3,0,0,1-.37-1A6.33,6.33,0,0,1,289.27,163.13Zm.87-.46,2.71-1.56v0a1.15,1.15,0,0,0-.53-.94,1.07,1.07,0,0,0-1.05.14,1.81,1.81,0,0,0-.51.41,2.83,2.83,0,0,0-.38.57,2.39,2.39,0,0,0-.21.67,2.49,2.49,0,0,0,0,.72Z"/><path class="cls-5" d="M294.65,160a4.37,4.37,0,0,1,.06-1.14,5,5,0,0,1,.34-1.1,3.82,3.82,0,0,1,.59-.94,3.17,3.17,0,0,1,.84-.71,2.29,2.29,0,0,1,1-.33,1.25,1.25,0,0,1,.79.2,1.75,1.75,0,0,1,.58.69,4.21,4.21,0,0,1,.33,1.16l.05.32a.52.52,0,0,1-.05.27.38.38,0,0,1-.17.2l-3.32,1.92v.07a1.27,1.27,0,0,0,.58,1,1,1,0,0,0,1-.11,2.35,2.35,0,0,0,.77-.65,2.74,2.74,0,0,0,.37-.66l.12-.2a.63.63,0,0,1,.17-.14l.29-.17a.22.22,0,0,1,.21,0,.18.18,0,0,1,.09.18,1.85,1.85,0,0,1-.09.57,3.28,3.28,0,0,1-.32.7,4.2,4.2,0,0,1-.59.73,4,4,0,0,1-.87.67,2,2,0,0,1-.9.29,1.39,1.39,0,0,1-.75-.18,1.73,1.73,0,0,1-.58-.59,3.37,3.37,0,0,1-.37-1A6.23,6.23,0,0,1,294.65,160Zm.86-.46,2.71-1.56v0a1.14,1.14,0,0,0-.54-.94,1.09,1.09,0,0,0-1.05.13,2,2,0,0,0-.51.42,2.37,2.37,0,0,0-.37.56,2.26,2.26,0,0,0-.22.68,2.46,2.46,0,0,0,0,.72Z"/><path class="cls-21" d="M301.54,176.15,171.71,251a2.22,2.22,0,0,0-1,2l.46,3.15,1.78,12.44c.1.72.73,1,1.41.6l129.82-74.86a2.19,2.19,0,0,0,1-2L303,176.75A.86.86,0,0,0,301.54,176.15Z"/><g id="Button"><g id="Shadow-5" data-name="Shadow" class="cls-22"><path d="M178.11,307.41l134.44-77.54c.62-.36,1.19-.11,1.28.54L316.35,248a2,2,0,0,1-.94,1.83L181,327.36c-.62.36-1.19.11-1.28-.54l-2.52-17.58A2,2,0,0,1,178.11,307.41Z"/></g><g id="Speech_Bubble" data-name="Speech Bubble"><path class="cls-13" d="M311.5,234.44,181.68,309.31a2.16,2.16,0,0,0-1,2l2.23,15.6a2.78,2.78,0,0,0,1.61,1.89l2.68,1.12a3.39,3.39,0,0,0,2.64-.12l129.83-74.87a2.17,2.17,0,0,0,1-2l-2.23-15.6a2.79,2.79,0,0,0-1.6-1.89l-2.69-1.12A3.39,3.39,0,0,0,311.5,234.44Z"/><path class="cls-23" d="M189.8,329.81a3.45,3.45,0,0,1-2.64.12l-2.68-1.12a2.76,2.76,0,0,1-1.61-1.89l-2.23-15.6a1.91,1.91,0,0,1,.25-1.17l5.5,2.33a1.79,1.79,0,0,0-.23,1.13l2.23,15.6A.86.86,0,0,0,189.8,329.81Z"/><path class="cls-23" d="M318.38,237.13a.86.86,0,0,0-1.36-.4L187.2,311.6a2.15,2.15,0,0,0-.81.88l-5.5-2.33a2,2,0,0,1,.79-.84L311.5,234.44a3.39,3.39,0,0,1,2.64-.12l2.68,1.12A2.9,2.9,0,0,1,318.38,237.13Z"/><path class="cls-13" d="M317,236.74,187.19,311.6a2.17,2.17,0,0,0-1,2l.45,3.16,1.78,12.44c.1.72.73,1,1.41.6l129.83-74.87a2.17,2.17,0,0,0,1-2l-2.23-15.6C318.33,236.61,317.69,236.35,317,236.74Z"/><path class="cls-7" d="M317,236.74,187.19,311.6a2.17,2.17,0,0,0-1,2l.45,3.16,1.78,12.44c.1.72.73,1,1.41.6l129.83-74.87a2.17,2.17,0,0,0,1-2l-2.23-15.6C318.33,236.61,317.69,236.35,317,236.74Z"/></g><path class="cls-24" d="M232.07,291.19a2.27,2.27,0,0,1,2-.39,1.93,1.93,0,0,1,1,1.63,4.27,4.27,0,0,1-.12,1.75,4,4,0,0,1-.86,1.53l1.84,2.28a.31.31,0,0,1,.05.12.39.39,0,0,1,0,.23.36.36,0,0,1-.15.17l-.86.5c-.13.08-.24.1-.31.05a.49.49,0,0,1-.17-.14l-1.74-2.14-1.35.78.41,2.91a.47.47,0,0,1-.05.28.41.41,0,0,1-.17.21l-.82.48a.2.2,0,0,1-.21,0,.27.27,0,0,1-.12-.19l-1.15-8.07a.48.48,0,0,1,.05-.28.41.41,0,0,1,.17-.21Zm-1,4.81,1.47-.85a2.64,2.64,0,0,0,.89-.78,1.59,1.59,0,0,0,.21-1.15c-.07-.46-.23-.71-.48-.74a1.79,1.79,0,0,0-1,.3l-1.47.85Z"/><path class="cls-24" d="M241.73,293.39a.18.18,0,0,1,.2,0c.07,0,.1.09.12.19l.12.88a.49.49,0,0,1,0,.29.54.54,0,0,1-.18.21l-4.45,2.57a.22.22,0,0,1-.21,0,.25.25,0,0,1-.11-.19L236,289.27a.48.48,0,0,1,0-.28.38.38,0,0,1,.18-.21l4.37-2.52a.19.19,0,0,1,.2,0,.26.26,0,0,1,.12.19l.13.89a.61.61,0,0,1,0,.29.63.63,0,0,1-.18.21l-3.28,1.89.29,2,3.05-1.76a.2.2,0,0,1,.21,0,.25.25,0,0,1,.11.19l.13.89a.48.48,0,0,1,0,.28.38.38,0,0,1-.18.21l-3.05,1.76.3,2.08Z"/><path class="cls-24" d="M242.38,288.74a5.78,5.78,0,0,1,0-1.5,5,5,0,0,1,.44-1.4,5,5,0,0,1,.85-1.23,5.41,5.41,0,0,1,1.28-1,3.7,3.7,0,0,1,1.49-.56,1.85,1.85,0,0,1,1,.15,1.39,1.39,0,0,1,.59.53,2,2,0,0,1,.26.62.4.4,0,0,1,0,.28.48.48,0,0,1-.18.21l-.82.48a.23.23,0,0,1-.19,0,.27.27,0,0,1-.12-.09l-.14-.15a.77.77,0,0,0-.32-.2,1.48,1.48,0,0,0-.54,0,2,2,0,0,0-.78.3,2.72,2.72,0,0,0-1.14,1.21,2.86,2.86,0,0,0-.3,1.63c0,.33.08.67.13,1s.11.7.17,1c.11.68.35,1.08.7,1.22A1.48,1.48,0,0,0,246,291a3.85,3.85,0,0,0,.68-.5,2.53,2.53,0,0,0,.76-1.44,3.15,3.15,0,0,0,0-1l0-.1-1.23.71a.2.2,0,0,1-.21,0,.25.25,0,0,1-.11-.19l-.13-.89a.48.48,0,0,1,0-.28.41.41,0,0,1,.17-.21l2.34-1.35a.21.21,0,0,1,.2,0,.26.26,0,0,1,.12.19l.19,1.37a5,5,0,0,1,0,1.5,5.15,5.15,0,0,1-.42,1.42,5.22,5.22,0,0,1-.86,1.26,5.52,5.52,0,0,1-1.32,1,3.86,3.86,0,0,1-1.37.52,1.76,1.76,0,0,1-1-.15,1.79,1.79,0,0,1-.73-.76,4.08,4.08,0,0,1-.42-1.25q0-.22-.09-.51l-.09-.59c0-.2,0-.39-.07-.59S242.39,288.9,242.38,288.74Z"/><path class="cls-24" d="M250.87,289.8a.22.22,0,0,1-.21,0,.25.25,0,0,1-.11-.19l-1.16-8.07a.58.58,0,0,1,.05-.28.38.38,0,0,1,.18-.21l.82-.48a.22.22,0,0,1,.21,0,.25.25,0,0,1,.11.19l1.16,8.07a.58.58,0,0,1,0,.28.48.48,0,0,1-.18.21Z"/><path class="cls-24" d="M254.71,278a3.42,3.42,0,0,1,1.23-.46,2,2,0,0,1,.94.06,1.36,1.36,0,0,1,.63.44,1.54,1.54,0,0,1,.31.66.4.4,0,0,1-.05.28.38.38,0,0,1-.18.21l-.71.41a.34.34,0,0,1-.27.07.43.43,0,0,1-.19-.13.83.83,0,0,0-.54-.27,1.56,1.56,0,0,0-.95.3,3.36,3.36,0,0,0-.49.35,3.16,3.16,0,0,0-.39.44,2.1,2.1,0,0,0-.23.48,1.15,1.15,0,0,0,0,.48.78.78,0,0,0,.16.42.51.51,0,0,0,.37.12,2.51,2.51,0,0,0,.64-.1l1-.28a4.84,4.84,0,0,1,1.1-.22,1.66,1.66,0,0,1,.8.1,1.24,1.24,0,0,1,.52.47,2.19,2.19,0,0,1,.26.83,3,3,0,0,1-.05,1.16,4,4,0,0,1-.46,1.16,5.85,5.85,0,0,1-.84,1.08,6.07,6.07,0,0,1-1.2.9,4.29,4.29,0,0,1-1.11.46,2.24,2.24,0,0,1-1,0,1.36,1.36,0,0,1-.75-.39,1.6,1.6,0,0,1-.42-.84.42.42,0,0,1,0-.29.49.49,0,0,1,.19-.21l.71-.41a.47.47,0,0,1,.27-.08.34.34,0,0,1,.18.14,2.39,2.39,0,0,0,.22.23.66.66,0,0,0,.32.13,1.34,1.34,0,0,0,.46-.05,2.33,2.33,0,0,0,.65-.29,3.92,3.92,0,0,0,.58-.39,2.65,2.65,0,0,0,.47-.48,2.12,2.12,0,0,0,.3-.52,1.07,1.07,0,0,0,.06-.56.47.47,0,0,0-.2-.37.84.84,0,0,0-.47-.05,5,5,0,0,0-.75.18l-1,.28a3.93,3.93,0,0,1-.94.16,1.42,1.42,0,0,1-.7-.15,1.12,1.12,0,0,1-.47-.49,2.85,2.85,0,0,1-.26-.9,3.22,3.22,0,0,1,.06-1.15,4,4,0,0,1,.44-1.13,4.88,4.88,0,0,1,.77-1A4.72,4.72,0,0,1,254.71,278Z"/><path class="cls-24" d="M263.52,273a.21.21,0,0,1,.2,0,.23.23,0,0,1,.12.19l.13.89a.56.56,0,0,1-.05.28.42.42,0,0,1-.18.21l-1.82,1.06,1,6.84a.56.56,0,0,1,0,.28.48.48,0,0,1-.18.21l-.82.48a.2.2,0,0,1-.21,0,.25.25,0,0,1-.11-.19l-1-6.84-1.83,1.05a.18.18,0,0,1-.2,0,.22.22,0,0,1-.12-.19l-.13-.88a.59.59,0,0,1,.05-.29.38.38,0,0,1,.18-.21Z"/><path class="cls-24" d="M270.56,276.74a.18.18,0,0,1,.2,0,.23.23,0,0,1,.12.19l.13.89a.58.58,0,0,1-.05.28.48.48,0,0,1-.18.21l-4.45,2.57a.2.2,0,0,1-.21,0,.23.23,0,0,1-.11-.19l-1.16-8.06a.61.61,0,0,1,0-.29.46.46,0,0,1,.18-.21l4.37-2.52a.18.18,0,0,1,.2,0,.22.22,0,0,1,.12.19l.13.88a.59.59,0,0,1,0,.29.38.38,0,0,1-.18.21l-3.27,1.89.28,2,3.05-1.77a.23.23,0,0,1,.21,0,.25.25,0,0,1,.11.19l.13.89a.47.47,0,0,1-.05.28.41.41,0,0,1-.17.21l-3.06,1.77.3,2.07Z"/><path class="cls-24" d="M274,267a2.27,2.27,0,0,1,2-.39,1.93,1.93,0,0,1,.95,1.63,4.27,4.27,0,0,1-.12,1.75,4.14,4.14,0,0,1-.86,1.54l1.84,2.27a.61.61,0,0,1,0,.12.39.39,0,0,1,0,.23.36.36,0,0,1-.15.17l-.86.5c-.13.08-.24.1-.31.05a.4.4,0,0,1-.17-.13l-1.75-2.15-1.35.78.42,2.91a.56.56,0,0,1-.22.5l-.83.47a.18.18,0,0,1-.2,0,.24.24,0,0,1-.12-.19L271.11,269a.49.49,0,0,1,0-.29.48.48,0,0,1,.18-.21Zm-1,4.81,1.47-.85a2.64,2.64,0,0,0,.89-.78,1.64,1.64,0,0,0,.21-1.15c-.07-.46-.23-.71-.48-.74a1.79,1.79,0,0,0-1,.3l-1.47.85Z"/></g><path class="cls-21" d="M306.19,204.34,176.37,279.21a2.16,2.16,0,0,0-1,2l.45,3.16,1.78,12.44a.86.86,0,0,0,1.41.6L308.8,222.55a2.17,2.17,0,0,0,1-2l-2.23-15.6C307.5,204.22,306.87,204,306.19,204.34Z"/><path class="cls-11" d="M205.56,243.9a.18.18,0,0,1,.29.15l.06.39a.47.47,0,0,1,0,.25.38.38,0,0,1-.16.19l-3.79,2.19a.19.19,0,0,1-.19,0,.19.19,0,0,1-.11-.16l-1-7a.37.37,0,0,1,0-.25.4.4,0,0,1,.17-.19l3.71-2.15a.19.19,0,0,1,.19,0,.18.18,0,0,1,.1.16l.06.39a.44.44,0,0,1,0,.25.46.46,0,0,1-.17.19l-3.08,1.78.33,2.3,2.87-1.66a.19.19,0,0,1,.19,0,.21.21,0,0,1,.11.17l.06.39a.47.47,0,0,1-.05.25.4.4,0,0,1-.17.19l-2.87,1.65.34,2.39Z"/><path class="cls-11" d="M211.39,241.27a.44.44,0,0,1,0,.25.4.4,0,0,1-.17.19l-.34.2a.18.18,0,0,1-.3-.14l-.41-2.88a1.31,1.31,0,0,0-.53-1,1.06,1.06,0,0,0-1,.14,2.15,2.15,0,0,0-.89,1,2.4,2.4,0,0,0-.19,1.46l.41,2.87a.37.37,0,0,1,0,.25.4.4,0,0,1-.17.19l-.34.2a.19.19,0,0,1-.19,0,.21.21,0,0,1-.11-.17l-.73-5.07a.47.47,0,0,1,0-.25.4.4,0,0,1,.17-.19l.34-.2a.22.22,0,0,1,.19,0,.21.21,0,0,1,.11.17l.05.34a3.39,3.39,0,0,1,.45-.82,3,3,0,0,1,.89-.77,2.67,2.67,0,0,1,.84-.3,1.31,1.31,0,0,1,.72.11,1.33,1.33,0,0,1,.52.53,2.6,2.6,0,0,1,.3.94Z"/><path class="cls-11" d="M213.72,238.18a1.82,1.82,0,0,0,.09.37.57.57,0,0,0,.16.25.39.39,0,0,0,.27.06,1.36,1.36,0,0,0,.41-.16l.5-.29a.22.22,0,0,1,.19,0,.2.2,0,0,1,.1.17l.05.35a.45.45,0,0,1,0,.25.53.53,0,0,1-.17.19l-.59.34c-.54.31-1,.38-1.25.19a1.64,1.64,0,0,1-.57-1.2l-.4-2.82-.7.4a.19.19,0,0,1-.19,0,.18.18,0,0,1-.1-.16l0-.35a.45.45,0,0,1,0-.25.4.4,0,0,1,.17-.19l.69-.4-.25-1.78a.45.45,0,0,1,0-.25.37.37,0,0,1,.17-.18l.35-.2a.17.17,0,0,1,.19,0,.18.18,0,0,1,.1.16l.26,1.78,1.19-.69a.21.21,0,0,1,.19,0,.2.2,0,0,1,.1.17l.05.35a.41.41,0,0,1,0,.24.49.49,0,0,1-.17.2l-1.19.68Z"/><path class="cls-11" d="M215.76,235.41a4.16,4.16,0,0,1,.07-1,4.89,4.89,0,0,1,.34-1,4,4,0,0,1,.57-.89,3.18,3.18,0,0,1,.83-.67,2.14,2.14,0,0,1,.93-.33,1.22,1.22,0,0,1,.76.15,1.56,1.56,0,0,1,.55.63,3.17,3.17,0,0,1,.32,1.05l0,.3a.39.39,0,0,1,0,.25.43.43,0,0,1-.16.19l-3.23,1.86V236a1.12,1.12,0,0,0,.55.91,1.08,1.08,0,0,0,1-.14,2.38,2.38,0,0,0,.74-.61,3.16,3.16,0,0,0,.37-.62,1,1,0,0,1,.11-.19.63.63,0,0,1,.17-.14L220,235a.24.24,0,0,1,.2,0,.17.17,0,0,1,.09.17,1.89,1.89,0,0,1-.09.52,3.31,3.31,0,0,1-.32.66,4.33,4.33,0,0,1-.57.69,4,4,0,0,1-.85.64,2.06,2.06,0,0,1-.87.3,1.47,1.47,0,0,1-.73-.15,1.56,1.56,0,0,1-.56-.53,2.5,2.5,0,0,1-.34-.86A5.34,5.34,0,0,1,215.76,235.41Zm.84-.45,2.64-1.52v0a1,1,0,0,0-.51-.85,1.07,1.07,0,0,0-1,.16,2,2,0,0,0-.49.39,2.4,2.4,0,0,0-.37.53,2.77,2.77,0,0,0-.22.63,2.09,2.09,0,0,0,0,.66Z"/><path class="cls-11" d="M223.36,228.55a.19.19,0,0,1,.19,0,.18.18,0,0,1,.1.16l0,.35a.38.38,0,0,1,0,.25.4.4,0,0,1-.17.19l-.54.31a1.72,1.72,0,0,0-.9,1.88l.46,3.18a.47.47,0,0,1,0,.25.45.45,0,0,1-.17.19l-.34.2a.19.19,0,0,1-.19,0,.18.18,0,0,1-.11-.16l-.72-5.07a.37.37,0,0,1,0-.25.4.4,0,0,1,.17-.19l.34-.2a.19.19,0,0,1,.19,0,.19.19,0,0,1,.11.16l.05.34a2.35,2.35,0,0,1,.38-.74,2.47,2.47,0,0,1,.66-.55Z"/><path class="cls-11" d="M228.76,233.52a.75.75,0,0,1-.07.23.38.38,0,0,1-.16.19l-.39.22a.18.18,0,0,1-.17,0,.2.2,0,0,1-.09-.15s0-.06,0-.08l.57-2.8-2.54-3.7s0,0,0-.07a.38.38,0,0,1,0-.23.5.5,0,0,1,.15-.17l.38-.22c.08,0,.14,0,.19,0a.28.28,0,0,1,.12.12l2,2.86.93-4.54a.75.75,0,0,1,.07-.23.38.38,0,0,1,.16-.19l.39-.22a.18.18,0,0,1,.17,0,.2.2,0,0,1,.09.15.11.11,0,0,1,0,.08Z"/><path class="cls-11" d="M233.27,222.71a2.36,2.36,0,0,1,.93-.34,1.23,1.23,0,0,1,1.3.62,2.68,2.68,0,0,1,.35.87c0,.06,0,.13,0,.22a2.89,2.89,0,0,0,0,.29c0,.09,0,.19,0,.28s0,.17,0,.23a5.1,5.1,0,0,1-.06,1.11,4.35,4.35,0,0,1-.33,1,4,4,0,0,1-.61.88,3.52,3.52,0,0,1-.87.7,2.36,2.36,0,0,1-.93.34,1.33,1.33,0,0,1-.75-.11,1.37,1.37,0,0,1-.55-.5,2.55,2.55,0,0,1-.34-.87c0-.06,0-.13-.05-.22a2.36,2.36,0,0,1,0-.28,2.89,2.89,0,0,1,0-.29,2.32,2.32,0,0,1,0-.24,4.15,4.15,0,0,1,.4-2.13,3.61,3.61,0,0,1,.6-.88A3.72,3.72,0,0,1,233.27,222.71Zm1.86,2.61a4.7,4.7,0,0,0,0-.47q0-.25-.09-.45a2.17,2.17,0,0,0-.21-.54.87.87,0,0,0-.33-.33.71.71,0,0,0-.46-.09,1.32,1.32,0,0,0-.59.21,2.06,2.06,0,0,0-.56.45,2.23,2.23,0,0,0-.36.56,2.47,2.47,0,0,0-.19.64,3.14,3.14,0,0,0,0,.68c0,.14,0,.3.05.48a3.53,3.53,0,0,0,.08.44,1.9,1.9,0,0,0,.21.54,1,1,0,0,0,.33.34.79.79,0,0,0,.46.08,1.32,1.32,0,0,0,.59-.21,1.91,1.91,0,0,0,.56-.45,2.23,2.23,0,0,0,.36-.56,2.38,2.38,0,0,0,.2-.64A3.87,3.87,0,0,0,235.13,225.32Z"/><path class="cls-11" d="M236.7,221.17a.45.45,0,0,1,.21-.44l.35-.2a.19.19,0,0,1,.19,0,.2.2,0,0,1,.1.17l.41,2.87a1.4,1.4,0,0,0,.51,1.07,1,1,0,0,0,1-.13,2.16,2.16,0,0,0,.87-1,2.62,2.62,0,0,0,.16-1.45l-.42-2.88a.47.47,0,0,1,0-.25.37.37,0,0,1,.17-.18l.34-.21a.21.21,0,0,1,.19,0,.19.19,0,0,1,.11.16l.72,5.08a.38.38,0,0,1,0,.25.45.45,0,0,1-.17.19l-.34.2a.19.19,0,0,1-.19,0,.19.19,0,0,1-.11-.16l-.05-.34a3.33,3.33,0,0,1-.43.8,2.72,2.72,0,0,1-.87.75,2.15,2.15,0,0,1-.83.3,1.17,1.17,0,0,1-.7-.12,1.28,1.28,0,0,1-.51-.52,3.14,3.14,0,0,1-.29-.95Z"/><path class="cls-11" d="M244.78,216.19a.19.19,0,0,1,.19,0,.18.18,0,0,1,.1.16l.05.35a.37.37,0,0,1,0,.25.4.4,0,0,1-.17.19l-.54.32a1.7,1.7,0,0,0-.9,1.87l.46,3.18a.45.45,0,0,1-.05.25.4.4,0,0,1-.17.19l-.34.2a.19.19,0,0,1-.19,0,.21.21,0,0,1-.11-.17l-.72-5.07a.38.38,0,0,1,0-.25.4.4,0,0,1,.17-.19l.34-.2a.19.19,0,0,1,.19,0,.21.21,0,0,1,.11.17l.05.34a2.12,2.12,0,0,1,1-1.29Z"/><path class="cls-11" d="M252.73,216.66a.19.19,0,0,1,.3.15l.06.39a.45.45,0,0,1-.05.25.44.44,0,0,1-.16.19l-3.79,2.19a.19.19,0,0,1-.19,0,.21.21,0,0,1-.11-.17l-1-7a.45.45,0,0,1,.05-.25.44.44,0,0,1,.16-.19l3.72-2.15a.19.19,0,0,1,.19,0,.18.18,0,0,1,.1.16l.06.39a.51.51,0,0,1-.21.44l-3.08,1.78.33,2.3,2.87-1.66a.19.19,0,0,1,.19,0c.06,0,.09.08.11.16l0,.39a.45.45,0,0,1-.21.44l-2.87,1.66.34,2.38Z"/><path class="cls-11" d="M253.92,214a.19.19,0,0,1-.19,0,.21.21,0,0,1-.11-.17l-.05-.35a.47.47,0,0,1,.05-.25.43.43,0,0,1,.16-.19l2.77-1.59a.19.19,0,0,1,.19,0,.24.24,0,0,1,.11.17l0,.34a.45.45,0,0,1,0,.25.4.4,0,0,1-.17.19Z"/><path class="cls-11" d="M258.81,208.77c.05-.12.1-.25.16-.38a2.46,2.46,0,0,1,.22-.39,2.73,2.73,0,0,1,.32-.37,2.61,2.61,0,0,1,.45-.33,1.78,1.78,0,0,1,1-.3,1,1,0,0,1,.7.36c.06-.18.13-.35.2-.52a2.68,2.68,0,0,1,.28-.49,2.61,2.61,0,0,1,.38-.44,3.29,3.29,0,0,1,.53-.38c.63-.36,1.12-.41,1.47-.13a2.32,2.32,0,0,1,.69,1.55l.43,3a.37.37,0,0,1,0,.25.4.4,0,0,1-.17.19l-.34.2a.18.18,0,0,1-.3-.14l-.42-2.91a1.55,1.55,0,0,0-.45-1.07.82.82,0,0,0-.89.07,1.81,1.81,0,0,0-.74.85,2.35,2.35,0,0,0-.14,1.35l.43,3a.45.45,0,0,1-.05.25.44.44,0,0,1-.16.19l-.35.21a.2.2,0,0,1-.3-.15l-.41-2.91a1.55,1.55,0,0,0-.46-1.07.78.78,0,0,0-.88.08,1.76,1.76,0,0,0-.75.84,2.44,2.44,0,0,0-.14,1.35l.43,3a.42.42,0,0,1-.05.26.49.49,0,0,1-.16.19l-.35.19a.19.19,0,0,1-.19,0,.18.18,0,0,1-.1-.16l-.73-5.08a.39.39,0,0,1,0-.25.43.43,0,0,1,.16-.19l.35-.2a.19.19,0,0,1,.19,0,.18.18,0,0,1,.1.16Z"/><path class="cls-11" d="M266.47,208.25a2.2,2.2,0,0,1,0-.85,2.76,2.76,0,0,1,.33-.8,4.12,4.12,0,0,1,.56-.72,7.3,7.3,0,0,1,.71-.65l1.29-1,0-.14c-.05-.38-.2-.59-.43-.66a1.13,1.13,0,0,0-.83.18,1.72,1.72,0,0,0-.59.53,3.07,3.07,0,0,0-.31.63.57.57,0,0,1-.27.32l-.29.16a.19.19,0,0,1-.19,0,.17.17,0,0,1-.1-.16,1.66,1.66,0,0,1,.09-.59,3,3,0,0,1,.33-.67,3.59,3.59,0,0,1,.53-.65,3.07,3.07,0,0,1,.67-.53,2.68,2.68,0,0,1,.8-.31,1.26,1.26,0,0,1,.68.06,1.05,1.05,0,0,1,.5.44,2,2,0,0,1,.28.84l.47,3.32a.37.37,0,0,1,0,.25.4.4,0,0,1-.17.19l-.34.2a.19.19,0,0,1-.19,0,.19.19,0,0,1-.11-.16l-.06-.45a1.84,1.84,0,0,1-.21.51,3.68,3.68,0,0,1-.37.51,3.81,3.81,0,0,1-.46.44,3.48,3.48,0,0,1-.45.32,2.33,2.33,0,0,1-.69.27,1.14,1.14,0,0,1-.56,0,.77.77,0,0,1-.4-.29A1.25,1.25,0,0,1,266.47,208.25Zm1.82-.4a2.75,2.75,0,0,0,.6-.48,2.81,2.81,0,0,0,.43-.61,2.21,2.21,0,0,0,.24-.68,2.18,2.18,0,0,0,0-.72l0-.27-1.07.84a4.39,4.39,0,0,0-.89.89,1.18,1.18,0,0,0-.26.82.53.53,0,0,0,.08.22.45.45,0,0,0,.19.14.54.54,0,0,0,.29,0A1.59,1.59,0,0,0,268.29,207.85Z"/><path class="cls-11" d="M272.12,199.15a.45.45,0,0,1-.05.25.44.44,0,0,1-.16.19l-.54.31a.19.19,0,0,1-.19,0,.2.2,0,0,1-.1-.17l-.09-.62a.45.45,0,0,1,.21-.44l.53-.31a.21.21,0,0,1,.19,0,.19.19,0,0,1,.11.16Zm.84,6.58a.47.47,0,0,1,0,.25.38.38,0,0,1-.16.19l-.35.2a.22.22,0,0,1-.19,0,.24.24,0,0,1-.11-.17l-.72-5.07a.44.44,0,0,1,0-.25.4.4,0,0,1,.17-.19l.35-.2a.19.19,0,0,1,.19,0,.21.21,0,0,1,.1.16Z"/><path class="cls-11" d="M275.22,204.42a.5.5,0,0,1-.05.26.47.47,0,0,1-.16.18l-.35.21a.19.19,0,0,1-.19,0,.22.22,0,0,1-.11-.16l-1-7.15a.39.39,0,0,1,.05-.25.43.43,0,0,1,.16-.19l.35-.2a.19.19,0,0,1,.19,0,.18.18,0,0,1,.1.16Z"/><path class="cls-11" d="M202.54,277.28a.19.19,0,0,1,.19,0,.19.19,0,0,1,.11.16l0,.39a.37.37,0,0,1,0,.25.4.4,0,0,1-.17.19l-3.79,2.19a.19.19,0,0,1-.19,0,.23.23,0,0,1-.1-.17l-1-7a.47.47,0,0,1,0-.25.38.38,0,0,1,.16-.19l3.72-2.15a.21.21,0,0,1,.19,0,.18.18,0,0,1,.1.16l.06.4a.42.42,0,0,1-.05.24.41.41,0,0,1-.16.2l-3.08,1.77.33,2.3,2.87-1.66a.19.19,0,0,1,.19,0c.06,0,.09.08.1.16l.06.39a.45.45,0,0,1-.21.44l-2.87,1.66.34,2.38Z"/><path class="cls-11" d="M208.38,274.66a.39.39,0,0,1,0,.25.43.43,0,0,1-.16.19l-.35.2a.19.19,0,0,1-.19,0,.18.18,0,0,1-.1-.16l-.42-2.88c-.08-.55-.25-.91-.52-1a1.07,1.07,0,0,0-1,.15,2.18,2.18,0,0,0-.89,1,2.48,2.48,0,0,0-.18,1.46l.41,2.88a.45.45,0,0,1,0,.25.53.53,0,0,1-.17.19l-.35.2a.21.21,0,0,1-.19,0,.18.18,0,0,1-.1-.16l-.73-5.08a.39.39,0,0,1,.05-.25.43.43,0,0,1,.16-.19l.35-.2a.19.19,0,0,1,.19,0,.18.18,0,0,1,.1.16l.05.34a3.81,3.81,0,0,1,.46-.81,2.84,2.84,0,0,1,.89-.77,2.14,2.14,0,0,1,.84-.3,1.12,1.12,0,0,1,.71.11,1.26,1.26,0,0,1,.53.52,2.6,2.6,0,0,1,.29.94Z"/><path class="cls-11" d="M210.71,271.57a1.58,1.58,0,0,0,.09.36.57.57,0,0,0,.16.25.39.39,0,0,0,.27.06,1.21,1.21,0,0,0,.41-.16l.49-.29a.21.21,0,0,1,.19,0,.19.19,0,0,1,.11.16l0,.35a.39.39,0,0,1,0,.25.38.38,0,0,1-.16.19l-.59.34c-.55.32-1,.38-1.26.19a1.58,1.58,0,0,1-.56-1.2l-.41-2.82-.69.4a.19.19,0,0,1-.19,0,.21.21,0,0,1-.11-.17l-.05-.35a.47.47,0,0,1,.05-.25.51.51,0,0,1,.16-.19l.7-.4-.26-1.77a.45.45,0,0,1,.05-.25.44.44,0,0,1,.16-.19l.35-.2a.19.19,0,0,1,.19,0,.21.21,0,0,1,.11.17l.25,1.77,1.19-.69a.19.19,0,0,1,.19,0,.19.19,0,0,1,.11.16l.05.35a.47.47,0,0,1-.05.25.38.38,0,0,1-.16.19l-1.19.69Z"/><path class="cls-11" d="M212.75,268.8a4.24,4.24,0,0,1,.07-1.06,4.42,4.42,0,0,1,.33-1,3.79,3.79,0,0,1,.58-.89,3.34,3.34,0,0,1,.82-.68,2.47,2.47,0,0,1,.94-.33,1.19,1.19,0,0,1,.75.16,1.48,1.48,0,0,1,.56.62,3.24,3.24,0,0,1,.31,1.06l0,.29a.47.47,0,0,1,0,.25.44.44,0,0,1-.16.19l-3.23,1.86v.07a1.07,1.07,0,0,0,.55.91,1.08,1.08,0,0,0,1-.13,2.45,2.45,0,0,0,.75-.62,2.68,2.68,0,0,0,.36-.62,1.28,1.28,0,0,1,.12-.19.43.43,0,0,1,.16-.13l.28-.16a.25.25,0,0,1,.2,0,.17.17,0,0,1,.1.17,1.73,1.73,0,0,1-.1.53,2.59,2.59,0,0,1-.32.65,3.81,3.81,0,0,1-.57.7,4,4,0,0,1-.84.63,2.14,2.14,0,0,1-.88.3,1.25,1.25,0,0,1-.72-.15,1.53,1.53,0,0,1-.56-.52,2.64,2.64,0,0,1-.35-.87A5.36,5.36,0,0,1,212.75,268.8Zm.84-.45,2.63-1.52v0a1,1,0,0,0-.52-.85,1.12,1.12,0,0,0-1,.16,1.87,1.87,0,0,0-.49.4,2.31,2.31,0,0,0-.38.53,2.36,2.36,0,0,0-.24,1.29Z"/><path class="cls-11" d="M220.35,261.94a.19.19,0,0,1,.19,0,.21.21,0,0,1,.1.16l.05.35a.45.45,0,0,1-.21.44l-.54.32a1.7,1.7,0,0,0-.9,1.87l.45,3.18a.44.44,0,0,1,0,.25.46.46,0,0,1-.17.19l-.35.2a.19.19,0,0,1-.19,0,.23.23,0,0,1-.1-.17l-.73-5.07a.47.47,0,0,1,.05-.25.38.38,0,0,1,.16-.19l.35-.2a.19.19,0,0,1,.19,0,.24.24,0,0,1,.11.17l0,.34a2.51,2.51,0,0,1,.38-.75,2.48,2.48,0,0,1,.67-.54Z"/><path class="cls-11" d="M225.75,266.91a1.36,1.36,0,0,1-.07.22.35.35,0,0,1-.17.19l-.38.23a.17.17,0,0,1-.17,0,.17.17,0,0,1-.09-.15.19.19,0,0,1,0-.08l.58-2.79-2.54-3.71a.14.14,0,0,1,0-.07.38.38,0,0,1,0-.23.29.29,0,0,1,.15-.16l.38-.23a.19.19,0,0,1,.19,0,.34.34,0,0,1,.12.12l2,2.87.94-4.55a1.12,1.12,0,0,1,.06-.23.44.44,0,0,1,.17-.19l.38-.22a.18.18,0,0,1,.17,0,.18.18,0,0,1,.1.15v.08Z"/><path class="cls-11" d="M230.26,256.09a2.72,2.72,0,0,1,.93-.34,1.37,1.37,0,0,1,.74.11,1.3,1.3,0,0,1,.56.51,2.64,2.64,0,0,1,.34.87,1.2,1.2,0,0,1,0,.23,2.36,2.36,0,0,1,0,.28c0,.1,0,.19,0,.28a1.2,1.2,0,0,1,0,.23,4.54,4.54,0,0,1-.07,1.11,3.59,3.59,0,0,1-.33,1,4,4,0,0,1-.6.88,3.36,3.36,0,0,1-.88.7,2.27,2.27,0,0,1-.92.34,1.33,1.33,0,0,1-.75-.1,1.27,1.27,0,0,1-.55-.51,2.48,2.48,0,0,1-.35-.87c0-.06,0-.13,0-.22a2.33,2.33,0,0,1-.05-.28,2.66,2.66,0,0,1,0-.28c0-.1,0-.18,0-.25a4.07,4.07,0,0,1,.06-1.1,3.93,3.93,0,0,1,.33-1,3.8,3.8,0,0,1,.61-.89A3.57,3.57,0,0,1,230.26,256.09Zm1.86,2.61c0-.13,0-.28-.05-.46a3.4,3.4,0,0,0-.08-.45,1.9,1.9,0,0,0-.21-.54.8.8,0,0,0-.34-.34.85.85,0,0,0-.46-.09,1.36,1.36,0,0,0-.59.21,2.45,2.45,0,0,0-.55.45,2.43,2.43,0,0,0-.37.57,2.64,2.64,0,0,0-.19.64,3.07,3.07,0,0,0,0,.68,4.7,4.7,0,0,0,0,.47c0,.18.06.33.09.44a1.9,1.9,0,0,0,.21.54.9.9,0,0,0,.33.34.86.86,0,0,0,.46.09A1.69,1.69,0,0,0,231,261a2.25,2.25,0,0,0,.55-.45,2.32,2.32,0,0,0,.37-.57,2.26,2.26,0,0,0,.19-.64A3.07,3.07,0,0,0,232.12,258.7Z"/><path class="cls-11" d="M233.69,254.55a.38.38,0,0,1,0-.25.45.45,0,0,1,.17-.19l.34-.2a.19.19,0,0,1,.19,0,.19.19,0,0,1,.11.16l.41,2.87a1.43,1.43,0,0,0,.5,1.07,1,1,0,0,0,1-.13,2,2,0,0,0,.87-.95,2.53,2.53,0,0,0,.16-1.45l-.41-2.87a.51.51,0,0,1,.21-.44l.35-.2a.19.19,0,0,1,.19,0,.2.2,0,0,1,.1.17l.73,5.07a.45.45,0,0,1-.21.44l-.35.2a.22.22,0,0,1-.19,0,.2.2,0,0,1-.1-.17l-.05-.33a3.67,3.67,0,0,1-.43.79,2.62,2.62,0,0,1-.87.76,2,2,0,0,1-.83.29,1.13,1.13,0,0,1-1.21-.64,2.8,2.8,0,0,1-.29-1Z"/><path class="cls-11" d="M241.77,249.57a.21.21,0,0,1,.19,0,.23.23,0,0,1,.1.17l.05.35a.39.39,0,0,1-.05.25.43.43,0,0,1-.16.19l-.54.31a1.71,1.71,0,0,0-.9,1.87l.45,3.18a.49.49,0,0,1,0,.26.63.63,0,0,1-.17.19l-.35.19a.19.19,0,0,1-.19,0,.18.18,0,0,1-.1-.16l-.73-5.08a.39.39,0,0,1,0-.25.43.43,0,0,1,.16-.19l.35-.2a.19.19,0,0,1,.19,0,.22.22,0,0,1,.11.16l0,.34a2.45,2.45,0,0,1,.38-.74,2.35,2.35,0,0,1,.67-.55Z"/><path class="cls-11" d="M247.34,244.23a3.45,3.45,0,0,1,.89-.37,1.57,1.57,0,0,1,.78,0,1.12,1.12,0,0,1,.59.43,2,2,0,0,1,.34.93,3.39,3.39,0,0,1,0,1.15,3.53,3.53,0,0,1-.39,1,3.61,3.61,0,0,1-.65.86,4.4,4.4,0,0,1-.85.64l-1.72,1,.38,2.67a.47.47,0,0,1,0,.25.38.38,0,0,1-.16.19l-.39.22a.19.19,0,0,1-.19,0,.18.18,0,0,1-.1-.16l-1-7a.39.39,0,0,1,0-.25.38.38,0,0,1,.16-.19Zm-1.19,4.67,1.67-1a2.61,2.61,0,0,0,1-.94,1.8,1.8,0,0,0,.22-1.24c-.06-.47-.23-.74-.51-.8a1.54,1.54,0,0,0-1.09.28l-1.68,1Z"/><path class="cls-11" d="M251.07,248.78a2.21,2.21,0,0,1,0-.85,2.74,2.74,0,0,1,.34-.79,4.18,4.18,0,0,1,.56-.73,7.2,7.2,0,0,1,.71-.64l1.29-1,0-.14c-.05-.37-.2-.59-.43-.65a1.11,1.11,0,0,0-.83.17,1.77,1.77,0,0,0-.6.54,3.54,3.54,0,0,0-.3.62.67.67,0,0,1-.1.19.7.7,0,0,1-.18.14l-.28.16a.22.22,0,0,1-.19,0,.18.18,0,0,1-.1-.17,1.61,1.61,0,0,1,.09-.58,2.66,2.66,0,0,1,.33-.68,4.45,4.45,0,0,1,.53-.65,3,3,0,0,1,.67-.52,2.23,2.23,0,0,1,.8-.31,1.18,1.18,0,0,1,.68.05,1.07,1.07,0,0,1,.5.45,2,2,0,0,1,.28.84l.47,3.32a.38.38,0,0,1,0,.25.45.45,0,0,1-.17.19l-.35.2a.19.19,0,0,1-.19,0,.19.19,0,0,1-.1-.16l-.06-.45a1.89,1.89,0,0,1-.21.52,4.29,4.29,0,0,1-.37.5,4.73,4.73,0,0,1-.46.44,5.07,5.07,0,0,1-.45.33,2.28,2.28,0,0,1-.69.26,1.14,1.14,0,0,1-.56,0,.74.74,0,0,1-.4-.3A1.1,1.1,0,0,1,251.07,248.78Zm1.82-.4a2.71,2.71,0,0,0,.6-.47,2.81,2.81,0,0,0,.43-.61,2.46,2.46,0,0,0,.24-.69,2.12,2.12,0,0,0,0-.71l0-.28-1.07.85a4.39,4.39,0,0,0-.89.89,1.12,1.12,0,0,0-.26.82.44.44,0,0,0,.56.37A1.31,1.31,0,0,0,252.89,248.38Z"/><path class="cls-11" d="M259.3,243.88a.41.41,0,0,0-.15-.29.54.54,0,0,0-.33-.06,2.79,2.79,0,0,0-.53.11c-.21.05-.46.13-.73.22a1.34,1.34,0,0,1-1.16,0A1.19,1.19,0,0,1,256,243a2,2,0,0,1,0-.69,2.61,2.61,0,0,1,.26-.72,3.16,3.16,0,0,1,.52-.68,3.49,3.49,0,0,1,.78-.6,3.11,3.11,0,0,1,.82-.34,1.68,1.68,0,0,1,.62,0,.83.83,0,0,1,.41.2.56.56,0,0,1,.19.33.3.3,0,0,1,0,.24.42.42,0,0,1-.17.2l-.31.18a.46.46,0,0,1-.14,0,.2.2,0,0,1-.16,0,.59.59,0,0,0-.41-.11,1.78,1.78,0,0,0-.68.26,2.16,2.16,0,0,0-.67.59.9.9,0,0,0-.19.66.46.46,0,0,0,.12.29.38.38,0,0,0,.28.08,1.71,1.71,0,0,0,.47-.09l.71-.21a2.74,2.74,0,0,1,.76-.14,1.19,1.19,0,0,1,.53.11.76.76,0,0,1,.32.32,1.73,1.73,0,0,1,.15.5,2,2,0,0,1,0,.71,2.71,2.71,0,0,1-.31.76,3.69,3.69,0,0,1-.56.72,3.8,3.8,0,0,1-.8.62,3.16,3.16,0,0,1-.83.34,1.89,1.89,0,0,1-.66,0,.85.85,0,0,1-.45-.19.65.65,0,0,1-.21-.34.46.46,0,0,1,.22-.44l.33-.19.14-.06a.17.17,0,0,1,.16,0,.55.55,0,0,0,.46.13,1.77,1.77,0,0,0,.71-.26,3.35,3.35,0,0,0,.4-.29,2.24,2.24,0,0,0,.33-.36,1.58,1.58,0,0,0,.21-.38A.74.74,0,0,0,259.3,243.88Z"/><path class="cls-11" d="M264,241.14a.41.41,0,0,0-.15-.29.53.53,0,0,0-.33-.06,2.71,2.71,0,0,0-.52.11c-.21,0-.46.13-.74.22a1.32,1.32,0,0,1-1.15,0,1.19,1.19,0,0,1-.45-.83,2.3,2.3,0,0,1,0-.69,2.64,2.64,0,0,1,.27-.72,3.1,3.1,0,0,1,.51-.68,3.81,3.81,0,0,1,.79-.6,3.07,3.07,0,0,1,.81-.34,1.73,1.73,0,0,1,.63,0,.92.92,0,0,1,.41.19.68.68,0,0,1,.19.34.39.39,0,0,1,0,.25.53.53,0,0,1-.17.19l-.31.18-.14.05a.22.22,0,0,1-.17,0,.61.61,0,0,0-.4-.11,1.73,1.73,0,0,0-.68.26,2,2,0,0,0-.67.59.93.93,0,0,0-.2.67.41.41,0,0,0,.13.28.36.36,0,0,0,.27.08,1.65,1.65,0,0,0,.47-.09l.72-.21a2.68,2.68,0,0,1,.76-.14,1.14,1.14,0,0,1,.52.11.71.71,0,0,1,.32.32,1.47,1.47,0,0,1,.16.5,2,2,0,0,1,0,.71,3,3,0,0,1-.31.76,4.12,4.12,0,0,1-.56.72,3.62,3.62,0,0,1-.81.62,2.91,2.91,0,0,1-.83.34,1.84,1.84,0,0,1-.65,0,.85.85,0,0,1-.45-.19.59.59,0,0,1-.21-.34.31.31,0,0,1,0-.24.48.48,0,0,1,.17-.2l.34-.19.13-.06a.17.17,0,0,1,.16,0,.62.62,0,0,0,.47.14,2,2,0,0,0,.7-.27,2.7,2.7,0,0,0,.4-.29,1.86,1.86,0,0,0,.33-.36,1.44,1.44,0,0,0,.22-.37A.67.67,0,0,0,264,241.14Z"/><path class="cls-11" d="M270.44,237.24,271,233a.63.63,0,0,1,.08-.23.41.41,0,0,1,.2-.21l.31-.18a.18.18,0,0,1,.17,0,.2.2,0,0,1,.09.15.27.27,0,0,1,0,.09l-.71,5.84a1.76,1.76,0,0,1-.07.27.37.37,0,0,1-.17.2l-.29.17c-.08,0-.15.05-.2,0a1,1,0,0,1-.14-.15l-1.63-3-.6,4.26a1.73,1.73,0,0,1-.08.27.33.33,0,0,1-.17.2l-.29.17a.19.19,0,0,1-.19,0,.48.48,0,0,1-.13-.17L265,236.53l0-.08a.45.45,0,0,1,0-.22.42.42,0,0,1,.15-.17l.31-.18a.3.3,0,0,1,.23,0,.38.38,0,0,1,.13.12l1.57,3,.6-4.29a.7.7,0,0,1,.07-.22.42.42,0,0,1,.19-.21l.2-.11c.1-.06.17-.07.22,0a.32.32,0,0,1,.11.12Z"/><path class="cls-11" d="M274.67,230.45a2.53,2.53,0,0,1,.93-.34,1.42,1.42,0,0,1,.75.11,1.33,1.33,0,0,1,.55.51,2.64,2.64,0,0,1,.34.87c0,.06,0,.14.05.23s0,.18,0,.28,0,.19,0,.28,0,.17,0,.23a5.1,5.1,0,0,1-.06,1.11,4,4,0,0,1-.34,1,3.43,3.43,0,0,1-.6.88,3.48,3.48,0,0,1-.87.7,2.36,2.36,0,0,1-.93.34,1.42,1.42,0,0,1-.75-.1,1.4,1.4,0,0,1-.55-.51,2.47,2.47,0,0,1-.34-.87c0-.06,0-.13-.05-.22s0-.18,0-.28l0-.28c0-.1,0-.18,0-.25a4.07,4.07,0,0,1,.06-1.1,3.83,3.83,0,0,1,.34-1,3.48,3.48,0,0,1,.6-.89A3.77,3.77,0,0,1,274.67,230.45Zm1.86,2.61a4.57,4.57,0,0,0,0-.46,3.93,3.93,0,0,0-.08-.46,2.17,2.17,0,0,0-.21-.54.87.87,0,0,0-.33-.33.72.72,0,0,0-.46-.09,1.32,1.32,0,0,0-.59.21,2.09,2.09,0,0,0-.56.45,2.23,2.23,0,0,0-.36.56,2.5,2.5,0,0,0-.2.64,4,4,0,0,0,0,.69c0,.13,0,.29,0,.47a3.21,3.21,0,0,0,.08.44,1.9,1.9,0,0,0,.21.54.9.9,0,0,0,.33.34.86.86,0,0,0,.46.09,1.62,1.62,0,0,0,.59-.21,2.3,2.3,0,0,0,.56-.45,2.48,2.48,0,0,0,.36-.57,2.05,2.05,0,0,0,.19-.64A3.11,3.11,0,0,0,276.53,233.06Z"/><path class="cls-11" d="M280.58,227.16a.22.22,0,0,1,.19,0,.2.2,0,0,1,.1.17l.05.35a.38.38,0,0,1,0,.25.4.4,0,0,1-.17.19l-.54.31a1.72,1.72,0,0,0-.9,1.88l.46,3.18a.47.47,0,0,1-.05.25.45.45,0,0,1-.17.19l-.34.2a.19.19,0,0,1-.19,0,.19.19,0,0,1-.11-.16l-.72-5.08a.38.38,0,0,1,0-.25.45.45,0,0,1,.17-.19l.34-.2a.19.19,0,0,1,.19,0,.19.19,0,0,1,.11.16l.05.34a2.25,2.25,0,0,1,.38-.74,2.3,2.3,0,0,1,.66-.55Z"/><path class="cls-11" d="M283.41,225.41a1.74,1.74,0,0,1,1-.31,1.09,1.09,0,0,1,.59.21l-.34-2.41a.45.45,0,0,1,.21-.44l.35-.2a.21.21,0,0,1,.19,0,.2.2,0,0,1,.1.17l1,7.14a.38.38,0,0,1,0,.25.4.4,0,0,1-.17.19l-.34.2a.19.19,0,0,1-.19,0,.21.21,0,0,1-.11-.17l0-.33a3.11,3.11,0,0,1-.46.82,2.77,2.77,0,0,1-.88.76,2.2,2.2,0,0,1-.85.29,1.24,1.24,0,0,1-.74-.14,1.47,1.47,0,0,1-.56-.55,2.76,2.76,0,0,1-.35-1,2.9,2.9,0,0,1-.07-.34c0-.13,0-.25,0-.36a4.79,4.79,0,0,1,.05-1.2A4.17,4.17,0,0,1,282,227a3.83,3.83,0,0,1,.59-.89A3.22,3.22,0,0,1,283.41,225.41Zm1.94,2.57c0-.12,0-.26-.05-.44s-.05-.32-.07-.42a1.22,1.22,0,0,0-.57-1,1.06,1.06,0,0,0-1,.14,2.2,2.2,0,0,0-.91,1,3,3,0,0,0-.21,1.47c0,.2.05.41.08.61a1.42,1.42,0,0,0,.57,1,1,1,0,0,0,1.05-.1,2.32,2.32,0,0,0,.89-1A2.4,2.4,0,0,0,285.35,228Z"/></g></g><g id="Plants"><g id="Plant"><g id="Pot"><path class="cls-12" d="M31.32,401.76c-8.17-8.43-13-29.61-5-36.3H66.85c8,6.69,3.17,27.86-5,36.29l-.22.24-.28.27c-.24.23-.48.45-.74.67l-.2.15c-.2.16-.4.32-.61.47a11.27,11.27,0,0,1-1.06.69c-6.72,3.92-17.61,3.92-24.33,0h0c-.36-.21-.71-.44-1.06-.69s-.39-.29-.58-.44l-.24-.19c-.25-.21-.49-.42-.71-.64L31.5,402C31.44,401.89,31.37,401.83,31.32,401.76Z"/><path class="cls-9" d="M63.33,362.77c9.25,5.4,9.25,14.16,0,19.56s-24.24,5.4-33.49,0-9.25-14.16,0-19.56S54.08,357.37,63.33,362.77Z"/><path class="cls-10" d="M58.88,365.37c6.79,4,6.79,10.39,0,14.36s-17.8,4-24.59,0-6.8-10.4,0-14.36S52.09,361.4,58.88,365.37Z"/><path class="cls-25" d="M34.29,372.18c6.79-4,17.8-4,24.59,0A11.37,11.37,0,0,1,63,376a11.36,11.36,0,0,1-4.07,3.77c-6.79,4-17.8,4-24.59,0A11.36,11.36,0,0,1,30.22,376,11.37,11.37,0,0,1,34.29,372.18Z"/></g><path class="cls-13" d="M43.86,318.13c-3.11,3.36-11.74,4.29-15.32-4.8-3.35-8.53-7-16.62-8-19.75a3.22,3.22,0,0,1,2.06-4.16s.25-4.69,8.19-1.51,13.55,8,17,15.79S49.17,317.08,43.86,318.13Z"/><path class="cls-26" d="M43.86,318.13c-3.11,3.36-11.74,4.29-15.32-4.8-3.35-8.53-7-16.62-8-19.75a3.22,3.22,0,0,1,2.06-4.16s.25-4.69,8.19-1.51,13.55,8,17,15.79S49.17,317.08,43.86,318.13Z"/><path class="cls-27" d="M47.3,330.15a44.36,44.36,0,0,0-.69-4.74A64.63,64.63,0,0,0,44,316.26a67.52,67.52,0,0,0-9.2-17,58.14,58.14,0,0,0-7.23-8.2c-.09-.08-.15.1-.09.16a72.4,72.4,0,0,1,11.33,15.65,73.54,73.54,0,0,1,6.55,17.75c.39,1.73.76,3.47,1.08,5.21s.5,3.56.8,5.33c0,.18.31.29.32.05A34.36,34.36,0,0,0,47.3,330.15Z"/><path class="cls-28" d="M47.3,330.15a44.36,44.36,0,0,0-.69-4.74A64.63,64.63,0,0,0,44,316.26a67.52,67.52,0,0,0-9.2-17,58.14,58.14,0,0,0-7.23-8.2c-.09-.08-.15.1-.09.16a72.4,72.4,0,0,1,11.33,15.65,73.54,73.54,0,0,1,6.55,17.75c.39,1.73.76,3.47,1.08,5.21s.5,3.56.8,5.33c0,.18.31.29.32.05A34.36,34.36,0,0,0,47.3,330.15Z"/><path class="cls-13" d="M50,315.77c-7.13,2.21-12.43-3.36-10.6-12.09s11-18.42,14.47-15.82c2.16-2.16,6.93-1.39,9.17,5.7S63.2,318.86,50,315.77Z"/><path class="cls-29" d="M50,315.77c-7.13,2.21-12.43-3.36-10.6-12.09s11-18.42,14.47-15.82c2.16-2.16,6.93-1.39,9.17,5.7S63.2,318.86,50,315.77Z"/><path class="cls-27" d="M54.13,293.17a95.86,95.86,0,0,0-4.74,15.69,152,152,0,0,0-2.75,16.42,256.36,256.36,0,0,0-1.43,32.19q0,4.45.12,8.91c.05,3.06,0,6.15.27,9.2.1,1.16,1.76.85,1.78-.22.1-5.34-.19-10.71-.24-16.06s0-10.58.1-15.87a223.45,223.45,0,0,1,2.88-32.15c.51-2.95,1.08-5.91,1.77-8.83.72-3.08,1.61-6.11,2.42-9.16C54.34,293.17,54.2,293,54.13,293.17Z"/><path class="cls-28" d="M54.13,293.17a95.86,95.86,0,0,0-4.74,15.69,152,152,0,0,0-2.75,16.42,256.36,256.36,0,0,0-1.43,32.19q0,4.45.12,8.91c.05,3.06,0,6.15.27,9.2.1,1.16,1.76.85,1.78-.22.1-5.34-.19-10.71-.24-16.06s0-10.58.1-15.87a223.45,223.45,0,0,1,2.88-32.15c.51-2.95,1.08-5.91,1.77-8.83.72-3.08,1.61-6.11,2.42-9.16C54.34,293.17,54.2,293,54.13,293.17Z"/><path class="cls-13" d="M38.34,341.37c-3.12,3.53-10.26,3.22-15.05-3.08s-7.66-30-.92-28.45c1.43-3.16,20.05,4.42,22.44,19.87C46.55,340.94,38.34,341.37,38.34,341.37Z"/><path class="cls-7" d="M38.34,341.37c-3.12,3.53-10.26,3.22-15.05-3.08s-7.66-30-.92-28.45c1.43-3.16,20.05,4.42,22.44,19.87C46.55,340.94,38.34,341.37,38.34,341.37Z"/><path class="cls-27" d="M43.91,352.56a31.92,31.92,0,0,0-.92-4.32,88.92,88.92,0,0,0-2.77-8.56,90.29,90.29,0,0,0-8.32-16.33A78.64,78.64,0,0,0,26,315c-.06-.07-.11.09-.08.14,1.67,2.43,3.35,4.83,4.85,7.36s2.94,5.35,4.22,8.12a111.39,111.39,0,0,1,6.14,16.48c.46,1.6.84,3.23,1.31,4.83s1.11,3.28,1.53,5c.06.25.37.33.34,0C44.15,355.46,44.1,354,43.91,352.56Z"/><path class="cls-28" d="M43.91,352.56a31.92,31.92,0,0,0-.92-4.32,88.92,88.92,0,0,0-2.77-8.56,90.29,90.29,0,0,0-8.32-16.33A78.64,78.64,0,0,0,26,315c-.06-.07-.11.09-.08.14,1.67,2.43,3.35,4.83,4.85,7.36s2.94,5.35,4.22,8.12a111.39,111.39,0,0,1,6.14,16.48c.46,1.6.84,3.23,1.31,4.83s1.11,3.28,1.53,5c.06.25.37.33.34,0C44.15,355.46,44.1,354,43.91,352.56Z"/><path class="cls-13" d="M49.75,337.88c-4.08-.93-4.28-5.83.81-11.84s17.93-8.63,18.55-6.1c2.85,0,2.85,8.94-3.47,17.15S50.13,343.39,49.75,337.88Z"/><path class="cls-7" d="M49.75,337.88c-4.08-.93-4.28-5.83.81-11.84s17.93-8.63,18.55-6.1c2.85,0,2.85,8.94-3.47,17.15S50.13,343.39,49.75,337.88Z"/><path class="cls-27" d="M57.73,329.14a32.31,32.31,0,0,0-11.8,15.23c-.13.35.47.86.62.48a37.54,37.54,0,0,1,11.2-15.63S57.78,329.1,57.73,329.14Z"/><path class="cls-28" d="M57.73,329.14a32.31,32.31,0,0,0-11.8,15.23c-.13.35.47.86.62.48a37.54,37.54,0,0,1,11.2-15.63S57.78,329.1,57.73,329.14Z"/><path class="cls-13" d="M54.4,367.7c-5.64,2.29-3.22,9,2.29,14.12A25.18,25.18,0,0,0,73.87,388c3.79-.26,4.76-.78,4.76-.78a42.77,42.77,0,0,0,0-9.35,18.06,18.06,0,0,0-13.3-14.34C56.51,361.15,54.4,364.34,54.4,367.7Z"/><path class="cls-29" d="M54.4,367.7c-5.64,2.29-3.22,9,2.29,14.12A25.18,25.18,0,0,0,73.87,388c3.79-.26,4.76-.78,4.76-.78a42.77,42.77,0,0,0,0-9.35,18.06,18.06,0,0,0-13.3-14.34C56.51,361.15,54.4,364.34,54.4,367.7Z"/><path class="cls-27" d="M70,377.63a45.9,45.9,0,0,0-8.65-8c-3.22-2.11-7.5-3.92-11.36-2.6-1.49.51-3.82,2-3.54,3.85,0,.18.36.64.58.38a15.79,15.79,0,0,1,2-2.37,6.06,6.06,0,0,1,3-1.15,14.11,14.11,0,0,1,7.92,1.8c3.82,2,6.9,5.17,9.94,8.18C70,377.75,70.06,377.66,70,377.63Z"/><path class="cls-28" d="M70,377.63a45.9,45.9,0,0,0-8.65-8c-3.22-2.11-7.5-3.92-11.36-2.6-1.49.51-3.82,2-3.54,3.85,0,.18.36.64.58.38a15.79,15.79,0,0,1,2-2.37,6.06,6.06,0,0,1,3-1.15,14.11,14.11,0,0,1,7.92,1.8c3.82,2,6.9,5.17,9.94,8.18C70,377.75,70.06,377.66,70,377.63Z"/><path class="cls-29" d="M36.09,346.09c1.1-2.29-.93-8.93-11.51-12.74s-19.85-1.25-22,.44S-1,337.49.85,338.54s8.44,3.39,12.38,6.55,11.48,11.48,18.1,11.22S38.56,349.25,36.09,346.09Z"/><path class="cls-30" d="M36.09,346.09c1.1-2.29-.93-8.93-11.51-12.74s-19.85-1.25-22,.44S-1,337.49.85,338.54s8.44,3.39,12.38,6.55,11.48,11.48,18.1,11.22S38.56,349.25,36.09,346.09Z"/><path class="cls-27" d="M42.24,356.55C40,346,29,340.12,19.3,337.77a38.77,38.77,0,0,0-9.71-1.13c-.05,0-.08.1,0,.11a51.44,51.44,0,0,1,15.74,3.76,33.62,33.62,0,0,1,13,9.12,20.07,20.07,0,0,1,3.69,7C42.05,356.94,42.28,356.76,42.24,356.55Z"/><path class="cls-28" d="M42.24,356.55C40,346,29,340.12,19.3,337.77a38.77,38.77,0,0,0-9.71-1.13c-.05,0-.08.1,0,.11a51.44,51.44,0,0,1,15.74,3.76,33.62,33.62,0,0,1,13,9.12,20.07,20.07,0,0,1,3.69,7C42.05,356.94,42.28,356.76,42.24,356.55Z"/><path class="cls-13" d="M59.87,325.28c-.14,4.05,5.55,6.39,11.07,2.89s11.3-6.9,16.4-8.23,7.53-5.48,5.92-7.5-4.18-7.11-17.61-5.45-18.2,7.72-20,12S57.85,326.44,59.87,325.28Z"/><path class="cls-7" d="M59.87,325.28c-.14,4.05,5.55,6.39,11.07,2.89s11.3-6.9,16.4-8.23,7.53-5.48,5.92-7.5-4.18-7.11-17.61-5.45-18.2,7.72-20,12S57.85,326.44,59.87,325.28Z"/><path class="cls-27" d="M81.74,312.42A14.45,14.45,0,0,0,76,313,28.75,28.75,0,0,0,71,314.79a27.14,27.14,0,0,0-8.39,6.09,23,23,0,0,0-1.9,2.28,9.64,9.64,0,0,0-1.44,2.35c-.09.27.3.7.54.43.66-.77,1.16-1.71,1.79-2.51A26.83,26.83,0,0,1,63.8,321,27.57,27.57,0,0,1,69,316.87a32.37,32.37,0,0,1,5.74-2.79,32.82,32.82,0,0,1,3.34-1,11.65,11.65,0,0,1,3.66-.51C81.77,312.58,81.8,312.43,81.74,312.42Z"/><path class="cls-28" d="M81.74,312.42A14.45,14.45,0,0,0,76,313,28.75,28.75,0,0,0,71,314.79a27.14,27.14,0,0,0-8.39,6.09,23,23,0,0,0-1.9,2.28,9.64,9.64,0,0,0-1.44,2.35c-.09.27.3.7.54.43.66-.77,1.16-1.71,1.79-2.51A26.83,26.83,0,0,1,63.8,321,27.57,27.57,0,0,1,69,316.87a32.37,32.37,0,0,1,5.74-2.79,32.82,32.82,0,0,1,3.34-1,11.65,11.65,0,0,1,3.66-.51C81.77,312.58,81.8,312.43,81.74,312.42Z"/><path class="cls-13" d="M50.23,347.13c-1.88-1.88-7-1.45-9.41,4.12s2.66,11.65,3.23,13.36c2.33-1.35,4.15-.55,8.26-1.35A10.25,10.25,0,0,0,60.18,353C59.92,347.94,57.76,344.57,50.23,347.13Z"/><path class="cls-26" d="M50.23,347.13c-1.88-1.88-7-1.45-9.41,4.12s2.66,11.65,3.23,13.36c2.33-1.35,4.15-.55,8.26-1.35A10.25,10.25,0,0,0,60.18,353C59.92,347.94,57.76,344.57,50.23,347.13Z"/><path class="cls-27" d="M50.16,346.57a7.78,7.78,0,0,0-2.49,2.58,14.23,14.23,0,0,0-1.62,3.12,13.37,13.37,0,0,0-.71,7.08c0,.09.09,0,.09-.05a14.64,14.64,0,0,1,1.19-7,13.66,13.66,0,0,1,1.7-2.81,14.16,14.16,0,0,1,1.13-1.31,7.35,7.35,0,0,0,1.08-1.08C50.67,346.89,50.45,346.43,50.16,346.57Z"/><path class="cls-28" d="M50.16,346.57a7.78,7.78,0,0,0-2.49,2.58,14.23,14.23,0,0,0-1.62,3.12,13.37,13.37,0,0,0-.71,7.08c0,.09.09,0,.09-.05a14.64,14.64,0,0,1,1.19-7,13.66,13.66,0,0,1,1.7-2.81,14.16,14.16,0,0,1,1.13-1.31,7.35,7.35,0,0,0,1.08-1.08C50.67,346.89,50.45,346.43,50.16,346.57Z"/><path class="cls-13" d="M41.38,358.4c-.18-4.14-4.66-7.42-11.05-9.32a17.4,17.4,0,0,0-17.95,4.77c-4.66,5.07-7.07,9.38-5.17,10.59s10.35,4.32,15.87,6,12.77,2.25,18.3-1S46.55,360.47,41.38,358.4Z"/><path class="cls-7" d="M41.38,358.4c-.18-4.14-4.66-7.42-11.05-9.32a17.4,17.4,0,0,0-17.95,4.77c-4.66,5.07-7.07,9.38-5.17,10.59s10.35,4.32,15.87,6,12.77,2.25,18.3-1S46.55,360.47,41.38,358.4Z"/><path class="cls-27" d="M41.73,357.94a17.57,17.57,0,0,0-6.94-1.86,32.3,32.3,0,0,0-6.95.09,43.18,43.18,0,0,0-7.19,1.52c-1.23.36-2.45.76-3.65,1.21a24.91,24.91,0,0,0-3.34,1.37s-.07.16,0,.15c1.17-.25,2.32-.71,3.46-1.06s2.47-.74,3.72-1.06A47.39,47.39,0,0,1,27.93,357a31,31,0,0,1,7.21,0,43.2,43.2,0,0,1,6.53,1.6C42.11,358.71,42,358.08,41.73,357.94Z"/><path class="cls-28" d="M41.73,357.94a17.57,17.57,0,0,0-6.94-1.86,32.3,32.3,0,0,0-6.95.09,43.18,43.18,0,0,0-7.19,1.52c-1.23.36-2.45.76-3.65,1.21a24.91,24.91,0,0,0-3.34,1.37s-.07.16,0,.15c1.17-.25,2.32-.71,3.46-1.06s2.47-.74,3.72-1.06A47.39,47.39,0,0,1,27.93,357a31,31,0,0,1,7.21,0,43.2,43.2,0,0,1,6.53,1.6C42.11,358.71,42,358.08,41.73,357.94Z"/><path class="cls-13" d="M54.55,352.24c-4.56-3.63-3-12.33,12.93-12.79s27.38,3.7,26.87,8.84c2.57,2.57,1.27,9.77-11.66,12S51.25,361.44,54.55,352.24Z"/><path class="cls-7" d="M54.55,352.24c-4.56-3.63-3-12.33,12.93-12.79s27.38,3.7,26.87,8.84c2.57,2.57,1.27,9.77-11.66,12S51.25,361.44,54.55,352.24Z"/><path class="cls-27" d="M86.84,348.34a68.82,68.82,0,0,0-14.27-.83A55,55,0,0,0,59.4,349a18.48,18.48,0,0,0-3.21,1.19,15.89,15.89,0,0,0-1.41.75c-.36.22-.76.41-.89.84a.43.43,0,0,0,.47.5,16.91,16.91,0,0,0,2.8-1.38,22.19,22.19,0,0,1,2.76-1,34.91,34.91,0,0,1,5.55-1.09A98,98,0,0,1,79,348.09c2.63,0,5.24.23,7.86.44C86.89,348.54,86.92,348.36,86.84,348.34Z"/><path class="cls-28" d="M86.84,348.34a68.82,68.82,0,0,0-14.27-.83A55,55,0,0,0,59.4,349a18.48,18.48,0,0,0-3.21,1.19,15.89,15.89,0,0,0-1.41.75c-.36.22-.76.41-.89.84a.43.43,0,0,0,.47.5,16.91,16.91,0,0,0,2.8-1.38,22.19,22.19,0,0,1,2.76-1,34.91,34.91,0,0,1,5.55-1.09A98,98,0,0,1,79,348.09c2.63,0,5.24.23,7.86.44C86.89,348.54,86.92,348.36,86.84,348.34Z"/></g></g><g id="Icons"><g id="Envelope"><path class="cls-13" d="M33.4,108.47,104,67.69l2.83,1.63a2.94,2.94,0,0,1,1.32,2.3v52.11a2.94,2.94,0,0,1-1.32,2.3l-68,39.25a3,3,0,0,1-2.66,0l-1.5-.87a3,3,0,0,1-1.33-2.3Z"/><path class="cls-7" d="M103.65,63.11l.29-.16-1.1-.64h0l-.29-.14L71.46,50.65a2.16,2.16,0,0,0-2.39.76L34.3,102.2a6,6,0,0,0-.9,2.89v3.38l1.08.62L104,67.69V64.31A2.25,2.25,0,0,0,103.65,63.11Z"/><path class="cls-31" d="M70.51,51.66a1.86,1.86,0,0,0-.36.38L35.38,102.82a5.39,5.39,0,0,0-.65,1.45l-1.08-.62a5.83,5.83,0,0,1,.28-.77,0,0,0,0,0,0,0l.15-.31,0,0a2.16,2.16,0,0,1,.18-.3L69.07,51.41l.18-.21.18-.17Z"/><path class="cls-32" d="M103.93,62.94a2,2,0,0,0-.3-.14L72.54,51.28a2.12,2.12,0,0,0-2,.38L69.43,51a2.17,2.17,0,0,1,2-.38l31.09,11.52a1.92,1.92,0,0,1,.29.14Z"/><path class="cls-7" d="M70.15,52,35.38,102.82a6,6,0,0,0-.9,2.9v3.37l70.64-40.78V64.94a2.45,2.45,0,0,0-1.49-2.14L72.54,51.28A2.13,2.13,0,0,0,70.15,52Z"/><polygon class="cls-5" points="103.2 126.04 103.2 48.95 39.54 85.7 39.54 162.8 103.2 126.04"/><path class="cls-17" d="M103,49.26v76.68l-63.3,36.54V85.81L103,49.26m.36-.63-64,37v77.51l64-37V48.63Z"/><polygon class="cls-33" points="39.36 85.6 37.94 84.78 101.96 47.81 103.38 48.63 39.36 85.6"/><polygon class="cls-2" points="37.94 84.78 37.94 162.28 39.36 163.11 39.36 85.6 37.94 84.78"/><path class="cls-2" d="M45.24,95.43a.61.61,0,0,0,.32-.08L97.82,65.17a.64.64,0,1,0-.64-1.11L44.92,94.24a.63.63,0,0,0-.23.87A.61.61,0,0,0,45.24,95.43Z"/><path class="cls-2" d="M45.24,105.62a.61.61,0,0,0,.32-.08L97.82,75.36a.64.64,0,1,0-.64-1.11L44.92,104.43a.63.63,0,0,0-.23.87A.61.61,0,0,0,45.24,105.62Z"/><path class="cls-2" d="M45.24,115.82a.62.62,0,0,0,.32-.09L97.82,85.55a.64.64,0,1,0-.64-1.11L44.92,114.62a.65.65,0,0,0,.32,1.2Z"/><path class="cls-13" d="M108.17,71.29h0c-.06-.38-.26-.49-.52-.31a1.42,1.42,0,0,0-.34.35l-.15.21L78.1,115.7l-4.33,6a2.48,2.48,0,0,1-2.39.89l-3.74-.89L39.05,111.22a1.43,1.43,0,0,0-.58,0l-.22.07,1.08-.62,27.4,10L70.34,122a2.46,2.46,0,0,0,2.39-.9l4.34-6,29.19-44.36a.93.93,0,0,1,.33-.3l-2.53-1.46,1.06-.61,1.75,1A3,3,0,0,1,108.17,71.29Z"/><path class="cls-13" d="M106.4,124.42l-.07.11-29.44-9.34a5.08,5.08,0,0,0-6.36,2L39.06,163.92l-1.16.67h0a1,1,0,0,1-.9.1l32.36-48.21a5.08,5.08,0,0,1,6.37-2Z"/><path class="cls-15" d="M106.86,69.31l-1.74-1-1.06.61,2.52,1.45h0a1,1,0,0,0-.33.3L77.11,115l-.14.22.19.06,1,.33,29-44,.15-.2a1.42,1.42,0,0,1,.34-.35c.26-.18.46-.08.52.3h0A3,3,0,0,0,106.86,69.31Z"/><path class="cls-13" d="M39.63,112.07l-6.23-3.6v53.64a3,3,0,0,0,1.33,2.3l1.5.87a3,3,0,0,0,2.66,0l.74-.44Z"/><path class="cls-15" d="M39.63,112.07l-6.23-3.6v53.64a3,3,0,0,0,1.33,2.3l1.5.87a3,3,0,0,0,2.66,0l.74-.44Z"/><path class="cls-13" d="M108.2,71.62v52.11a2.63,2.63,0,0,1-.42,1.34,2.74,2.74,0,0,1-.78.87l0,0-.08.06-68,39.24a1,1,0,0,1-.92.11.78.78,0,0,1-.39-.63,1.94,1.94,0,0,1,0-.24V112.4a1.16,1.16,0,0,1,1.49-1.18l28.59,10.52,3.74.89a2.48,2.48,0,0,0,2.39-.89l4.33-6,29.05-44.16.15-.21C107.79,70.65,108.2,70.77,108.2,71.62Z"/><path class="cls-7" d="M108.2,71.62v52.11a2.63,2.63,0,0,1-.42,1.34,2.74,2.74,0,0,1-.78.87l0,0-.08.06-68,39.24a1,1,0,0,1-.92.11.78.78,0,0,1-.39-.63,1.94,1.94,0,0,1,0-.24V112.4a1.16,1.16,0,0,1,1.49-1.18l28.59,10.52,3.74.89a2.48,2.48,0,0,0,2.39-.89l4.33-6,29.05-44.16.15-.21C107.79,70.65,108.2,70.77,108.2,71.62Z"/><path class="cls-13" d="M106.28,124.59,77,115.19a5.17,5.17,0,0,0-6.44,2l-1.16-.68c1.34-2.14,3.71-2.93,6.43-2Z"/><path class="cls-34" d="M106.28,124.59,77,115.19a5.17,5.17,0,0,0-6.44,2l-1.16-.68c1.34-2.14,3.71-2.93,6.43-2Z"/><path class="cls-15" d="M106.87,126,107,126l0,0a2.74,2.74,0,0,0,.78-.87,2.65,2.65,0,0,0,.41-1.32l-30.08-8L98.25,131Z"/><path class="cls-13" d="M107.78,125.07a2.74,2.74,0,0,1-.78.87l0,0-68.06,39.3h0a1,1,0,0,1-.91.1l32.55-48.24a5.12,5.12,0,0,1,6.4-2Z"/><path class="cls-14" d="M107.78,125.07a2.74,2.74,0,0,1-.78.87h0L39,165.24l-.07,0a1,1,0,0,1-.91.1l32.55-48.24a5.12,5.12,0,0,1,6.4-2Z"/><path class="cls-35" d="M33.65,103.65l1.08.62a5.45,5.45,0,0,0-.25,1.45v3.37l-1.08-.62v-3.38A5.38,5.38,0,0,1,33.65,103.65Z"/><polygon class="cls-13" points="39.33 110.65 38.25 111.27 37.16 110.64 34.48 109.09 35.52 108.47 39.33 110.65"/><path class="cls-15" d="M39.38,110.67l-3.86-2.2-1,.62,2.68,1.55,1.09.63h0a.66.66,0,0,1,.2-.06,1.43,1.43,0,0,1,.58,0l2.17.8,25,9.19.38-.58Z"/><path class="cls-13" d="M70.52,117.15,38,165.38a.91.91,0,0,1-.41-.87v-.87l31.79-47.15,0,0Z"/><path class="cls-15" d="M70.52,117.15,38,165.38a.91.91,0,0,1-.41-.87v-.87l31.79-47.15,0,0Z"/></g><g id="Notification"><path class="cls-36" d="M179.88,30l-9.13-5.29h0c-5-2.83-11.91-2.38-19.52,2-15.33,8.85-27.76,30.38-27.76,48.08,0,8.84,3.1,15,8.1,18h0l8,4.59,2.46-4.11a28.19,28.19,0,0,0,8-3.1c15.33-8.85,27.76-30.38,27.76-48.08A29.65,29.65,0,0,0,176.9,35Z"/><path class="cls-36" d="M124.52,65.49a44.53,44.53,0,0,0-1,9.32c0,8.84,3.1,15,8.1,18h0l8,4.59,2.46-4.11a28.19,28.19,0,0,0,8-3.1,45.06,45.06,0,0,0,7.57-5.58Z"/><path class="cls-12" d="M159.68,31.59C144.34,40.44,131.91,62,131.91,79.67s12.43,24.88,27.76,16,27.76-30.38,27.77-48.08S175,22.74,159.68,31.59Z"/><path class="cls-24" d="M170.64,56.24v-6.8c0-7.76-4.72-11.33-10.54-8h0c-5.82,3.36-10.53,12.38-10.53,20.14v6.08A24.09,24.09,0,0,1,146,79.56l0,0a6.65,6.65,0,0,0-.86,3.11h0c0,2,1.19,2.86,2.66,2l24.61-14.21a6.36,6.36,0,0,0,2.66-5.08h0a2.49,2.49,0,0,0-.78-2l0,0C172.07,62.36,170.64,59.9,170.64,56.24Z"/><path class="cls-24" d="M165.16,76.77c0,3.73-2.26,8.06-5.06,9.67s-5.06-.1-5.06-3.82Z"/></g><g id="Icon"><path class="cls-2" d="M206.82,68.55l42.42-24.49L248.55,38c-.44-3.87-2-6.57-4.2-7.85l-5.9-3.4c-2.21-1.27-5.08-1.14-8.19.66L214,36.75c-6.23,3.6-11.51,12.76-12.39,21.48l-.69,6.92Z"/><path class="cls-25" d="M248.55,38.3c-.44-3.87-2-6.57-4.2-7.84s-5.08-1.14-8.19.66l-16.27,9.39c-6.22,3.59-11.5,12.75-12.38,21.48l-.69,6.91,42.42-24.49Z"/><path class="cls-25" d="M241.13,30.62a5.38,5.38,0,0,1,2.72.7c2,1.16,3.31,3.68,3.7,7.09l.62,5.46L208,67.06l.5-5c.84-8.38,6-17.29,11.88-20.72L236.66,32a9.08,9.08,0,0,1,4.47-1.36m0-1a10,10,0,0,0-5,1.5l-16.27,9.39c-6.22,3.59-11.5,12.75-12.38,21.48l-.69,6.91,42.42-24.49-.69-6.11c-.44-3.87-2-6.57-4.2-7.84a6.32,6.32,0,0,0-3.22-.84Z"/><path class="cls-2" d="M237.21,4.11c2.09,1.21,3.38,3.8,3.38,7.48,0,7.36-5.17,16.31-11.54,20-3.19,1.84-6.08,2-8.16.81L215.09,29c-2.09-1.2-3.38-3.79-3.38-7.47,0-7.36,5.17-16.31,11.54-20,3.19-1.84,6.08-2,8.16-.81Z"/><path class="cls-25" d="M229.05,31.58c-3.19,1.84-6.08,2-8.16.81s-3.38-3.79-3.38-7.48c0-7.36,5.16-16.31,11.54-20,3.19-1.84,6.07-2,8.16-.81s3.38,3.8,3.38,7.48C240.59,19,235.42,27.9,229.05,31.58Z"/><path class="cls-25" d="M234.2,4.35h0a5,5,0,0,1,2.51.63c1.86,1.07,2.88,3.42,2.88,6.61,0,7-5,15.61-11,19.12a9.57,9.57,0,0,1-4.66,1.45,4.92,4.92,0,0,1-2.5-.64c-1.86-1.07-2.88-3.42-2.88-6.61,0-7,5-15.61,11-19.12a9.48,9.48,0,0,1,4.65-1.44m0-1a10.43,10.43,0,0,0-5.15,1.57c-6.38,3.68-11.54,12.63-11.54,20,0,3.69,1.29,6.27,3.38,7.48a6,6,0,0,0,3,.77,10.48,10.48,0,0,0,5.16-1.58c6.37-3.68,11.54-12.63,11.54-20,0-3.68-1.29-6.27-3.38-7.48a6,6,0,0,0-3-.76Z"/></g></g><g id="Character"><g id="Chartacter"><g id="Bottom"><polygon points="411.54 293.18 406.91 291.41 408.44 288.27 411.29 290.94 411.54 293.18"/><path class="cls-10" d="M416.38,284.82s.17,3,.21,4-4,3.89-5,4.38l-.25-2.24a17.37,17.37,0,0,0-2.35,3.6c-.79,1.36-1.79,3.92-3.95,5.66-3.21,2.59-8.18,3.88-13.26,4s-8-1.1-9.41-2.2a3.37,3.37,0,0,1-1.52-3.68C381.17,297.07,416.38,284.82,416.38,284.82Z"/><path class="cls-11" d="M402.86,274.44l-.05-1.76c-.93,0-1.06,2.51-2.43,4.73a45.54,45.54,0,0,1-7.19,9.1c-5.16,4.66-9.77,7.58-12.07,9.68-3.09,2.81,2.29,7.32,10.57,6.9,4.11-.21,11.42-2.24,13.48-4.66s3.34-6.2,5-8,5.19-3.52,6.22-5.65c.57-1.18.29-3.92,0-6.26-.3-2.14-.34-5.42-1.55-5.16l-.09,1.1c-.5.93-1.65,2.47-5,3C408.08,277.79,403.14,277.91,402.86,274.44Z"/><path class="cls-37" d="M407.07,277.59c-1.58-.14-3.28-.67-3.93-2.1,0,0,0,0,0-.05a4,4,0,0,1-1.09,3.37c-1.49,1.72-10.9,13.89-10.9,13.89s8.76-10,10.43-11.92c2.49-2.79,3.27-3.12,5.53-3.19Z"/><path class="cls-37" d="M405,280.82a.51.51,0,0,0,.56.45.51.51,0,0,0,.45-.56.51.51,0,1,0-1,.11Z"/><path class="cls-37" d="M402.53,283.51A.51.51,0,1,0,403,283,.51.51,0,0,0,402.53,283.51Z"/><path class="cls-37" d="M400.08,286.2a.5.5,0,1,0,1-.11.5.5,0,0,0-.55-.45A.51.51,0,0,0,400.08,286.2Z"/><path class="cls-37" d="M397.62,288.89a.51.51,0,0,0,.56.45.51.51,0,1,0-.56-.45Z"/><path class="cls-37" d="M395.17,291.58a.5.5,0,0,0,.55.45.51.51,0,1,0-.55-.45Z"/><path class="cls-10" d="M405.51,281a.31.31,0,0,0,.13-.06.21.21,0,0,0,0-.29,8.37,8.37,0,0,0-5.72-2.29h0a.2.2,0,0,0-.19.21.22.22,0,0,0,.22.2,8.07,8.07,0,0,1,5.4,2.17A.23.23,0,0,0,405.51,281Z"/><path class="cls-10" d="M403.05,283.65a.26.26,0,0,0,.13-.06.21.21,0,0,0,0-.29,8.34,8.34,0,0,0-5.71-2.29h0a.21.21,0,0,0-.19.21.22.22,0,0,0,.22.2,8.07,8.07,0,0,1,5.4,2.17A.25.25,0,0,0,403.05,283.65Z"/><path class="cls-10" d="M400.6,286.35a.38.38,0,0,0,.13-.06.21.21,0,0,0,0-.29,8.31,8.31,0,0,0-5.71-2.29h0a.2.2,0,0,0-.19.21.19.19,0,0,0,.21.19,8.09,8.09,0,0,1,5.41,2.18A.23.23,0,0,0,400.6,286.35Z"/><path class="cls-10" d="M398.14,289a.31.31,0,0,0,.13-.06.21.21,0,0,0,0-.29,8.34,8.34,0,0,0-5.72-2.29h0a.2.2,0,0,0-.19.21.2.2,0,0,0,.22.19A8.06,8.06,0,0,1,398,289,.25.25,0,0,0,398.14,289Z"/><path class="cls-10" d="M395.68,291.73a.26.26,0,0,0,.13-.06.21.21,0,0,0,0-.29,8.31,8.31,0,0,0-5.71-2.29h0a.19.19,0,0,0-.18.21.19.19,0,0,0,.21.19,8.07,8.07,0,0,1,5.41,2.18A.22.22,0,0,0,395.68,291.73Z"/><path class="cls-10" d="M449.49,307.78c.71,4,1.64,6.53,3.33,8.7s4.73,2.41,7,1.94a9.69,9.69,0,0,0,7.51-7.41c.73-2.73.22-5.85-.83-9.48Z"/><path class="cls-11" d="M458.3,277.39c1.13-.05,2.09,5.26,3.37,10.55,1.37,5.66,3.51,8.66,4.55,12.46,1.43,5.28,1.34,7.74-.16,11.21s-9.28,7.72-13.13,3.46c-3.13-3.48-3.74-7.68-4.14-13.08a134.2,134.2,0,0,0-1.38-13.7c-.69-4-1.43-7.88-.52-8.44.14.58.31,1.33.45,1.9s.49,2.6,1.11,2.55a8.72,8.72,0,0,0-.16-1.52,1.75,1.75,0,0,1,.15-1.33,2,2,0,0,1,1.17-.7,30.08,30.08,0,0,1,3.25-.91c.54-.11,1.1-.21,1.65-.27a18.27,18.27,0,0,1,2.94-.22,1,1,0,0,1,.66.47,1.59,1.59,0,0,1,.13.61,4.6,4.6,0,0,0,.28,1.09c.06.15.19.33.34.27s.16-.21.14-.34c-.07-.65-.21-1.11-.33-1.87-.05-.34-.17-.81-.21-1.16S458.37,277.73,458.3,277.39Z"/><path class="cls-37" d="M462.29,302.22a.39.39,0,1,1-.47-.3A.39.39,0,0,1,462.29,302.22Z"/><path class="cls-37" d="M461.48,298.55a.4.4,0,0,1-.3.47.39.39,0,0,1-.17-.77A.4.4,0,0,1,461.48,298.55Z"/><path class="cls-37" d="M460.71,295.09a.39.39,0,1,1-.47-.3A.4.4,0,0,1,460.71,295.09Z"/><path class="cls-37" d="M460,291.68a.38.38,0,0,1-.3.46.39.39,0,0,1-.47-.29.4.4,0,0,1,.3-.47A.4.4,0,0,1,460,291.68Z"/><path class="cls-37" d="M451.21,293.27a.4.4,0,0,1-.3.47.39.39,0,0,1-.47-.3.38.38,0,0,1,.3-.46A.39.39,0,0,1,451.21,293.27Z"/><path class="cls-37" d="M452,296.71a.39.39,0,0,1-.77.17.39.39,0,0,1,.77-.17Z"/><path class="cls-37" d="M452.74,300.17a.39.39,0,1,1-.77.17.39.39,0,0,1,.77-.17Z"/><path class="cls-37" d="M453.55,303.84a.39.39,0,0,1-.29.47.4.4,0,0,1-.47-.3.38.38,0,0,1,.3-.46A.38.38,0,0,1,453.55,303.84Z"/><polygon class="cls-37" points="457.04 305.2 450.96 279.65 452.4 279.45 457.04 305.2"/><path class="cls-10" d="M462,302.5h-.06c-2.64-.26-7,.52-8.62,1.57A.2.2,0,0,1,453,304a.21.21,0,0,1,.06-.28c1.71-1.1,6.11-1.9,8.87-1.62a.19.19,0,0,1,.18.21A.21.21,0,0,1,462,302.5Z"/><path class="cls-10" d="M461.14,298.83a.14.14,0,0,1-.11,0c-2.07-.69-6.72.39-8.57,1.58a.21.21,0,0,1-.28-.06.2.2,0,0,1,.06-.27c1.93-1.25,6.73-2.36,8.92-1.62a.19.19,0,0,1,.12.25A.18.18,0,0,1,461.14,298.83Z"/><path class="cls-10" d="M460.37,295.37a.21.21,0,0,1-.11,0c-2.07-.69-6.72.39-8.57,1.58a.2.2,0,0,1-.27-.06.18.18,0,0,1,.05-.27c1.93-1.25,6.73-2.36,8.92-1.62a.19.19,0,0,1,.12.25A.18.18,0,0,1,460.37,295.37Z"/><path class="cls-10" d="M459.61,292h-.11c-2.07-.7-6.72.38-8.57,1.58a.2.2,0,0,1-.27-.06.2.2,0,0,1,.06-.28c1.92-1.24,6.72-2.35,8.91-1.62a.21.21,0,0,1,.13.25A.26.26,0,0,1,459.61,292Z"/><path class="cls-10" d="M452.27,147.14c2.6,32.92,4.19,77.75,4.19,77.75.24,2.5,2.64,13.17,3.85,25.5,1.27,13,2.31,37.38,2.31,37.38s-9.1,4.89-16.48,2.44c0,0-7.9-41-11.68-56.38-3.58-14.51-9.18-42-9.18-42L421.47,219s.51,9.38.23,15.95c-.33,7.64-5.2,44.34-5.2,44.34s-9.9,5.83-17.55,0c0,0-1.33-50.62-1.54-59.8-.43-18,1.68-52.95,2.34-76.21Z"/><path d="M438.89,185q1,11.83,2.3,23.65.62,5.9,1.29,11.81l.67,5.9.35,3c.11,1,.31,1.95.46,2.93,1.3,7.81,3.29,22,4.71,29.79s2.92,15.57,4.54,23.33q-1.54-11.79-3.38-23.51c-1.22-7.82-3.13-22-4.47-29.81-.16-1-.36-1.95-.48-2.93l-.36-2.95-.74-5.89q-.75-5.88-1.54-11.76Q440.68,196.77,438.89,185Z"/><path d="M402.42,182.79c-.82,7.36-1.26,14.76-1.58,22.16s-.6,14.82-.32,22.21.37,19.81.65,27.21.61,14.79,1.05,22.18q.16-11.1.07-22.2c-.05-7.4-.18-19.8-.34-27.2l-.14-5.54,0-1.39,0-1.37,0-2.78L402,205l.18-11.09C402.18,190.19,402.3,186.49,402.42,182.79Z"/><path d="M425.28,191.82l-3.21-18s-8.94-1.3-13.52-5.41c0,0,3,5.44,11.38,7.57l3.2,15.93L421.47,219Z"/></g><g id="Top"><g id="Arm"><path class="cls-38" d="M386.83,91.47c.06-1.59.8-2.8,2.67-4.07A13.32,13.32,0,0,0,393.33,84a37.73,37.73,0,0,1,3.87-4.85c1.07-.87-.21-2.1-2.08-1.89S389,79.66,388,81.9A19.89,19.89,0,0,0,386.83,91.47Z"/><path class="cls-39" d="M411.11,84c-4.3.33-9.45.33-13.9,8.56-4.59,8.49-8.42,15.2-8.42,15.2A80.55,80.55,0,0,1,387,95.86c-.37-5.89-.22-8.47,1.65-11.86a96.47,96.47,0,0,0,7.17-11.57A59,59,0,0,0,386,73.78a2,2,0,0,0-1.24.87c-.17.33-.16.72-.31,1.06a2.29,2.29,0,0,1-1.17,1c-1,.47-2.14.88-2.61,1.86-.26.56-.25,1.2-.47,1.76a7,7,0,0,1-2,2.21,6.07,6.07,0,0,0-1.44,3.13c-1.5,6.07-1.91,12.24-1.91,21.64,0,6.53.39,15.47,2.62,20.41s6.73,10.52,13.33,3.92,18.12-24.94,18.12-24.94Z"/><path class="cls-38" d="M389.37,82.84a11.12,11.12,0,0,0-3.07,1.8,3.75,3.75,0,0,1,0,3.31c-.8,2-2.28,2.78-1.9,4.7a3.25,3.25,0,0,1,1.75-3C388.39,88.31,389.63,84,389.37,82.84Z"/><path class="cls-11" d="M410.66,83.77c-4.09.44-8.28.66-12.31,6.2s-9.71,17.17-9.71,17.17l.15.66s3.32,4.22,4,12.56a17.35,17.35,0,0,1-4.51,13.29,7.06,7.06,0,0,1-1.95.83s1.65,1.21,4-.47,20.75-28,20.75-28Z"/><path class="cls-10" d="M388.53,106.63l.26,1.17s2.17,7.58-.59,13.34-6.75,6.33-8.82,6.15c-2.27-.19-3-3-3-3l-.42-2a1.69,1.69,0,0,0-.51,2,52.45,52.45,0,0,0,3.12,7c1.25,2.28,5.5,5.56,9.1,3.56s5.88-6.92,5.88-13.45-1.5-10.71-2.51-12.1S388.2,105,388.2,105Z"/></g><g id="Top-2" data-name="Top"><g id="Chest"><path class="cls-12" d="M450.83,88.49s4.94,4.4,3.63,16.32c-1.14,10.37-1.66,19.07-1.79,23.09-.19,6.17.68,27.22.68,27.22-8.89,11.47-48.59,9.88-53.79-.06,0,0,.27-14.28.29-28.07,0-10.1.87-19.39,2.14-25.34,1.71-8,4.43-13.39,6.09-15L421.19,83l12-.59Z"/></g></g><g id="Pen"><path class="cls-9" d="M448.07,20.39a4.19,4.19,0,0,0-7.14-4.4h0l-2.22,3.6a2.09,2.09,0,0,0,.15,2.1,6.53,6.53,0,0,0,5.05,3.11,2.08,2.08,0,0,0,1.95-.81l2.21-3.6Z"/><path class="cls-11" d="M443.91,24.8a2.08,2.08,0,0,0,1.95-.81l2.21-3.6h0a4.19,4.19,0,0,0,.18-4.07h0c.37,1.13-.69,2.83-1.92,4.82s-2.73,2.95-5.75,1.26c-2.2-1.23-1.93-2.57-1.62-3.21l-.25.4a2.09,2.09,0,0,0,.15,2.1A6.53,6.53,0,0,0,443.91,24.8Z"/><path class="cls-40" d="M447.84,37.61A13,13,0,1,0,425.66,24h0c-1,1.63-.93,3.94.46,6.52,2.79,5.17,9.81,9.49,15.68,9.66,2.94.09,5-.89,6-2.52Z"/><path class="cls-13" d="M447.38,31.08c-2.79-5.17-9.81-9.49-15.68-9.66-2.94-.08-5,.89-6,2.53l-48.74,79.13c-1,1.64-.94,3.94.46,6.52,2.79,5.17,9.81,9.5,15.68,9.66,2.93.09,5-.88,6-2.52l48.75-79.13C448.85,36,448.77,33.66,447.38,31.08Z"/><path class="cls-7" d="M447.38,31.08c-2.79-5.17-9.81-9.49-15.68-9.66-2.94-.08-5,.89-6,2.53l-48.74,79.13c-1,1.64-.94,3.94.46,6.52,2.79,5.17,9.81,9.5,15.68,9.66,2.93.09,5-.88,6-2.52l48.75-79.13C448.85,36,448.77,33.66,447.38,31.08Z"/><path class="cls-13" d="M390.3,124.22c-6-.17-13.25-4.61-16.12-9.93-1.43-2.65-1.5-5-.47-6.71l3.75-6.08c1-1.69,3.19-2.68,6.21-2.6,6,.17,13.25,4.62,16.12,9.93,1.43,2.66,1.51,5,.47,6.71l-3.75,6.09C395.47,123.31,393.32,124.31,390.3,124.22Z"/><path class="cls-40" d="M390.3,124.22c-6-.17-13.25-4.61-16.12-9.93-1.43-2.65-1.5-5-.47-6.71l3.75-6.08c1-1.69,3.19-2.68,6.21-2.6,6,.17,13.25,4.62,16.12,9.93,1.43,2.66,1.51,5,.47,6.71l-3.75,6.09C395.47,123.31,393.32,124.31,390.3,124.22Z"/><path class="cls-13" d="M379.92,105c6,.17,13.25,4.61,16.12,9.93,1.43,2.65,1.51,5,.47,6.71s-3.19,2.68-6.21,2.59c-6-.17-13.25-4.61-16.12-9.93-1.43-2.65-1.5-5-.47-6.71S376.9,104.9,379.92,105Z"/><path class="cls-41" d="M379.92,105c6,.17,13.25,4.61,16.12,9.93,1.43,2.65,1.51,5,.47,6.71s-3.19,2.68-6.21,2.59c-6-.17-13.25-4.61-16.12-9.93-1.43-2.65-1.5-5-.47-6.71S376.9,104.9,379.92,105Z"/><path class="cls-13" d="M330.41,181.29c.9-1.46,2.76-2.32,5.38-2.25,5.22.15,11.48,4,14,8.61,1.24,2.3,1.31,4.35.41,5.81h0l-3,2.94h0a5.87,5.87,0,0,1-4.44,1.44,16.68,16.68,0,0,1-12.86-7.93,5.81,5.81,0,0,1-.72-4.61h0Z"/><path class="cls-41" d="M330.41,181.29c.9-1.46,2.76-2.32,5.38-2.25,5.22.15,11.48,4,14,8.61,1.24,2.3,1.31,4.35.41,5.81h0l-3,2.94h0a5.87,5.87,0,0,1-4.44,1.44,16.68,16.68,0,0,1-12.86-7.93,5.81,5.81,0,0,1-.72-4.61h0Z"/><path class="cls-7" d="M335.79,179c5.22.15,11.48,4,14,8.61,1.24,2.3,1.31,4.35.41,5.81l44-71.37c.89-1.46.83-3.52-.41-5.82-2.49-4.6-8.74-8.45-14-8.6-2.61-.07-4.48.79-5.37,2.25l-44,71.37h0C331.31,179.83,333.17,179,335.79,179Z"/><path class="cls-7" d="M346.78,196.65c.84-1.3.8-3.14-.35-5.23a16.19,16.19,0,0,0-12.56-7.68c-2.33-.05-4,.7-4.79,2h0l0,0h0c-2.8,4.58-8.3,18.42-7.65,25.32l.13.07a2.44,2.44,0,0,0,.32,1.08,6,6,0,0,0,4.66,2.83,2.48,2.48,0,0,0,1.06-.19h0C334.05,212.4,344,201.17,346.78,196.65Z"/><path class="cls-42" d="M393.72,116.27a13.76,13.76,0,0,0-1.68-2.38l-44,71.37a12.89,12.89,0,0,1,1.67,2.39l.22.44,44-71.37C393.86,116.57,393.8,116.42,393.72,116.27Zm7.12-4.56a6,6,0,0,0-.17-.73L444,40.58c5.69-9.24,5.66-13.13,3.6-16.95,1.23,3.77-4,12.19-4.66,13.29l-43.74,71c.2.31.38.62.55.92L396,114.92a10.26,10.26,0,0,1,1.06,2.87Zm-76.4,102.87,2.28-1s1.66.17,6.6-4.33,7.92-9.37,13.11-17.8a12,12,0,0,0-2-2.72c-.05.11-5.84,11.34-13.1,19.27a42,42,0,0,1-7.24,6.4Z"/><path class="cls-9" d="M323.26,211.42l-1.81,3c-.8,1.29-2.08,4.93-1.06,5.56s3.71-2.15,4.51-3.44h0l1.82-2.95s0-.76-1.4-1.6S323.26,211.42,323.26,211.42Z"/><path class="cls-10" d="M321.71,219.69a1.3,1.3,0,0,0-.61-.89,1.34,1.34,0,0,0-1.08-.15c-.06.61.06,1.1.37,1.29S321.18,220,321.71,219.69Z"/></g><g id="Hand"><path class="cls-39" d="M395.79,72.43c1.11,0,3.18,1.21,4.8,2.26s3.12,1.14,2.59,2.32A2.35,2.35,0,0,1,401,78a9.18,9.18,0,0,1-2.63-.5c1.91,1.65,2.32,2.3,1.78,2.89-.78.83-2.22.73-3.37.16.65.66,1.39,1,1.05,1.64s-1.51.83-2.89.58a8.4,8.4,0,0,1-2.52-.88c-1.45.39-3.08,1-3.08,1A35.39,35.39,0,0,1,395.79,72.43Z"/><path class="cls-38" d="M396.81,80.55c-.8-.45-1.55-1-2.31-1.47a3.55,3.55,0,0,0-2.57-.28c-.91.11-1.81.28-2.7.45s-1.8.31-2.72.43c.88-.25,1.77-.47,2.67-.68a27.4,27.4,0,0,1,2.7-.53,8.11,8.11,0,0,1,1.4-.07,2.57,2.57,0,0,1,1.35.46C395.4,79.39,396.08,80,396.81,80.55Z"/><path class="cls-38" d="M398.4,77.5c-.7-.44-1.39-.89-2.11-1.3-.35-.2-.72-.43-1.06-.58a3.24,3.24,0,0,0-1.17-.1c-.81,0-1.63.15-2.45.24s-1.64.21-2.47.29c.8-.21,1.61-.38,2.43-.54a20.51,20.51,0,0,1,2.48-.32,3.33,3.33,0,0,1,1.28.15,7.37,7.37,0,0,1,1.1.64A18.12,18.12,0,0,1,398.4,77.5Z"/></g><g id="Head"><path class="cls-10" d="M436.6,77.44c.78-4,4.85-8,6.73-11.41s2.9-5.85,2.79-9a6.75,6.75,0,0,0-2.12-5.1c.36-6.8-6.47-10.31-11.08-11.55-5.35-1.45-9.73-1.8-15.28.52a12.14,12.14,0,0,0-6.85,6.48,14.37,14.37,0,0,0-.87,6.53,4,4,0,0,0,.56,1.22c.16.16.13.72.17.94a4.37,4.37,0,0,0,.63,1.78A6.38,6.38,0,0,0,413.51,60c2.89,1.48,6.12,2,9.26,2.76l3.73.88c.21.06,1.35.15,1.47.35Z"/><path class="cls-39" d="M441.4,72.47a3.85,3.85,0,0,1-4.68-.26l.73,12c-2.34,5.36-8.84,3.06-16.26,12.38,0,0-2.38-3.9-.43-11.63l-.35-4a43.76,43.76,0,0,1-4.72-.34c-3.34-.51-5-3.46-6-7.86a28.27,28.27,0,0,1-.15-12,11.61,11.61,0,0,0,.26-3.27,15.45,15.45,0,0,1,1.16-7c3.5-2.66,11.46-3.39,18.72,1.31-1,4.37.64,7.91,3.8,9.67-.19,1.18-.42,4.18,1.54,4.18,1.4,0,1.55-1.77,3-3.28s4.87-1.84,6.11.49A7.59,7.59,0,0,1,441.4,72.47Z"/><path class="cls-38" d="M420.41,80.89c4.95-.44,8.87-.92,11.55-4.43a31,31,0,0,0,3.13-5.77A23.93,23.93,0,0,1,432.77,78c-1.3,2.25-4.45,4.25-12.21,4.71Z"/><polygon class="cls-38" points="419.68 58.09 412.85 66.09 418.52 67.98 419.68 58.09"/><path class="cls-10" d="M423.45,56.44l2.94,1.7a1.77,1.77,0,0,0-.65-2.38A1.65,1.65,0,0,0,423.45,56.44Z"/><path class="cls-10" d="M411.46,57.4l3.12-1.4a1.63,1.63,0,0,0-2.21-.9A1.8,1.8,0,0,0,411.46,57.4Z"/><path class="cls-10" d="M422.9,61a1.39,1.39,0,1,0,1.58-1.24A1.42,1.42,0,0,0,422.9,61Z"/><path class="cls-43" d="M424.06,70.26l-5.68.76a3,3,0,0,0,3.32,2.52A2.79,2.79,0,0,0,424.06,70.26Z"/><path class="cls-38" d="M420.14,73.3a3.38,3.38,0,0,1,3.93-2.22,2.76,2.76,0,0,1-2.37,2.46A2.94,2.94,0,0,1,420.14,73.3Z"/><path class="cls-10" d="M413.78,59.07a1.44,1.44,0,1,0,1.31,1.51,1.41,1.41,0,0,0-1.31-1.51"/></g><g id="Tie"><path class="cls-11" d="M421.19,96.54a17.2,17.2,0,0,0,2.69-2.28c1.21-1.3,1.78-1.89,2.25-1.45a30.42,30.42,0,0,1,3.11,5.35c.53,1.19.43,1.18,2.06.1a29.12,29.12,0,0,0,7.4-7.13,21.82,21.82,0,0,0,2.94-5.87s-1.86-2.57-2.41-3.55c-1.05-1.9-1-2.68-2.08-2.51v1.34c-.19,1.65-2.58,3.14-4.89,5.13s-6,3.9-6.93,4.75C424.69,91,421.19,96.54,421.19,96.54Z"/><path class="cls-11" d="M414.56,95.34c.26.68,2.41-4.6,3.46-4.49.51,0,1.46,2.65,2,3.63s.84,1.44,1.19,2.06c-.64-1.59-.82-5.68-.95-6.74a18.81,18.81,0,0,1,.52-4.89l-.35-4c-.28,0-.6,0-1,0A16.77,16.77,0,0,0,418,82.68c-1,1.68-2.92,4.74-3.26,6.75A17.66,17.66,0,0,0,414.56,95.34Z"/></g><path class="cls-11" d="M448.67,87.75c7.51,2.41,12.41,3.48,15.08,9s7.27,19.34,9.82,27.69c2.18,7.14,3.32,13.64,1.73,16.88l-15.76-5.65L451,113.29S443.74,95.41,448.67,87.75Z"/><path class="cls-10" d="M457.52,124.68c1.4,1.73,2.94,2.37,6.3,3.72,3.13,1.26,6.74,2.42,8.76,5.63-.7-3-2.46-4.46-6.38-6.39s-9.63-4.15-9.63-4.15Z"/><path class="cls-39" d="M457.52,124.68c1.4,1.73,2.94,2.37,6.3,3.72,3.13,1.26,6.74,2.42,8.76,5.63,1.78,2.83,3.67,5.16,2.72,7.34-.65,1.51-4.87,2.66-8.94,2.62s-7-3.25-11.21-5.92c-3.63-2.29-5.55-3.77-5.55-3.77Z"/><path class="cls-39" d="M450.91,128.86c1.49-1.5,1.76-3,4-4.29s3.61-1.22,6-2.43,4.27-1.82,6.05-1.24,1.5,1.6.16,2.44-3.63,2-5.22,3.12-3.16,1.83-3.16,3.85a90.16,90.16,0,0,0,.72,9.57c.44,3.39,1.11,6.13.86,6.5s-1.71.53-2.6-1.36-2.06-8.78-2.06-8.78-.65,4.78-.92,8.08-.37,5.81-.46,6.51-2.43.17-2.81-2.32.1-9.85.1-9.85-1.94,3.35-3.18,5.53-2.79,5.14-3.3,5.87-2-.56-1.64-2.54,2.89-6.82,2.89-6.82-3.06,3.21-3.6,3.52-2.16.06-1.61-2.12c.38-1.46,1.31-2.39,3.77-5.2s2.42-4,3.19-5.28C449,129.93,449.82,130,450.91,128.86Z"/><path class="cls-38" d="M466.91,120.9a2.83,2.83,0,0,1,.84.45.77.77,0,0,1,.32.8,2.61,2.61,0,0,1-1.33,1.24l-3.42,1.86a17,17,0,0,0-1.65,1c-.52.37-1.07.71-1.6,1.11a4.12,4.12,0,0,0-1.36,1.53,4.48,4.48,0,0,0-.29,2q.15,3.9.64,7.76c.17,1.29.38,2.57.62,3.84l.38,1.91a5.9,5.9,0,0,1,.21,1.91,6,6,0,0,0-.07-1.93l-.26-1.93c-.18-1.28-.34-2.56-.46-3.85-.24-2.57-.46-5.15-.51-7.72a3.88,3.88,0,0,1,.22-1.79,3.64,3.64,0,0,1,1.18-1.36c.5-.38,1.05-.73,1.58-1.12s1-.73,1.59-1.07l3.33-2a2.81,2.81,0,0,0,1.34-1.44.88.88,0,0,0-.42-.88A2.6,2.6,0,0,0,466.91,120.9Z"/><path class="cls-38" d="M457,130c-2.45,1.09-4.85,0-5.18-.62C452,131.07,455.36,132.05,457,130Z"/><path class="cls-38" d="M441,143.36a1.12,1.12,0,0,0,1.54-.1c.62-.52,2.14-2.23,2.83-3s3.05-3.59,3.05-3.59l-2.15,4s-3.06,3.21-3.6,3.52A1.19,1.19,0,0,1,441,143.36Z"/></g></g></g><g id="Speech_Bubble-2" data-name="Speech Bubble"><g id="Speech_Bubble-3" data-name="Speech Bubble"><g id="Speech_Bubble-4" data-name="Speech Bubble"><path class="cls-25" d="M394.69,14a20.58,20.58,0,0,1,6.07,13.9l-.05,2.37a20.64,20.64,0,0,1-41.15.14l-.07-2.36a20.64,20.64,0,0,1,35.2-14Z"/><path class="cls-9" d="M364.2,12.9a22.41,22.41,0,0,0,29,34l6.39,2.77a1.3,1.3,0,0,0,1.71-1.72l-2.85-6.36A22.41,22.41,0,0,0,364.2,12.9ZM394.66,14a20.57,20.57,0,0,1,6.1,13.9l0,2.36a20.65,20.65,0,0,1-41.16.22l-.07-2.36A20.65,20.65,0,0,1,394.66,14Z"/></g><g id="Check"><path class="cls-7" d="M377.15,39.93a3.09,3.09,0,0,1-2.25-1l-7-7.45a3.08,3.08,0,0,1,4.5-4.21L377,32.14l10.72-13.58a3.08,3.08,0,1,1,4.83,3.82L379.56,38.76a3.05,3.05,0,0,1-2.28,1.17Z"/></g></g></g></g></svg>