<svg xmlns="http://www.w3.org/2000/svg" viewBox="0 0 3250 2216.45"><defs><style>.cls-1{fill:#f7c04a;}.cls-2{fill:#539165;}.cls-3{fill:#f8f5e4;}.cls-4{fill:#3f497f;}.cls-5{fill:#525f93;}.cls-6{fill:#333e6d;}.cls-7{fill:#fff;}.cls-8{fill:#d1d7f7;}.cls-9{fill:#fffffd;}.cls-10{fill:#2f9496;}.cls-11{fill:#e4e7f9;}</style></defs><g id="Слой_2" data-name="Слой 2"><g id="Layer_1" data-name="Layer 1"><path class="cls-1" d="M3102.58,1047.43c-14.1,194.75-122.72,370.39-249.09,519.26l-58.59,71.49a1049.07,1049.07,0,0,1-380,291.27l-2.26,1c-71.62,32.31-143.55,64.79-209.49,107.54q-1.38.9-2.7,1.86c-7.32,5.35.5,16.45,8.18,11.61,59.89-37.74,139.42-46.24,202.6-13.17,56.33,29.49,92.91,88.47,102.39,151a7.14,7.14,0,0,1-7.05,8.21H333.9a7.1,7.1,0,0,1-4.66-1.72c-55.84-48.06-96.5-116.84-94.28-190C238.54,1888.3,344.08,1803,440.45,1735.6s202.86-150.4,210-267.81c6.54-108.18-75.36-200-157-271.34S319.61,1052.43,293,947.37c-39.31-155.3,86-308.31,228.55-381.45s306.33-96.79,449-169.62c117.45-60,215.73-150.67,320.53-230.7S1513.9,13.53,1645.2,1.45s277.29,51.63,323.9,175c48.85,129.28-15.57,295.37,73.64,400.92,75.34,89.14,214.52,78.48,327.7,50,150-37.77,307.45-93.27,454.95-46.74C3011.6,639.35,3116.67,852.67,3102.58,1047.43Z"/><path class="cls-2" d="M1114.61,2056.08a253,253,0,0,1-17.22,40.17c-25.82-6.7-46.87,2.87-65,21-17.22,18.18-23,39.22-16.26,65.05a199.25,199.25,0,0,1-39.22,16.26c-14.35-23-38.26-38.26-63.13-38.26-25.83,0-49.75,15.3-64.09,38.26a198.75,198.75,0,0,1-39.22-16.26c6.7-25.83,1-46.87-16.26-65.05-18.18-18.17-39.22-22.95-65-16.26a186.28,186.28,0,0,1-16.26-40.17c23-13.4,38.26-38.27,38.26-63.13s-15.3-45-38.26-58.35a186.37,186.37,0,0,1,16.26-40.18c25.83,6.69,46.87-2.87,65-21,17.22-17.22,23-38.27,16.26-65.05a200,200,0,0,1,39.22-16.26c14.34,23,38.26,38.26,64.09,38.26,24.87,0,48.78-15.3,63.13-38.26a200.46,200.46,0,0,1,39.22,16.26c-6.7,26.78-1,47.83,16.26,65.05,18.17,18.17,39.22,27.73,65,21a253.06,253.06,0,0,1,17.22,40.18c-23.91,13.39-39.22,33.47-39.22,58.35S1090.7,2042.68,1114.61,2056.08Zm-113.83-58.35c0-47.83-39.22-87-87-87-48.79,0-88,39.22-88,87,0,48.78,39.22,87,88,87A86.75,86.75,0,0,0,1000.78,1997.73Z"/><path class="cls-3" d="M1877,2208.35H1088.72A123.54,123.54,0,0,1,965.32,2085V508.46a123.55,123.55,0,0,1,123.4-123.41H1877a123.55,123.55,0,0,1,123.4,123.41V2085A123.54,123.54,0,0,1,1877,2208.35ZM1088.72,406.66a101.92,101.92,0,0,0-101.8,101.8V2085a101.92,101.92,0,0,0,101.8,101.8H1877a101.92,101.92,0,0,0,101.8-101.8V508.46A101.92,101.92,0,0,0,1877,406.66Z"/><rect class="cls-4" x="976.12" y="395.86" width="1013.45" height="1801.7" rx="112.61"/><path class="cls-3" d="M1058.82,502.59a6.51,6.51,0,0,1,6.57-6.57h78.83a6.57,6.57,0,0,1,0,13.14h-78.83A6.51,6.51,0,0,1,1058.82,502.59Zm92,26.27a6.67,6.67,0,0,1-6.56,6.57h-78.83a6.57,6.57,0,0,1,0-13.14h78.83A6.67,6.67,0,0,1,1150.78,528.86Zm0,26.28a6.67,6.67,0,0,1-6.56,6.57h-78.83a6.57,6.57,0,1,1,0-13.14h78.83A6.67,6.67,0,0,1,1150.78,555.14Z"/><path class="cls-3" d="M1759.34,554.78v9.39H1676v-9.39c0-2.66,7.27-6.74,18.08-10.81,11-3.9,14.54-7.27,14.54-14.54,0-4.25-3.37-2.84-4.79-10.81-.71-3.19-3.54,0-4.25-7.45,0-3,1.77-3.72,1.77-3.72s-.89-4.43-1.24-7.8c-.36-4.25,2.48-15.24,17.55-15.24,15.24,0,18.08,11,17.72,15.24-.35,3.37-1.24,7.8-1.24,7.8s1.6.71,1.6,3.72c-.54,7.45-3.37,4.26-4.08,7.45-1.42,8-4.79,6.56-4.79,10.81,0,7.27,3.55,10.64,14.36,14.54C1752.25,548,1759.34,552.12,1759.34,554.78Z"/><path class="cls-3" d="M1906.79,500c-.38,2.47-9.11,61.53-9.11,61.53a4.34,4.34,0,0,1-3.8,2.66h-55.64a4.34,4.34,0,0,1-3.8-2.66s-8.74-59.06-9.12-61.53a5.8,5.8,0,0,1,2.28-5.7c1.33-1.32,8.93-7,10.45-8.35a8.52,8.52,0,0,1,5.12-1.52h45.77a9.5,9.5,0,0,1,5.32,1.52c1.33,1.33,8.93,7,10.45,8.35A6.14,6.14,0,0,1,1906.79,500Zm-7.21.57-10.64-10.82h-45.77l-10.44,10.82Zm-14.06,8.74h-8.73c-1.33,6.45-4.37,17.66-10.64,17.66-6.45,0-9.49-11.21-10.82-17.66h-8.74c.76,4.37,4,26.21,19.56,26.21C1881.54,535.5,1884.76,513.66,1885.52,509.29Z"/><path class="cls-3" d="M1608,558l-4.65,4.85a5,5,0,0,1-6.87,0l-19.19-19.2a31.64,31.64,0,0,1-15.76,4.25c-17.18,0-32.13-15-32.13-32.33a31.17,31.17,0,0,1,31.32-31.12c17.17,0,32.13,14.95,32.13,32.13a31.27,31.27,0,0,1-4.45,16.16l19,19.2C1609.23,553.72,1610,556.14,1608,558Zm-46.47-19.8a21.69,21.69,0,0,0,21.82-21.62c0-11.92-10.71-22.63-22.63-22.63a21.65,21.65,0,0,0-21.62,21.62C1539.12,527.45,1549.63,538.16,1561.55,538.16Z"/><circle class="cls-2" cx="1899.49" cy="499.08" r="18.77"/><rect class="cls-5" x="1080.28" y="1803.43" width="819.21" height="233.66" rx="58.45"/><rect class="cls-6" x="1098.11" y="754.32" width="766.66" height="982.49" rx="62.42"/><path class="cls-6" d="M1080.28,816.12V1675c0,34.13-43.26,61.81-96.62,61.81h-7.54V754.32h7.54C1037,754.32,1080.28,782,1080.28,816.12Z"/><path class="cls-3" d="M1412.94,1893.52H1153a18.77,18.77,0,0,1,0-37.54h259.94a18.77,18.77,0,0,1,0,37.54Z"/><path class="cls-3" d="M1491.76,1984.54H1151.13a18.77,18.77,0,0,1,0-37.54h340.63a18.77,18.77,0,0,1,0,37.54Z"/><rect class="cls-3" x="1676.62" y="1864.43" width="170.79" height="95.72" rx="47.86"/><path class="cls-6" d="M1989.57,755v981.1c-51-4.46-90.08-30.12-90.08-61.11V816.12C1899.49,785.13,1938.59,759.47,1989.57,755Z"/><rect class="cls-7" x="1114.06" y="714.91" width="751.64" height="982.49" rx="61.8"/><path d="M1414.74,1062.43h17.09v5.94H1407V1030h7.7Z"/><path d="M1438.49,1053.83a15.31,15.31,0,0,1,3.56-10.45c2.38-2.72,5.66-4.08,9.87-4.08s7.52,1.36,9.91,4.07a15.2,15.2,0,0,1,3.59,10.46v.56a15.22,15.22,0,0,1-3.58,10.48q-3.57,4.05-9.87,4.05t-9.9-4.05a15.22,15.22,0,0,1-3.58-10.48Zm7.68.54a12.34,12.34,0,0,0,1.37,6.26A4.73,4.73,0,0,0,1452,1063a4.68,4.68,0,0,0,4.36-2.37,12.24,12.24,0,0,0,1.39-6.25v-.55a12.2,12.2,0,0,0-1.4-6.19,4.74,4.74,0,0,0-4.4-2.39,4.67,4.67,0,0,0-4.37,2.41,12.28,12.28,0,0,0-1.38,6.17Z"/><path d="M1473,1054.34q0-6.75,2.94-10.9a9.53,9.53,0,0,1,8.24-4.14,8,8,0,0,1,4.22,1.09,9.42,9.42,0,0,1,3.11,3.08l.61-3.64h6.64v28.4q0,5.57-3.65,8.61t-10.16,3.05a19.53,19.53,0,0,1-4.59-.59,21.31,21.31,0,0,1-4.49-1.63l1.43-5.74a18.18,18.18,0,0,0,3.6,1.27,16.71,16.71,0,0,0,4,.44,6.91,6.91,0,0,0,4.66-1.32,5.23,5.23,0,0,0,1.49-4.11v-2.59a8.72,8.72,0,0,1-3,2.46,8.86,8.86,0,0,1-3.93.84,9.72,9.72,0,0,1-8.19-3.86q-2.94-3.87-2.94-10.17Zm7.7.55a11.66,11.66,0,0,0,1.27,5.93,4.38,4.38,0,0,0,4.11,2.17,6.32,6.32,0,0,0,3-.65,5,5,0,0,0,2-1.9V1048a5.31,5.31,0,0,0-2-2,5.79,5.79,0,0,0-2.94-.71,4.33,4.33,0,0,0-4.12,2.52,14.18,14.18,0,0,0-1.31,6.58Z"/><path d="M1534.35,1033h-7.7v-5.77h7.7Zm0,35.37h-7.7v-28.54h7.7Z"/><path d="M1551.77,1039.83l.34,4.09a10.44,10.44,0,0,1,3.51-3.4,9.09,9.09,0,0,1,4.67-1.22A8.6,8.6,0,0,1,1567,1042q2.43,2.71,2.43,8.52v17.83h-7.73v-17.85c0-1.92-.39-3.28-1.16-4.08a4.68,4.68,0,0,0-3.51-1.2,5.85,5.85,0,0,0-2.74.62,5.53,5.53,0,0,0-2,1.76v20.75h-7.7v-28.54Z"/><path class="cls-8" d="M1447,1257.31H1204.47c-9.68,0-17.52-5.29-17.52-11.81s7.84-11.82,17.52-11.82H1447c9.68,0,17.52,5.29,17.52,11.82S1456.72,1257.31,1447,1257.31Z"/><path class="cls-8" d="M1598.49,1335.62h-390c-11.87,0-21.49-12.69-21.49-28.35s9.62-28.35,21.49-28.35h390c11.87,0,21.49,12.69,21.49,28.35S1610.36,1335.62,1598.49,1335.62Z"/><path class="cls-8" d="M1447,1405.84H1204.47c-9.68,0-17.52-5.29-17.52-11.82s7.84-11.81,17.52-11.81H1447c9.68,0,17.52,5.29,17.52,11.81S1456.72,1405.84,1447,1405.84Z"/><path class="cls-8" d="M1598.49,1484.15h-390c-11.87,0-21.49-12.69-21.49-28.35s9.62-28.36,21.49-28.36h390c11.87,0,21.49,12.7,21.49,28.36S1610.36,1484.15,1598.49,1484.15Z"/><rect class="cls-2" x="1335.96" y="1557.99" width="307.85" height="95.72" rx="47.86"/><path class="cls-2" d="M1596.35,865.07A106.47,106.47,0,1,1,1489.89,758.6,106.41,106.41,0,0,1,1596.35,865.07Z"/><circle class="cls-9" cx="1489.88" cy="849.29" r="35.49" transform="translate(-211.6 634.8) rotate(-22.5)"/><path class="cls-9" d="M1541.15,943.93v14.46a106.59,106.59,0,0,1-102.54,0V943.93a51.27,51.27,0,1,1,102.54,0Z"/><path class="cls-3" d="M2278.7,1875.07a21.2,21.2,0,0,1-21.2-21.2V1707.62c0-88.24-71.79-160-160-160s-160,71.79-160,160v146.25a21.2,21.2,0,1,1-42.39,0V1707.62c0-111.62,90.8-202.42,202.42-202.42s202.42,90.8,202.42,202.42v146.25A21.2,21.2,0,0,1,2278.7,1875.07Z"/><path class="cls-2" d="M2212.42,2207.32H1986.76a168.55,168.55,0,0,1-168.55-168.55V1836.85a49.22,49.22,0,0,1,49.22-49.21h464.32a49.22,49.22,0,0,1,49.22,49.21v201.92A168.55,168.55,0,0,1,2212.42,2207.32Z"/><path class="cls-8" d="M2015.76,2082.05l45.78-79.3a53,53,0,1,1,76.1,0l45.78,79.3Z"/><path class="cls-10" d="M2183.42,2082.05h-13.9L2123.86,2003a53,53,0,0,0-32-89.5,53,53,0,0,1,45.74,89.28Z"/><path class="cls-7" d="M1704.77,2141.25H1260.92a4.69,4.69,0,1,1,0-9.38h443.85a4.69,4.69,0,0,1,0,9.38Z"/><rect class="cls-1" x="25.82" y="831.73" width="124.69" height="124.69" transform="translate(-606.39 324.22) rotate(-45)"/><path class="cls-1" d="M593.39,434,492.75,333.31,593.39,232.67,694,333.31Zm-75.7-100.64,75.7,75.7,75.71-75.7-75.71-75.7Z"/><path class="cls-1" d="M2954.51,1954.06l-64.81-64.81,64.81-64.81,64.81,64.81Zm-48.75-64.81,48.75,48.75,48.75-48.75-48.75-48.75Z"/><rect class="cls-1" x="142.59" y="1792.3" width="49.88" height="49.88" transform="translate(-1235.91 650.71) rotate(-45)"/><rect class="cls-1" x="206.95" y="1079.87" width="49.88" height="49.88" transform="translate(-713.3 487.56) rotate(-45)"/><rect class="cls-1" x="3099.48" y="598.96" width="124.69" height="124.69" transform="translate(458.46 2429.44) rotate(-45)"/><rect class="cls-1" x="283.66" y="23.58" width="49.88" height="49.88" transform="translate(56.08 232.42) rotate(-45)"/><path class="cls-11" d="M1611.77,1116.89H1369.2c-9.68,0-17.52-5.29-17.52-11.82s7.84-11.81,17.52-11.81h242.57c9.68,0,17.52,5.29,17.52,11.81S1621.45,1116.89,1611.77,1116.89Z"/><path class="cls-3" d="M2935.93,2216.45H45.71a10.8,10.8,0,0,1,0-21.6H2935.93a10.8,10.8,0,1,1,0,21.6Z"/></g></g></svg>